<?xml version="1.0" encoding="utf-8"?>
<!-- Generator: Adobe Illustrator 16.0.4, SVG Export Plug-In . SVG Version: 6.00 Build 0)  -->
<!DOCTYPE svg PUBLIC "-//W3C//DTD SVG 1.1//EN" "http://www.w3.org/Graphics/SVG/1.1/DTD/svg11.dtd">
<svg version="1.1" id="Layer_1" xmlns="http://www.w3.org/2000/svg" xmlns:xlink="http://www.w3.org/1999/xlink" x="0px" y="0px"
	 width="470.5px" height="127.5px" viewBox="0 0 470.5 127.5" enable-background="new 0 0 470.5 127.5" xml:space="preserve">
<g>
	<path d="M38.785,56.098c-4.59,8.56-9.041,16.884-13.527,25.188c-0.365,0.675-0.854,1.435-1.489,1.784
		c-1.491,0.822-2.962,0.059-3.557-1.721c-2.665-7.973-5.311-15.951-7.966-23.928c-1.901-5.711-3.809-11.42-5.707-17.133
		c-0.67-2.019-0.038-2.95,2.085-2.983c2.406-0.038,4.813,0.019,7.219-0.02c1.49-0.023,2.362,0.616,2.833,2.048
		c1.997,6.073,4.047,12.128,6.083,18.188c0.116,0.347,0.276,0.679,0.504,1.231c2.042-3.832,3.995-7.494,5.944-11.159
		c1.753-3.296,3.538-6.578,5.233-9.904c0.565-1.109,1.363-1.524,2.542-1.519c1.195,0.004,1.975,0.493,2.539,1.573
		c3.38,6.477,6.803,12.932,10.213,19.392c0.239,0.453,0.498,0.894,0.915,1.638c1.261-3.723,2.424-7.132,3.57-10.547
		c0.982-2.925,1.981-5.846,2.901-8.792c0.468-1.498,1.391-2.17,2.941-2.147c2.299,0.034,4.6-0.021,6.898,0.017
		c2.144,0.035,2.866,1.08,2.185,3.126C66.616,54.04,62.07,67.643,57.56,81.257c-0.366,1.104-0.817,1.935-2.112,2.048
		c-1.357,0.119-2.179-0.479-2.807-1.647c-4.262-7.943-8.559-15.869-12.847-23.798C39.52,57.352,39.221,56.857,38.785,56.098z"/>
	<path d="M363.418,36.182c12.461-0.017,22.955,10.663,22.969,23.376c0.017,12.976-10.354,23.726-22.932,23.772
		c-12.609,0.047-23.273-10.879-23.162-23.735C340.402,46.71,350.785,36.198,363.418,36.182z M352.668,60.312
		c0.016,0.267,0.029,0.534,0.047,0.801c0.424,6.889,7.486,11.706,14,9.516c4.201-1.413,7.933-6.171,7.301-12.359
		c-0.557-5.48-5.344-10.25-11.127-9.947C356.41,48.661,352.139,54.57,352.668,60.312z"/>
	<path d="M247.248,61.994c0.027,4.708,4.369,9.264,8.998,9.646c3.512,0.291,6.768-0.338,9.775-2.265
		c2.289-1.468,2.672-1.358,4.44,0.638c1.099,1.239,2.205,2.473,3.285,3.729c1.465,1.705,1.396,2.383-0.235,3.868
		c-3.521,3.209-7.726,4.943-12.384,5.479c-6.221,0.716-12.187-0.085-17.308-4.049c-7.5-5.808-10.536-13.544-9.187-22.861
		c1.328-9.16,6.323-15.814,15.13-18.768c12.971-4.35,24.74,2.794,27.625,13.831c0.685,2.617,0.601,5.478,0.578,8.224
		c-0.016,2.091-0.697,2.521-2.836,2.523c-8.717,0.006-17.434,0.002-26.148,0.002C248.404,61.994,247.826,61.994,247.248,61.994z
		 M264.988,54.052c-0.584-4.539-3.859-7.488-8.109-7.494c-4.398-0.007-8.059,3.148-8.594,7.494
		C253.82,54.052,259.346,54.052,264.988,54.052z"/>
	<path d="M450.326,49.123c0,3.236-0.015,6.272,0.004,9.307c0.016,3.045-0.049,6.097,0.131,9.134
		c0.141,2.346,1.223,3.254,3.576,3.057c1.625-0.139,3.236-0.605,4.824-1.041c1.996-0.548,2.504-0.365,3.129,1.518
		c0.703,2.122,1.377,4.256,2.041,6.391c0.377,1.205,0.207,2.316-1.066,2.83c-5.354,2.154-10.871,3.656-16.682,2.688
		c-4.959-0.826-7.969-4.135-8.789-9.312c-0.314-1.991-0.367-4.037-0.383-6.06c-0.047-6.087-0.019-12.175-0.019-18.512
		c-1.153,0-2.199,0.023-3.246-0.005c-1.873-0.049-2.565-0.653-2.621-2.479c-0.065-2.298-0.065-4.6-0.002-6.897
		c0.052-1.78,0.806-2.415,2.644-2.444c0.908-0.014,1.817-0.014,2.727-0.029c0.099-0.002,0.195-0.063,0.5-0.169
		c0-1.512,0-3.097,0-4.682c0.002-2.46,0.012-4.919,0-7.379c-0.006-1.331,0.599-2.202,1.943-2.254
		c3.096-0.122,6.195-0.201,9.293-0.179c1.424,0.01,2.018,0.948,2.004,2.362c-0.031,3.476-0.008,6.952-0.008,10.427
		c0,0.574,0,1.149,0,1.903c3.082,0,6.006-0.002,8.932,0.001c2.535,0.002,3.176,0.659,3.185,3.25c0.004,1.765,0.004,3.529,0,5.294
		c-0.009,2.623-0.673,3.275-3.355,3.28C456.256,49.127,453.424,49.123,450.326,49.123z"/>
	<path d="M210.534,42.867c0-12.026-0.002-21.053,0.001-33.079c0-2.572,0.621-3.184,3.21-3.187c2.62-0.002,5.238-0.019,7.857,0.006
		c1.679,0.016,2.426,0.736,2.579,2.398c0.033,0.371,0.022,0.748,0.022,1.122c0.001,23.839,0.001,44.677,0.001,68.516
		c0,0.32,0.01,0.644-0.01,0.963c-0.116,1.858-0.852,2.584-2.714,2.6c-2.726,0.021-5.452,0.018-8.177,0.003
		c-2.115-0.013-2.765-0.656-2.767-2.781C210.53,67.24,210.534,55.054,210.534,42.867z"/>
	<path d="M406.432,43.042c3.146-4.26,7.123-6.598,12.195-6.814c2.621-0.111,5.24,0.102,7.641,1.34
		c1.777,0.917,2.08,1.921,1.123,3.64c-1.194,2.143-2.436,4.261-3.641,6.398c-0.721,1.275-1.631,1.831-3.16,1.272
		c-2.229-0.815-4.51-0.839-6.686,0.229c-2.578,1.266-4.271,2.908-4.166,6.259c0.237,7.637,0.076,15.284,0.074,22.93
		c0,3.486-0.439,3.916-3.99,3.917c-2.244,0-4.49,0.016-6.734-0.005c-1.955-0.019-2.699-0.76-2.701-2.726
		c-0.008-13.149-0.008-26.3,0-39.449c0.002-1.914,0.816-2.735,2.729-2.729c5.799,0.019,4.858-0.626,6.813,4.552
		C406.059,42.199,406.215,42.532,406.432,43.042z"/>
	<path d="M80.29,59.772c0-6.463-0.005-12.927,0.002-19.392c0.003-2.321,0.756-3.075,3.053-3.082c2.511-0.008,5.022-0.006,7.533,0
		c2.375,0.005,3.022,0.626,3.03,3.06c0.021,6.411,0.008,12.822,0.008,19.232c0,6.411,0.006,12.822-0.003,19.232
		c-0.004,2.863-0.534,3.387-3.347,3.389c-2.458,0.002-4.915,0.009-7.373-0.002c-2.143-0.009-2.894-0.74-2.898-2.884
		C80.281,72.809,80.29,66.29,80.29,59.772z"/>
	<path d="M86.902,29.281c-4.3-0.021-7.619-3.448-7.575-7.823c0.043-4.289,3.394-7.621,7.649-7.608
		c4.367,0.014,7.818,3.502,7.777,7.861C94.713,25.997,91.285,29.302,86.902,29.281z"/>
	<path d="M465.176,91.645c-0.357-0.358-2.394-2.242-7.203-4.033c-2.89-1.076-6.371-1.646-10.069-1.646
		c-4.332,0-8.483,0.767-12.007,2.218c-5.75,2.366-9.854,5.201-13.895,8.14c-2.207,1.604-4.325,3.245-6.373,4.832
		c-3.417,2.647-6.645,5.149-10.339,7.563c-2.521,1.648-5.388,3.357-9.285,4.691c-4.72,1.615-9.914,1.509-14.541-0.292
		c-4.766-1.854-8.152-4.14-11.772-6.718c-2.438-1.735-4.797-3.565-7.077-5.334c-3.215-2.493-6.539-5.072-10.259-7.539
		c-3.06-2.027-6.529-4.137-11.183-5.821c-3.384-1.224-6.961-1.845-10.634-1.845c-4.047,0-8.052,0.787-11.583,2.277
		c-5.713,2.409-10.01,5.219-14.703,8.693c-0.954,0.707-1.897,1.419-2.827,2.13c0-5.405,0-10.81,0.002-16.216
		c0.002-0.551,0.049-1.104,0.08-1.756c0.711,0.281,1.248,0.5,1.789,0.71c5.059,1.97,10.211,2.241,15.328,0.425
		c9.863-3.504,15.979-13.729,14.965-24.654c-0.684-7.38-3.803-13.441-9.908-17.681c-8.157-5.665-18.219-4.695-26.111,2.333
		c-0.161-0.25-0.271-0.369-0.325-0.509c-1.979-5.025-1.166-4.261-6.531-4.312c-2.338-0.021-3.073,0.719-3.08,3.045
		c-0.01,4.33-0.002,8.661-0.002,12.99c0,18.59-0.001,37.18,0.002,55.771c-2.313,1.475-4.559,2.671-6.948,3.679
		c-1.324,0.56-2.793,1.012-4.365,1.342c-3.512,0.738-6.911,0.573-10.41-0.51c-3.546-1.097-6.193-2.547-9.076-4.388
		c-4.052-2.586-7.541-5.287-11.234-8.146c-1.123-0.869-2.244-1.737-3.384-2.603c-3.942-2.995-8.848-6.723-15.412-9.741
		c-1.889-0.87-4.013-1.583-6.315-2.122c-5.398-1.262-10.935-1.035-16.089,0.656c-1.481,0.486-2.904,1.029-4.294,1.641
		c-2.232-2.891-5.647-5.061-9.836-6.012c-1.859-0.424-3.802-0.616-5.711-0.652c-4.865-0.09-9.732,0.001-14.599-0.048
		c-2.286-0.021-3.906-1.308-4.253-3.179c-0.34-1.829,0.92-3.961,2.966-4.579c0.971-0.293,2.112-0.231,3.141-0.087
		c3.981,0.562,7.948,0.968,11.946,0.15c8.29-1.695,14.562-9.422,14.24-17.715c-0.157-4.037-1.307-7.755-4.463-10.839
		c1.217-0.391,2.226-0.686,3.214-1.038c4.869-1.732,4.185-0.497,4.226-5.899c0.017-2.161-0.583-2.829-2.708-2.828
		c-7.111,0.004-14.229-0.118-21.33,0.147c-7.333,0.274-12.559,4.257-15.877,10.567c-3.414,6.491-2.575,12.966,1.001,19.362
		c-10.76,6.057-11.113,19.98,0.231,24.627c-0.563,0.429-1.13,0.737-1.539,1.189c-1.381,1.527-3.072,2.919-3.981,4.7
		c-2.566,5.028-0.816,11.247,3.934,15.208c0.553,0.461,1.123,0.879,1.707,1.258c-1.843,0.664-3.582,1.061-5.457,1.237
		c-3.038,0.288-5.854-0.073-9.026-1.165c-1.119-0.385-2.144-0.815-3.107-1.27c1.651-1.291,3.114-2.859,4.349-4.746
		c4.849-7.408,3.129-16.98-3.86-21.701c-3.518-2.375-7.464-3.35-11.659-3.379c-4.971-0.033-9.943,0.021-14.915-0.024
		c-2.293-0.022-3.833-1.218-4.157-3.022c-0.365-2.024,0.634-3.972,2.72-4.684c0.997-0.34,2.206-0.266,3.285-0.121
		c4.035,0.541,8.056,0.977,12.099,0.107c9.416-2.027,15.455-11.083,13.752-20.527c-0.544-3.021-1.796-5.649-4.074-8.011
		c1.269-0.413,2.317-0.755,3.366-1.095c4.375-1.418,4.375-1.417,4.149-6.031c-0.093-1.903-0.743-2.627-2.676-2.625
		c-7.375,0.005-14.756-0.103-22.124,0.158c-8.483,0.299-16.605,8.59-17.223,17.068c-0.336,4.614,0.613,8.874,3.01,12.808
		c-9.025,5.328-10.516,15.088-4.825,21.112c-0.949-0.297-1.914-0.575-2.913-0.808c-5.531-1.288-12.143-0.758-17.725,1.404
		c-5.452,2.112-9.375,4.725-12.925,7.218c-2.833,1.991-5.483,4.042-8.046,6.026c-3.463,2.68-6.734,5.213-10.479,7.657
		c-2.918,1.905-5.568,3.41-9.012,4.556c-2.979,0.989-5.625,1.336-8.483,1.121c-1.801-0.137-3.511-0.506-5.544-1.197
		c-3.866-1.312-6.68-3.125-9.401-4.879c-3.192-2.058-5.959-4.211-8.888-6.493l-1.465-1.142c-0.378-0.312-1.164-0.964-2.494-1.305
		c-1.194-0.307-2.468-0.043-3.445,0.715c-0.976,0.758-1.547,1.924-1.547,3.16v0.658c0,1.466,1.492,2.889,2.516,3.714l0.154,0.121
		c0.622,0.473,1.24,0.946,1.858,1.421c3.742,2.869,7.612,5.836,12.425,8.552c2.366,1.335,5.036,2.71,8.519,3.726
		c6.628,1.933,13.225,1.746,19.499-0.553c4.223-1.549,7.415-3.439,9.724-4.914c4.328-2.764,8.099-5.684,11.746-8.507
		c1.098-0.851,2.196-1.7,3.31-2.547c4-3.04,8.137-6.185,13.791-8.785c1.694-0.78,3.485-1.349,5.475-1.739
		c2.569-0.504,5.144-0.506,7.646-0.004c4.122,0.825,7.007,2.295,9.512,3.763c4.753,2.782,8.633,5.784,12.74,8.962l1.417,1.097
		c4.235,3.283,8.614,6.677,14.146,9.752c2.677,1.488,6.042,3.144,10.703,4.136c2.12,0.453,4.255,0.682,6.347,0.682
		c2.595,0,5.197-0.354,7.734-1.047c5.679-1.555,9.58-3.898,12.79-5.971c4.221-2.726,7.93-5.595,11.517-8.369
		c1.673-1.293,3.404-2.633,5.145-3.922c2.847-2.108,6.333-4.562,10.606-6.772c1.439-0.744,3.197-1.4,5.224-1.953
		c3.952-1.076,7.97-0.949,12.024,0.38c2.272,0.745,4.326,1.682,6.661,3.039c4.527,2.628,8.21,5.471,12.107,8.48
		c0.682,0.524,1.361,1.05,2.047,1.574l1.186,0.908c4.012,3.081,8.161,6.268,13.508,9.118c2.633,1.403,5.809,2.976,10.196,3.875
		c4.741,0.972,9.438,0.839,14.034-0.396c5.127-1.375,8.738-3.455,11.996-5.465c4.34-2.678,8.004-5.533,11.549-8.295l1.14-0.887
		c3.387-2.63,7.227-5.611,11.632-8.286c2.775-1.687,5.133-2.919,8.301-3.851c4.31-1.262,8.497-1.223,12.543,0.119
		c3.633,1.205,6.37,2.778,8.354,4.017c4.07,2.537,7.517,5.21,11.164,8.041c1.275,0.989,2.551,1.979,3.853,2.961l0.08,0.062
		c3.565,2.689,7.252,5.472,11.943,7.979c2.173,1.162,4.85,2.48,8.222,3.451c2.708,0.779,5.569,1.174,8.504,1.174
		c3.456,0,6.885-0.568,9.911-1.645c5.921-2.103,9.988-4.791,14.321-7.834c2.847-2,5.508-4.059,8.082-6.051
		c3.18-2.46,6.184-4.785,9.56-7.05c1.773-1.188,3.938-2.562,6.539-3.729c2.468-1.107,5.203-2.205,9.098-2.388
		c2.003-0.094,3.844,0.084,5.693,0.542c3.554,0.879,5.229,1.666,7.872,3.208c1.737,1.015,3.956,0.58,5.184-1.012
		C466.742,95.323,466.598,93.066,465.176,91.645z M178.69,48.196c4.539-0.043,7.839,3.351,7.842,8.065
		c0.003,4.689-3.167,8.011-7.663,8.027c-4.591,0.019-7.88-3.315-7.894-8.001C170.963,51.774,174.334,48.239,178.69,48.196z
		 M127.585,48.196c4.461,0.017,7.695,3.369,7.735,8.017c0.041,4.698-3.206,8.066-7.786,8.076c-4.458,0.009-7.764-3.368-7.786-7.955
		C119.728,51.737,123.153,48.18,127.585,48.196z M119.941,94.668c0.688-0.453,1.473-0.791,2.34-0.945
		c2.041-0.363,4.135-0.422,6.491-0.644c1.266,0.17,2.819,0.269,4.32,0.604c2.317,0.521,3.995,1.928,4.383,4.334
		c0.414,2.57-0.68,4.707-2.919,5.933c-0.458,0.25-0.918,0.468-1.38,0.668c-1.412-1.06-2.809-2.134-4.235-3.239
		c-1.532-1.188-3.064-2.377-4.64-3.552C122.909,96.789,121.467,95.729,119.941,94.668z M181.781,100.968
		c-1.713,1.32-3.485,2.687-5.268,4.001c-0.221,0.164-0.44,0.324-0.661,0.486c-1.311-0.235-2.609-0.596-3.811-1.102
		c-2.611-1.101-3.819-3.468-3.504-5.89c0.27-2.075,2.4-4.155,4.878-4.76c0.311-0.075,0.624-0.17,0.941-0.19
		c1.756-0.128,3.514-0.233,6.024-0.396c0.953,0.142,2.67,0.258,4.311,0.678c1.495,0.382,2.665,1.215,3.372,2.435
		C185.891,97.812,183.81,99.404,181.781,100.968z M300.9,61.628c0-1.55-0.002-3.102,0-4.652c0.002-4.861,4.649-9.098,9.514-8.672
		c5.994,0.525,9.664,4.346,10.102,10.969c0.347,5.249-2.905,10.257-8.012,11.532c-3.74,0.936-7.307,0.145-10.66-1.599
		c-0.473-0.246-0.869-1.069-0.9-1.646C300.832,65.588,300.9,63.606,300.9,61.628z"/>
</g>
</svg>
