<?xml version="1.0" encoding="utf-8"?>
<!-- Generator: Adobe Illustrator 16.0.4, SVG Export Plug-In . SVG Version: 6.00 Build 0)  -->
<!DOCTYPE svg PUBLIC "-//W3C//DTD SVG 1.1//EN" "http://www.w3.org/Graphics/SVG/1.1/DTD/svg11.dtd">
<svg version="1.1" xmlns="http://www.w3.org/2000/svg" xmlns:xlink="http://www.w3.org/1999/xlink" x="0px" y="0px" width="16px"
	 height="16px" viewBox="0 0 16 16" enable-background="new 0 0 16 16" xml:space="preserve">
<g id="Bg">
	<path fill-rule="evenodd" clip-rule="evenodd" fill="#FFFFFF" d="M16,15c0,0.553-0.447,1-1,1H1c-0.552,0-1-0.447-1-1V1
		c0-0.552,0.448-1,1-1h14c0.553,0,1,0.448,1,1V15z"/>
</g>
<g id="Fg">
	<path fill-rule="evenodd" clip-rule="evenodd" d="M1,2v0.471c0.007,0,0.014,0,0.021-0.002c0.225-0.049,0.452-0.076,0.683-0.08
		c0.183-0.002,0.364,0.008,0.545,0.036c0.261,0.042,0.515,0.113,0.759,0.209c0.307,0.121,0.596,0.277,0.874,0.453
		c0.292,0.185,0.569,0.387,0.841,0.6C4.98,3.888,5.234,4.093,5.492,4.294C5.75,4.497,6.019,4.686,6.306,4.848
		c0.226,0.128,0.46,0.236,0.709,0.311C7.178,5.206,7.343,5.24,7.514,5.232c0.202-0.008,0.384-0.073,0.54-0.202
		c0.121-0.099,0.21-0.222,0.286-0.356c0.068-0.122,0.125-0.25,0.167-0.383c0.076-0.238,0.151-0.476,0.228-0.714
		c0.089-0.27,0.183-0.537,0.298-0.795c0.188-0.425,0.442-0.804,0.776-1.128c0.252-0.244,0.531-0.452,0.834-0.628
		C10.656,1.018,10.671,1.009,10.685,1H2C1.448,1,1,1.448,1,2z"/>
	<path fill-rule="evenodd" clip-rule="evenodd" d="M2,15h12c0.553,0,1-0.447,1-1V2.688c-0.008-0.007-0.015-0.013-0.022-0.02
		c-0.206-0.182-0.435-0.327-0.688-0.435c-0.475-0.206-0.974-0.269-1.487-0.212c-0.26,0.028-0.513,0.092-0.758,0.185
		c-0.175,0.067-0.343,0.149-0.502,0.245c-0.354,0.21-0.627,0.498-0.838,0.848c-0.119,0.201-0.224,0.411-0.309,0.63
		c-0.096,0.251-0.189,0.505-0.283,0.758c-0.091,0.248-0.186,0.493-0.302,0.73c-0.13,0.266-0.284,0.516-0.483,0.737
		C8.92,6.606,8.412,6.865,7.804,6.918C7.508,6.944,7.214,6.92,6.924,6.86C6.594,6.793,6.277,6.685,5.97,6.548
		c-0.491-0.22-0.945-0.502-1.363-0.842C4.363,5.507,4.123,5.302,3.88,5.101C3.671,4.927,3.457,4.758,3.23,4.605
		C3.006,4.454,2.772,4.321,2.518,4.226C2.25,4.126,1.976,4.073,1.69,4.083C1.51,4.089,1.333,4.121,1.159,4.17
		C1.112,4.184,1.063,4.194,1.016,4.206C1.01,4.208,1.005,4.209,1,4.211V14C1,14.553,1.448,15,2,15z M14.043,8.484
		c0,1.861,0,3.725,0,5.588c0,0.035-0.002,0.07-0.009,0.105c-0.018,0.104-0.121,0.213-0.244,0.221
		C13.766,14.4,13.74,14.4,13.716,14.4c-0.406,0-0.816,0-1.223,0c-0.024,0-0.051,0-0.074-0.002c-0.094-0.008-0.165-0.057-0.221-0.129
		c-0.029-0.039-0.046-0.086-0.048-0.133c-0.001-0.025-0.001-0.053-0.001-0.08c0-0.926,0-1.852,0-2.777c0-0.922,0-1.848,0-2.77
		c0-0.025,0-0.049,0-0.076c0-0.066,0.024-0.127,0.07-0.178c0.03-0.029,0.065-0.057,0.1-0.08c0.04-0.027,0.085-0.041,0.134-0.041
		c0.021,0,0.041,0,0.06,0c0.396,0,0.791,0,1.183,0c0.014,0,0.027,0,0.041,0c0.173-0.012,0.303,0.141,0.307,0.295
		C14.043,8.447,14.043,8.467,14.043,8.484z M12.182,4.245c0.155-0.229,0.361-0.386,0.634-0.451c0.082-0.02,0.176-0.028,0.273-0.03
		c0.386,0.005,0.692,0.169,0.916,0.487c0.112,0.159,0.165,0.339,0.174,0.533c0.006,0.113-0.005,0.224-0.032,0.335
		c-0.088,0.362-0.42,0.692-0.814,0.773c-0.207,0.042-0.413,0.037-0.612-0.034c-0.369-0.13-0.648-0.469-0.698-0.857
		C11.987,4.732,12.028,4.475,12.182,4.245z M1.959,8.18C2,8.154,2.045,8.141,2.093,8.137C2.115,8.135,2.138,8.135,2.16,8.135
		c0.358,0,0.717,0.002,1.074,0c0.089-0.002,0.163,0.031,0.23,0.082c0.039,0.031,0.064,0.068,0.08,0.115
		c0.302,0.91,0.605,1.818,0.908,2.729c0.007,0.021,0.009,0.049,0.033,0.07c0.009-0.014,0.019-0.02,0.024-0.031
		c0.036-0.066,0.072-0.137,0.108-0.205c0.494-0.924,0.986-1.85,1.479-2.775c0.043-0.08,0.106-0.126,0.197-0.132
		c0.06-0.004,0.122-0.005,0.182-0.002C6.596,7.99,6.685,8.051,6.74,8.156C6.861,8.385,6.98,8.615,7.1,8.844
		c0.387,0.74,0.774,1.48,1.161,2.219c0.012,0.021,0.019,0.047,0.04,0.064c0.021-0.01,0.023-0.027,0.029-0.043
		c0.048-0.146,0.098-0.295,0.148-0.441c0.256-0.76,0.515-1.516,0.77-2.275c0.04-0.121,0.12-0.188,0.238-0.213
		c0.046-0.012,0.094-0.018,0.141-0.02c0.334,0,0.672,0,1.008,0c0.095,0,0.175,0.035,0.237,0.107c0.06,0.072,0.077,0.148,0.047,0.238
		c-0.055,0.158-0.107,0.32-0.161,0.48c-0.476,1.432-0.953,2.865-1.43,4.297c-0.12,0.363-0.24,0.727-0.361,1.09
		c-0.002,0.004-0.003,0.008-0.004,0.014c-0.034,0.117-0.115,0.18-0.234,0.189c-0.049,0.004-0.101,0.006-0.148,0
		c-0.106-0.014-0.188-0.072-0.239-0.166c-0.112-0.207-0.223-0.414-0.335-0.619c-0.527-0.977-1.055-1.955-1.583-2.936
		c-0.012-0.02-0.02-0.043-0.037-0.061c-0.024,0-0.027,0.018-0.034,0.029c-0.058,0.107-0.115,0.215-0.172,0.322
		c-0.581,1.086-1.162,2.172-1.745,3.256c-0.015,0.029-0.034,0.057-0.055,0.084c-0.044,0.053-0.101,0.082-0.168,0.09
		c-0.063,0.006-0.126,0.008-0.188-0.002c-0.106-0.018-0.176-0.076-0.208-0.178c-0.038-0.117-0.078-0.234-0.118-0.354
		c-0.412-1.24-0.824-2.48-1.236-3.721C2.26,9.695,2.059,9.094,1.859,8.49C1.851,8.467,1.843,8.439,1.84,8.41
		C1.829,8.311,1.874,8.232,1.959,8.18z"/>
</g>
</svg>
