<?xml version="1.0" encoding="utf-8"?>
<!-- Generator: Adobe Illustrator 16.0.4, SVG Export Plug-In . SVG Version: 6.00 Build 0)  -->
<!DOCTYPE svg PUBLIC "-//W3C//DTD SVG 1.1//EN" "http://www.w3.org/Graphics/SVG/1.1/DTD/svg11.dtd">
<svg version="1.1" id="Layer_2" xmlns="http://www.w3.org/2000/svg" xmlns:xlink="http://www.w3.org/1999/xlink" x="0px" y="0px"
	 width="199.833px" height="199.833px" viewBox="-46.417 -81.377 199.833 199.833"
	 enable-background="new -46.417 -81.377 199.833 199.833" xml:space="preserve">
<g>
	<g>
		<path d="M97.658,10.477c-2.519,0-5.019-0.542-7.432-1.609C81.07,4.814,76.733-3.74,72.905-11.287
			c-1.284-2.533-2.498-4.925-3.861-7.159c-2.888-4.732-7.914-7.446-13.787-7.446c-3.444,0-6.85,0.958-9.849,2.772
			c-4.61,2.787-6.292,7.444-8.238,12.836c-1.786,4.946-3.81,10.552-8.59,14.726c-3.632,3.17-8.038,4.778-13.095,4.778
			c-8.418,0-16.194-4.467-20.081-7.13c-2.201-1.508-4.323-3.3-6.376-5.034c-4.941-4.172-9.609-8.113-14.943-8.113
			c-1.13,0-2.295,0.18-3.464,0.534c-0.938,0.285-1.879,0.429-2.797,0.429c-4.344,0-7.996-3.358-8.682-7.984
			c-0.704-4.748,1.869-8.861,6.402-10.236c2.887-0.876,5.752-1.32,8.519-1.32c10.727,0,18.633,6.311,27.002,12.992l0.57,0.455
			c3.416,2.724,7.46,5.641,11.562,6.618c0.57,0.136,1.097,0.205,1.565,0.205c0.919,0,2.832,0,4.375-4.666
			c0.304-0.918,0.594-1.841,0.883-2.762c1.46-4.64,2.97-9.438,6.14-13.714c3.654-4.93,9.251-8.934,15.759-11.274
			c4.52-1.625,9.439-2.485,14.228-2.485c8.555,0,16.315,2.748,21.851,7.736c4.655,4.195,7.241,9.507,9.741,14.644
			c2.192,4.502,4.262,8.754,7.573,11.979c1.476,1.437,2.312,1.549,2.533,1.549c0.105,0,2.624-0.112,5.41-9.841
			c0.25-0.874,0.5-1.766,0.754-2.671c3.698-13.187,8.764-31.248,27.013-31.248c0.875,0,1.782,0.043,2.696,0.129
			c5.93,0.553,8.903,5.704,8.69,10.27c-0.226,4.856-3.656,8.248-8.34,8.248c-0.308,0-0.627-0.015-0.955-0.045
			c-0.384-0.036-0.752-0.054-1.105-0.054c-3.146,0-5.241,1.196-7.299,7.505c-0.803,2.463-1.496,5.065-2.166,7.582
			c-1.323,4.971-2.69,10.111-5.063,14.957C113.315,4.98,105.534,10.477,97.658,10.477C97.659,10.477,97.659,10.477,97.658,10.477z"
			/>
		<path fill="#FFFFFF" d="M131.022-48.865c0.771,0,1.568,0.038,2.394,0.115c7.415,0.692,7.696,12.031,0.652,12.031
			c-0.21,0-0.428-0.01-0.652-0.031c-0.49-0.046-0.958-0.068-1.407-0.068c-5.96,0-8.495,3.943-10.389,9.747
			c-2.395,7.342-3.638,15.134-7.058,22.117C111.283,1.74,104.9,7.227,97.658,7.227c-1.989,0-4.044-0.415-6.116-1.332
			C80.71,1.101,77.482-10.86,71.818-20.139c-3.663-6.001-9.998-9.002-16.561-9.002c-3.937,0-7.957,1.081-11.53,3.241
			c-10.44,6.312-8.348,20.093-17.284,27.895c-3.259,2.845-7.052,3.976-10.958,3.976c-6.403,0-13.107-3.042-18.244-6.561
			c-7.352-5.037-14.084-13.715-23.156-13.715c-1.409,0-2.875,0.209-4.408,0.674c-0.652,0.198-1.271,0.289-1.854,0.289
			c-6.042,0-8.071-9.817-1.336-11.86c2.686-0.814,5.196-1.18,7.576-1.18c9.818,0.001,17.377,6.221,25.546,12.737
			c3.715,2.963,8.141,6.121,12.835,7.239c0.832,0.198,1.603,0.293,2.318,0.293c3.836,0,6.081-2.726,7.46-6.896
			c1.784-5.395,3.109-10.921,6.548-15.562c3.497-4.718,8.756-8.176,14.248-10.151c4.094-1.472,8.615-2.293,13.128-2.293
			c7.172,0,14.32,2.074,19.675,6.9c8.123,7.32,9.553,19.068,17.222,26.537c1.796,1.749,3.39,2.471,4.801,2.471
			c4.528,0,7.169-7.432,8.534-12.196C110.266-30.871,114.142-48.866,131.022-48.865 M131.022-55.365L131.022-55.365
			c-9.304,0-16.696,4.215-21.969,12.529c-4.049,6.383-6.24,14.197-8.174,21.091c-0.252,0.899-0.5,1.786-0.749,2.654
			c-1.063,3.711-2.019,5.714-2.654,6.758c-2.848-2.822-4.776-6.783-6.815-10.973c-2.514-5.164-5.363-11.017-10.488-15.636
			c-6.133-5.527-14.666-8.571-24.026-8.572c-5.159,0-10.459,0.925-15.329,2.676c-7.104,2.555-13.238,6.957-17.27,12.397
			c-3.495,4.715-5.16,10.006-6.629,14.674c-0.285,0.906-0.57,1.813-0.869,2.717c-0.553,1.671-1.059,2.278-1.213,2.435
			c-0.02,0.001-0.045,0.002-0.076,0.002c-0.148,0-0.41-0.02-0.812-0.116c-3.5-0.833-7.337-3.643-10.289-5.997l-0.566-0.452
			c-8.439-6.736-17.167-13.703-29.032-13.704c-3.086,0-6.27,0.491-9.463,1.459c-6.042,1.833-9.609,7.517-8.673,13.824
			c0.925,6.233,5.928,10.757,11.896,10.757c1.238,0,2.497-0.191,3.741-0.569c0.875-0.266,1.7-0.395,2.521-0.395
			c4.146,0,8.372,3.568,12.846,7.346c2.114,1.785,4.301,3.631,6.636,5.231c4.196,2.875,12.624,7.699,21.917,7.699
			c5.784,0,11.051-1.929,15.232-5.58c5.415-4.727,7.59-10.753,9.509-16.07c2.007-5.56,3.413-9.073,6.863-11.159
			c2.492-1.507,5.316-2.303,8.167-2.303c4.714,0,8.729,2.146,11.013,5.889c1.297,2.125,2.482,4.461,3.737,6.936
			c4.073,8.031,8.689,17.134,18.904,21.655c2.831,1.252,5.773,1.888,8.747,1.888c9.107,0,18.034-6.21,22.741-15.822
			c2.513-5.131,3.923-10.428,5.286-15.55c0.688-2.588,1.339-5.033,2.115-7.41c1.717-5.263,2.817-5.263,4.209-5.263
			c0.249,0,0.519,0.013,0.802,0.04c0.42,0.04,0.844,0.06,1.257,0.06c6.408,0,11.281-4.772,11.587-11.346
			c0.333-7.136-4.67-13.007-11.635-13.657C133.006-55.317,131.998-55.365,131.022-55.365L131.022-55.365z"/>
	</g>
	<g>
		<path d="M22.953,63.554c-1.729,0-3.298-0.794-4.418-2.237c-0.11-0.142-0.208-0.292-0.293-0.45L7.011,40.061L-4.128,60.858
			c-0.049,0.092-0.103,0.182-0.161,0.269c-1.043,1.565-2.623,2.427-4.446,2.427h-0.544c-2.383,0-4.258-1.249-5.016-3.341
			l-13.941-41.929c-0.67-1.764-0.43-3.566,0.667-4.961c1.014-1.292,2.56-2.004,4.352-2.004h8.058c1.009,0,2.016,0.329,2.994,0.977
			c1.327,0.887,1.872,1.962,2.091,2.787l4.25,12.75l7.9-14.822c0.833-1.744,2.561-2.78,4.652-2.78h0.871
			c1.726,0,3.294,0.793,4.415,2.233c0.12,0.154,0.226,0.318,0.316,0.491L20.092,27.8l4.356-12.858
			c0.334-1.007,1.544-3.413,5.411-3.618c0.058-0.003,0.115-0.004,0.172-0.004h7.295c1.71,0,3.231,0.724,4.281,2.038
			c1.158,1.448,1.418,3.249,0.725,4.968l-13.9,41.807c-0.792,2.176-2.667,3.422-5.044,3.422H22.953z"/>
		<path fill="#FFFFFF" d="M7.599,13.48c0.725,0,1.342,0.327,1.851,0.98l11.216,21.452h0.109l6.751-19.927
			c0.29-0.871,1.125-1.342,2.505-1.416h7.295c0.725,0,1.307,0.272,1.743,0.817c0.436,0.544,0.507,1.143,0.218,1.796L25.349,59.106
			c-0.291,0.798-0.944,1.198-1.96,1.198h-0.436c-0.727,0-1.344-0.327-1.852-0.98L7.055,33.299H6.946L-6.993,59.324
			c-0.436,0.653-1.017,0.98-1.742,0.98h-0.544c-1.018,0-1.671-0.4-1.96-1.198l-13.938-41.924c-0.291-0.725-0.236-1.342,0.164-1.851
			c0.398-0.507,0.997-0.762,1.796-0.762h8.058c0.363,0,0.762,0.146,1.198,0.436c0.436,0.291,0.689,0.618,0.762,0.98l6.642,19.927
			h0.109L4.986,14.46c0.289-0.653,0.871-0.98,1.742-0.98H7.599 M7.599,6.98H6.728c-3.358,0-6.158,1.699-7.553,4.562l-4.309,8.084
			l-1.831-5.494c-0.514-1.813-1.7-3.407-3.385-4.533c-1.539-1.021-3.15-1.531-4.81-1.531h-8.058c-2.811,0-5.264,1.153-6.909,3.248
			c-1.777,2.261-2.209,5.253-1.175,8.049l13.894,41.791c0.018,0.055,0.037,0.109,0.057,0.164c1.226,3.382,4.318,5.484,8.071,5.484
			h0.544c2.903,0,5.509-1.413,7.15-3.875c0.116-0.174,0.223-0.353,0.322-0.537l8.285-15.469l8.359,15.488
			c0.17,0.315,0.366,0.616,0.586,0.899c1.749,2.253,4.23,3.494,6.985,3.494h0.436c3.745,0,6.835-2.097,8.066-5.471
			c0.021-0.059,0.042-0.118,0.062-0.177l13.872-41.722c1.077-2.772,0.624-5.776-1.243-8.109c-1.678-2.099-4.1-3.256-6.818-3.256
			h-7.295c-0.115,0-0.23,0.003-0.345,0.009c-4.068,0.216-7.181,2.405-8.328,5.856l-1.907,5.626l-4.241-8.112
			c-0.181-0.346-0.392-0.674-0.632-0.982C12.828,8.219,10.349,6.98,7.599,6.98L7.599,6.98z"/>
	</g>
	<g>
		<path d="M54.75,2.03c-2.949,0-5.608-1.102-7.69-3.186c-2.081-2.079-3.183-4.756-3.183-7.741c0-3.01,1.043-5.606,3.102-7.715
			c2.051-2.102,4.738-3.212,7.771-3.212c3.043,0,5.675,1.062,7.822,3.156c2.138,2.088,3.268,4.775,3.268,7.771
			c0,2.999-1.13,5.686-3.268,7.771C60.429,0.967,57.796,2.03,54.75,2.03z"/>
		<path fill="#FFFFFF" d="M54.75-16.574c2.178,0,4.029,0.746,5.553,2.232c1.524,1.489,2.287,3.304,2.287,5.445
			c0,2.142-0.762,3.958-2.287,5.444C58.779-1.964,56.928-1.22,54.75-1.22c-2.106,0-3.903-0.744-5.391-2.232
			c-1.489-1.487-2.232-3.302-2.232-5.444c0-2.141,0.725-3.956,2.178-5.445C50.756-15.829,52.572-16.574,54.75-16.574 M54.75-23.074
			c-3.928,0-7.419,1.45-10.096,4.192c-2.634,2.698-4.026,6.151-4.026,9.985c0,3.867,1.431,7.339,4.139,10.043
			c2.7,2.702,6.154,4.133,9.984,4.133c3.87,0,7.36-1.412,10.095-4.082c2.776-2.708,4.245-6.2,4.245-10.095
			c0-3.892-1.468-7.383-4.245-10.095C62.105-21.664,58.616-23.074,54.75-23.074L54.75-23.074z"/>
	</g>
	<g>
		<path d="M50.285,62.465c-1.398,0-2.686-0.503-3.723-1.455c-1.097-1.003-1.705-2.377-1.705-3.864V16.747
			c0-1.481,0.624-2.872,1.755-3.915c1.354-1.25,2.745-1.513,3.672-1.513h9.256c1.482,0,2.854,0.605,3.864,1.705
			c0.954,1.044,1.455,2.329,1.455,3.723v40.399c0,1.451-0.536,2.753-1.551,3.768c-1.014,1.015-2.317,1.551-3.768,1.551H50.285z"/>
		<path fill="#FFFFFF" d="M59.541,14.569c0.58,0,1.07,0.218,1.47,0.653c0.398,0.436,0.599,0.944,0.599,1.524v40.399
			c0,0.582-0.201,1.072-0.599,1.47c-0.4,0.4-0.89,0.599-1.47,0.599h-9.256c-0.582,0-1.089-0.199-1.524-0.599
			c-0.436-0.398-0.653-0.888-0.653-1.47V16.747c0-0.58,0.235-1.089,0.708-1.524c0.472-0.436,0.961-0.653,1.47-0.653H59.541
			 M59.541,8.069h-9.256c-1.508,0-3.751,0.413-5.88,2.378c-1.802,1.661-2.798,3.9-2.798,6.3v40.399c0,2.411,0.983,4.637,2.769,6.269
			c1.611,1.479,3.714,2.3,5.909,2.3h9.256c2.298,0,4.453-0.889,6.066-2.502s2.502-3.768,2.502-6.066V16.747
			c0-2.187-0.817-4.286-2.3-5.909C64.167,9.048,61.944,8.069,59.541,8.069L59.541,8.069z"/>
	</g>
	<g>
		<path d="M94.713,96.984c-4.201,0-8.034-0.48-11.392-1.429c-3.553-1.003-6.403-2.449-8.471-4.3
			c-2.018-1.801-3.558-3.793-4.576-5.919c-1.042-2.173-1.571-4.478-1.571-6.847c0-2.944,0.848-6.84,4.351-10.355
			c-0.435-0.337-0.888-0.708-1.365-1.117c-1.365-1.168-2.507-2.729-3.392-4.639c-0.886-1.909-1.336-4.11-1.336-6.539
			c0-2.113,0.403-4.107,1.197-5.928c0.737-1.695,1.62-3.156,2.623-4.34c0.939-1.11,1.925-2.071,2.928-2.855
			c0.158-0.124,0.312-0.243,0.461-0.356c-0.26-0.636-0.585-1.513-0.998-2.754c-0.724-2.172-1.092-4.441-1.092-6.743
			c0-6.157,2.2-11.521,6.538-15.942c4.354-4.439,9.77-6.69,16.095-6.69h20.254c1.394,0,2.679,0.501,3.717,1.449
			c1.105,1.014,1.711,2.425,1.711,3.979v3.593c0,2.424-1.321,4.31-3.533,5.045l-1.879,0.594c0.143,0.247,0.28,0.496,0.412,0.747
			c0.53,1.015,0.977,2.289,1.369,3.899c0.386,1.589,0.582,3.295,0.582,5.07c0,5.446-2.097,10.304-6.233,14.44
			c-4.136,4.136-9.543,6.233-16.073,6.233c-1.825,0-3.818-0.158-5.922-0.471c-1.99-0.293-2.71-0.373-2.961-0.394
			c-0.08,0.034-0.286,0.139-0.615,0.43c-0.297,0.263-0.319,0.415-0.319,0.615c0,0.155,0.021,0.217,0.021,0.218
			c0.174,0.1,0.505,0.289,1.193,0.289h14.265c5.96,0,11.061,1.67,15.158,4.963c4.31,3.467,6.495,8.129,6.495,13.858
			c0,6.424-2.552,11.822-7.585,16.046C109.904,94.915,103.156,96.984,94.713,96.984z M90.379,73.714
			c-0.19,0.076-0.392,0.172-0.603,0.286c-0.296,0.158-0.643,0.397-1.036,0.712c-0.195,0.155-0.362,0.371-0.513,0.658
			c-0.122,0.229-0.173,0.449-0.173,0.724c0,0.727,0.209,1.352,1.232,2.04c1.225,0.825,3.013,1.243,5.318,1.243
			c2.446,0,4.364-0.455,5.701-1.354c1.225-0.824,1.394-1.624,1.394-2.365c0-0.483-0.471-1.043-0.867-1.428
			c-0.209-0.202-1.13-0.875-4.05-0.875C94.333,73.355,92.181,73.476,90.379,73.714z M94.753,28.704c-1.208,0-2.09,0.378-2.863,1.228
			c-0.034,0.038-0.069,0.075-0.105,0.111c-0.851,0.851-1.258,1.937-1.281,3.415c-0.023,1.456,0.375,2.551,1.253,3.451
			c0.87,0.892,1.913,1.307,3.283,1.307c1.354,0,2.316-0.385,3.118-1.248c0.856-0.922,1.255-2.036,1.255-3.505
			c0-1.453-0.407-2.558-1.282-3.477c-0.841-0.882-1.795-1.277-3.09-1.277C95.006,28.708,94.753,28.704,94.753,28.704z"/>
		<path fill="#FFFFFF" d="M114.967,13.48c0.581,0,1.089,0.201,1.524,0.599c0.436,0.4,0.654,0.926,0.654,1.579v3.593
			c0,1.018-0.436,1.671-1.307,1.96l-6.207,1.96c0.145,0.146,0.308,0.31,0.49,0.49c0.181,0.182,0.526,0.618,1.035,1.307
			c0.507,0.69,0.961,1.416,1.361,2.178c0.398,0.762,0.762,1.815,1.089,3.158c0.327,1.344,0.49,2.777,0.49,4.301
			c0,4.574-1.761,8.622-5.281,12.142c-3.522,3.522-8.112,5.281-13.775,5.281c-1.671,0-3.484-0.145-5.445-0.436
			c-1.96-0.289-3.122-0.436-3.484-0.436c-0.871,0-1.78,0.418-2.722,1.252c-0.944,0.835-1.416,1.851-1.416,3.049
			s0.436,2.124,1.307,2.777s1.922,0.98,3.158,0.98h14.265c5.227,0,9.6,1.416,13.122,4.247c3.52,2.831,5.281,6.604,5.281,11.325
			c0,5.445-2.142,9.963-6.425,13.557c-4.284,3.594-10.273,5.391-17.967,5.391c-3.92,0-7.423-0.436-10.508-1.307
			c-3.086-0.871-5.482-2.068-7.187-3.594c-1.707-1.523-2.977-3.158-3.811-4.9c-0.835-1.742-1.252-3.557-1.252-5.443
			c0-4.357,2.214-7.879,6.643-10.564V67.6c-0.582-0.146-1.271-0.473-2.069-0.98c-0.8-0.508-1.707-1.197-2.722-2.068
			c-1.018-0.871-1.87-2.052-2.559-3.539c-0.691-1.489-1.035-3.212-1.035-5.172c0-1.669,0.308-3.212,0.926-4.628
			c0.616-1.416,1.324-2.595,2.124-3.539c0.798-0.943,1.614-1.743,2.45-2.396c0.834-0.653,1.506-1.125,2.015-1.416l0.871-0.436
			c-0.291-0.289-0.599-0.708-0.925-1.252c-0.327-0.545-0.8-1.743-1.416-3.594c-0.617-1.851-0.925-3.757-0.925-5.717
			c0-5.298,1.868-9.855,5.608-13.666c3.738-3.811,8.33-5.717,13.775-5.717H114.967 M95.04,41.466c2.25,0,4.083-0.762,5.499-2.287
			s2.124-3.43,2.124-5.717c0-2.287-0.727-4.192-2.178-5.717c-1.453-1.524-3.267-2.287-5.445-2.287
			c-0.096-0.003-0.192-0.004-0.287-0.004c-2.122,0-3.877,0.764-5.267,2.291c-1.453,1.453-2.196,3.34-2.232,5.663
			c-0.038,2.324,0.689,4.247,2.178,5.771C90.919,40.704,92.789,41.466,95.04,41.466 M94.604,82.627c3.121,0,5.625-0.637,7.514-1.906
			c1.887-1.27,2.831-2.957,2.831-5.062c0-1.307-0.618-2.559-1.851-3.758c-1.235-1.197-3.34-1.795-6.316-1.795
			c-2.76,0-5.155,0.145-7.187,0.436c-0.436,0.145-0.89,0.344-1.361,0.598c-0.473,0.254-0.98,0.6-1.524,1.035
			s-0.999,0.996-1.361,1.688c-0.364,0.689-0.544,1.434-0.544,2.232c0,1.961,0.888,3.539,2.668,4.736
			C89.25,82.029,91.627,82.627,94.604,82.627 M114.967,6.98H94.713c-7.23,0-13.426,2.579-18.415,7.665
			c-4.955,5.049-7.468,11.179-7.468,18.218c0,2.652,0.423,5.267,1.259,7.773c0.082,0.244,0.161,0.478,0.237,0.703
			c-0.693,0.646-1.372,1.361-2.027,2.135c-1.206,1.424-2.257,3.156-3.123,5.146c-0.971,2.225-1.465,4.657-1.465,7.22
			c0,2.905,0.551,5.566,1.639,7.909c0.851,1.836,1.915,3.425,3.17,4.739c-2.416,3.501-3.067,7.121-3.067,10.003
			c0,2.859,0.636,5.637,1.892,8.254c1.202,2.512,3,4.848,5.343,6.938c2.435,2.179,5.717,3.862,9.75,5.001
			c3.645,1.029,7.774,1.551,12.274,1.551c9.228,0,16.678-2.325,22.145-6.911c5.723-4.802,8.748-11.212,8.748-18.536
			c0-6.667-2.665-12.335-7.708-16.39c-2.344-1.884-4.961-3.304-7.831-4.253c1.182-0.82,2.297-1.753,3.344-2.801
			c4.768-4.767,7.185-10.398,7.185-16.738c0-2.033-0.227-3.997-0.673-5.836c-0.177-0.727-0.367-1.4-0.57-2.025
			c2.683-1.468,4.292-4.218,4.292-7.493v-3.593c0-2.475-0.98-4.737-2.76-6.37C119.253,7.797,117.154,6.98,114.967,6.98L114.967,6.98
			z M95.04,34.966c-0.638,0-0.785-0.151-0.955-0.325c-0.155-0.159-0.344-0.353-0.332-1.128c0.013-0.855,0.219-1.062,0.33-1.172
			c0.072-0.072,0.142-0.146,0.211-0.221c0.08-0.088,0.132-0.126,0.145-0.132c0.019-0.008,0.12-0.033,0.314-0.033l0.081,0.001
			c0.069,0.002,0.137,0.003,0.206,0.003c0.481,0,0.567,0.091,0.74,0.271c0.16,0.167,0.383,0.402,0.383,1.232
			c0,0.877-0.242,1.138-0.387,1.294C95.671,34.869,95.582,34.966,95.04,34.966L95.04,34.966z"/>
	</g>
	<g>
		<path d="M128.579,62.465c-1.398,0-2.686-0.503-3.723-1.455c-1.097-1.003-1.705-2.377-1.705-3.864v-73.83
			c0-1.481,0.624-2.872,1.755-3.915c1.354-1.25,2.745-1.513,3.672-1.513h9.365c1.482,0,2.854,0.605,3.864,1.705
			c0.954,1.044,1.455,2.329,1.455,3.723v73.83c0,1.487-0.608,2.861-1.711,3.869c-1.031,0.946-2.281,1.45-3.608,1.45H128.579z"/>
		<path fill="#FFFFFF" d="M137.944-18.861c0.58,0,1.07,0.218,1.47,0.653c0.398,0.436,0.599,0.944,0.599,1.524v73.83
			c0,0.582-0.218,1.072-0.653,1.47c-0.436,0.4-0.909,0.599-1.416,0.599h-9.365c-0.582,0-1.089-0.199-1.524-0.599
			c-0.436-0.398-0.653-0.888-0.653-1.47v-73.83c0-0.58,0.235-1.089,0.708-1.524c0.472-0.436,0.961-0.653,1.47-0.653H137.944
			 M137.944-25.361h-9.365c-1.508,0-3.751,0.413-5.88,2.378c-1.802,1.661-2.798,3.9-2.798,6.3v73.83
			c0,2.411,0.983,4.637,2.769,6.269c1.611,1.479,3.714,2.3,5.909,2.3h9.365c2.125,0,4.188-0.82,5.812-2.311
			c1.774-1.621,2.757-3.847,2.757-6.258v-73.83c0-2.187-0.817-4.286-2.3-5.909C142.569-24.382,140.347-25.361,137.944-25.361
			L137.944-25.361z"/>
	</g>
</g>
</svg>
