<?xml version="1.0" encoding="utf-8"?>
<!-- Generator: Adobe Illustrator 16.0.4, SVG Export Plug-In . SVG Version: 6.00 Build 0)  -->
<!DOCTYPE svg PUBLIC "-//W3C//DTD SVG 1.1//EN" "http://www.w3.org/Graphics/SVG/1.1/DTD/svg11.dtd">
<svg version="1.1" id="Layer_2" xmlns="http://www.w3.org/2000/svg" xmlns:xlink="http://www.w3.org/1999/xlink" x="0px" y="0px"
	 width="470.5px" height="127.5px" viewBox="0 0 470.5 127.5" enable-background="new 0 0 470.5 127.5" xml:space="preserve">
<path d="M224.561,67.3c1.155-4.767,1.143-9.784,0.274-14.614c0.076-10.713-0.794-21.4-0.942-32.118
	c-0.008-0.554-0.189-0.991-0.467-1.321c0.13-3.45,0.027-6.875-0.55-10.245c-0.206-1.203-1.63-1.813-2.707-1.544
	c-0.828,0.207-1.649,0.363-2.471,0.497c-0.581-0.099-1.157-0.24-1.726-0.443c-0.986-0.288-1.762,0.132-2.215,0.82
	c-0.229,0.021-0.458,0.036-0.689,0.061c-1.842,0.196-2.488,2.12-1.853,3.354c-0.046,0.156-0.079,0.324-0.08,0.517
	c0,0.047,0,0.094,0,0.141c-0.046,0.16-0.079,0.332-0.079,0.526c0.004,1.112,0.003,2.224,0.005,3.336
	c-0.093,0.189-0.155,0.409-0.171,0.663c-0.577,9.216-0.304,18.44-0.331,27.667c-0.001,0.375,0.11,0.677,0.29,0.908
	c0.015,0.435,0.027,0.87,0.046,1.304c0.021,2.023,0.033,4.045,0.035,6.068c-0.088,0.215-0.152,0.451-0.169,0.723
	c-0.307,4.775-0.35,9.55-0.36,14.334c-0.001,0.482,0.126,0.869,0.333,1.169c0.012,0.474,0.029,0.947,0.039,1.42
	c-0.008,0.842,0.004,1.683,0.034,2.521c0.021,1.852,0.034,3.703,0.038,5.556c0.001,0.922,0.511,1.489,1.157,1.716
	c0.009,0.025,0.014,0.052,0.022,0.077c0.358,1.023,1.535,1.483,2.43,1.179c0.11,0.133,0.247,0.249,0.398,0.354
	c0.76,0.829,2.393,0.845,2.746-0.345c0.813,0.679,2.252,0.391,2.73-0.609c0.657,0.485,1.592,0.499,2.227,0.044
	c0.062,0.005,0.125,0.008,0.188,0.005c0.773,0.028,1.55-0.452,1.5-1.445c0.011-0.286,0.022-0.573,0.033-0.859
	c0.27-0.267,0.451-0.644,0.458-1.142c0.008-0.693,0.01-1.388,0.015-2.082c0.056-0.176,0.094-0.367,0.091-0.585
	c0.032-2.453,0.029-4.892-0.225-7.335C224.604,67.474,224.581,67.388,224.561,67.3z"/>
<path d="M427.739,36.74c-1.018,0.084-2.03,0.124-3.042,0.139c-0.182-1.008-1.087-1.868-2.492-1.619
	c-6.438,1.144-12.23,3.368-16.262,8.029c-0.289-0.787-0.587-1.569-0.889-2.351c-0.32-0.937-0.655-1.869-1.024-2.796
	c-0.5-1.254-1.962-1.395-2.769-0.781c-0.881-0.309-1.925-0.414-3.191-0.247c-1.218,0.161-1.947,1.031-1.725,2.277
	c0.391,2.19,0.575,4.396,0.792,6.604c-0.378,0.253-0.647,0.671-0.646,1.266c-0.009,2.779-0.021,5.558-0.033,8.336
	c-0.41,2.653-0.504,5.291-0.498,7.996c0.001,0.517,0.207,0.882,0.506,1.11l0.025,5.376c-0.043,0.58-0.092,1.159-0.142,1.739
	c-0.287,0.251-0.488,0.613-0.493,1.108c-0.004,0.408-0.009,0.817-0.014,1.226c-0.002,0.037-0.011,0.069-0.012,0.108
	c-0.015,0.922-0.02,1.843-0.021,2.765c-0.048,0.393-0.09,0.785-0.141,1.178c-0.08,0.614,0.178,1.112,0.564,1.435
	c0.008,0.096,0.017,0.192,0.021,0.289c0.075,1.464,1.794,1.805,2.589,1.017c0.169,0.915,1.553,1.246,2.146,0.557
	c0.076-0.088,0.142-0.167,0.206-0.246c0.104,0.051,0.214,0.093,0.328,0.114c0.011,0.069,0.02,0.139,0.03,0.208
	c0.165,1.12,1.543,1.101,2.145,0.391c0.716,0.458,1.734,0.258,1.993-0.629c0.408-0.002,0.821-0.156,1.112-0.441
	c0.225,0.484,0.742,0.714,1.266,0.691c0.452,0.021,0.903-0.145,1.169-0.501c0.372-0.232,0.637-0.63,0.621-1.182
	c-0.025-0.901-0.089-1.761-0.192-2.62c-0.001-0.017,0.003-0.031,0.002-0.048c0.059-1.719-0.057-3.299-0.28-4.973v-0.027h-0.004
	c-0.019-0.142-0.033-0.279-0.054-0.422c-0.04-0.274-0.143-0.49-0.279-0.665c0.431-0.177,0.759-0.583,0.754-1.244
	c-0.015-2.226-0.109-4.389-0.471-6.555c0.007-0.112,0.017-0.223,0.022-0.335c0.49-0.276,0.84-0.766,0.788-1.447
	c-0.163-1.361-0.401-2.705-0.581-4.06c0.338-0.286,0.576-0.711,0.608-1.273c0.028-0.503,0.082-0.993,0.142-1.481
	c0.588-0.238,1.085-0.744,1.182-1.519c0.093-0.736,0.141-1.465,0.192-2.194c1.587-0.946,3.191-1.864,4.666-2.954
	c1.533,0.901,3.127,1.283,5.11,0.896c0.372-0.073,0.628-0.265,0.796-0.509c0.39,0.041,0.804-0.062,1.033-0.337
	c0.331-0.399,1.083-1.186,1.632-2.153c0.622,0.058,1.291-0.249,1.574-1.022c0.744-2.034,1.603-4.003,2.551-5.949
	C429.514,38.068,428.979,36.637,427.739,36.74z"/>
<path d="M464.4,77.24c0.009-0.279-0.061-0.508-0.175-0.694c-0.181-0.804-0.45-1.58-0.814-2.326
	c-0.088-0.222-0.214-0.397-0.361-0.538c-0.021-0.051-0.039-0.096-0.061-0.147c-0.129-0.308-0.326-0.506-0.555-0.62
	c1.068-0.641,1.202-2.578-0.287-2.814c-1.896-0.302-3.559,0.101-5.097,0.856c-0.188-0.096-0.396-0.168-0.645-0.179
	c-1.531-0.068-2.884,0.107-4.22,0.475c-0.705-0.398-1.398-0.84-2.085-1.234c-0.003-0.373,0.004-0.749,0.017-1.125
	c0.377-0.264,0.64-0.699,0.631-1.321c-0.049-3.447-0.282-6.886-0.328-10.333c-0.005-0.4-0.125-0.725-0.315-0.975
	c-0.002-0.12-0.007-0.239-0.009-0.358c-0.006-0.416-0.135-0.75-0.338-1.004c-0.001-1.036,0-2.072-0.002-3.108
	c0.223-0.3,0.364-0.685,0.377-1.158c2.755-0.347,5.477-0.914,8.139-1.809c0.261-0.087,0.474-0.214,0.657-0.362
	c0.735,1.267,3.129,0.957,3.194-0.892c0.081-2.337,0.287-4.664,0.369-7c0.006-0.172-0.025-0.356-0.087-0.537
	c0.461-1.098-0.188-2.636-1.67-2.632c-1.795,0.004-3.577,0.084-5.357,0.197c-0.205-0.083-0.42-0.139-0.642-0.137
	c-1.111,0.011-2.222,0.019-3.333,0.022c-0.579,0-1.007,0.229-1.289,0.569c-0.142,0.016-0.282,0.037-0.423,0.054
	c0.079-0.157,0.145-0.328,0.162-0.534c0.213-2.444,0.398-4.864,0.327-7.3c0.046-1.229,0.046-2.459,0.029-3.698
	c0.001-0.066-0.025-0.113-0.033-0.174c0.229-0.125,0.467-0.262,0.717-0.413c1.197-0.72,1.001-2.611-0.392-2.973
	c-0.877-0.228-1.71-0.397-2.555-0.526c-0.234-0.134-0.522-0.219-0.877-0.217c-0.333,0.001-0.667,0.003-1,0.004
	c-0.371,0.001-0.671,0.102-0.91,0.261c-0.282,0.041-0.564,0.073-0.848,0.118c-0.339,0.053-0.602,0.223-0.796,0.452
	c-0.411-0.347-0.993-0.523-1.525-0.41c-1.196,0.253-2.256,0.688-3.362,1.189c-0.496,0.225-0.794,0.856-0.788,1.375
	c0.002,0.188,0.007,0.375,0.009,0.562c-0.67,0.121-1.278,0.628-1.253,1.438c0.042,1.349,0.131,2.669,0.298,3.99
	c-0.068,2.175,0.036,4.323,0.456,6.5c-0.273-0.001-0.547-0.002-0.819-0.004c-0.044-0.002-0.084-0.012-0.129-0.012
	c-0.333,0.002-0.666,0.004-1,0.006c-0.353-0.002-0.646,0.084-0.894,0.222c-0.258,0.029-0.516,0.059-0.773,0.088l0.001,0.005
	c-0.155,0.018-0.307,0.034-0.479,0.061c-0.047,0.007-0.085,0.024-0.129,0.034c-0.241,0.004-0.481,0.004-0.723,0.009
	c-1.521,0.035-1.735,1.769-0.804,2.517c-0.241,0.198-0.408,0.498-0.407,0.914c0,0.104,0.001,0.209,0.001,0.313
	c0,0.007-0.002,0.013-0.002,0.02c-0.018,1.556-0.035,3.112-0.052,4.667c-0.009,0.784,0.614,1.204,1.248,1.219
	c0.092,0.771,0.691,1.126,1.312,1.095c0.528,0.383,1.257,0.42,1.685-0.055c0.021,0.14,0.042,0.281,0.062,0.421
	c0.125,0.848,0.913,1.1,1.598,0.911c0.032,0.14,0.053,0.277,0.087,0.418c0.064,0.266,0.204,0.451,0.368,0.602
	c-0.629,4.342-1.136,8.658-0.904,13.06c0.025,0.481,0.237,0.882,0.547,1.181c-0.487,0.27-0.84,0.8-0.703,1.498l0.218,1.987
	c0,0.007,0,0.013,0.002,0.02l0.07,0.645c0.01,0.339,0.116,0.605,0.274,0.812c-0.053,0.156-0.081,0.331-0.077,0.523
	c0.184,9.195,8.052,14.934,16.855,11.998c0.499-0.166,0.782-0.512,0.906-0.898c2.802-0.396,5.54-1.194,8.401-1.154
	c0.71,0.011,1.277-0.607,1.281-1.3c0.004-0.646,0.009-1.293,0.022-1.939c0.001-0.022,0.011-0.038,0.011-0.061
	C464.404,77.463,464.402,77.352,464.4,77.24z"/>
<path d="M94.087,63.569c-0.003-0.678-0.285-1.171-0.693-1.491c0.052-1.094,0.097-2.188,0.133-3.283
	c0.044-0.17,0.075-0.352,0.07-0.558c-0.007-0.333-0.022-0.665-0.034-0.998c0-0.022,0.001-0.045,0.001-0.068
	c0.275-0.316,0.464-0.739,0.494-1.269c0.061-1.067,0.058-2.133,0.041-3.198c0.191-0.295,0.311-0.67,0.308-1.135
	c-0.01-1.91-0.093-3.772-0.339-5.667c-0.011-0.086-0.035-0.162-0.053-0.242c0.066-0.223,0.1-0.471,0.078-0.758
	c-0.271-2.227-0.317-4.425-0.319-6.667c-0.001-1.304-1.303-2.288-2.558-1.938c-0.867,0.242-1.726,0.455-2.586,0.645
	c-1.598,0.131-3.165,0.371-4.752,0.673c-0.079,0.015-0.146,0.043-0.219,0.065c-0.329-0.087-0.651-0.202-0.96-0.383
	c-1.18-0.69-2.916,0.178-2.825,1.631c0.103,1.643,0.192,3.28,0.265,4.917c-0.03,1.062-0.005,2.128,0.036,3.197
	c-0.059,0.168-0.094,0.35-0.085,0.552c0.035,0.857,0.107,1.685,0.2,2.504c0.001,0.054,0.004,0.107,0.005,0.161
	c0.003,0.142,0.027,0.269,0.061,0.389c0.039,0.294,0.081,0.59,0.129,0.883c0.069,0.967,0.128,1.935,0.184,2.904
	c-0.131,0.227-0.216,0.498-0.218,0.825c-0.004,0.607-0.012,1.213-0.021,1.818c-0.59,0.252-1.06,0.776-1.046,1.516
	c0.055,3.104,0.369,6.079,1.021,9.113c0.009,0.278,0.013,0.557,0.024,0.835c-0.344,0.31-0.575,0.769-0.575,1.387
	c0.002,3,0.004,6,0.005,9c-0.005,0.843,0.45,1.384,1.042,1.64c0.04,0.058,0.081,0.113,0.126,0.165
	c0.335,1.049,1.461,1.449,2.358,1.187c0.279,0.574,0.844,0.998,1.713,0.973c2.114-0.062,4.219-0.244,6.333-0.305
	c0.832-0.024,1.772-0.605,1.923-1.487c0.168-0.985,0.298-1.969,0.404-2.953c0.141-0.256,0.234-0.556,0.243-0.913
	c0.017-0.669,0.012-1.335-0.009-1.999c0.074-1.301,0.105-2.606,0.118-3.917c0-0.03,0.008-0.055,0.008-0.085
	c0.002-0.444,0.004-0.889,0.005-1.333c0-0.042-0.009-0.077-0.011-0.118C94.104,67.713,94.095,65.641,94.087,63.569z"/>
<path d="M92.669,14.918c-2.071-2.337-5.36-3.121-8.124-1.596c-0.693,0.383-1.331,0.921-1.912,1.553
	c-3.478,1.207-4.371,5.006-3.103,8.146c0.003,1.84,0.479,3.584,1.579,4.891c1.066,1.268,2.617,1.771,4.268,1.723
	c0.79,0.79,2.026,1.022,2.977-0.095c0.231-0.271,0.454-0.549,0.671-0.83c2.613-1.242,4.746-3.582,4.744-6.136
	C94.554,19.902,94.427,16.901,92.669,14.918z"/>
<path d="M69.222,35.32c-2.604,0.776-5.074,1.35-7.817,1.295c-0.663-0.013-1.464,0.517-1.567,1.212
	c-0.136,0.922-0.297,1.84-0.447,2.76c-0.219,0.825-0.457,1.644-0.689,2.464c-1.32,3.392-2.501,6.83-3.672,10.277
	c-0.778,1.783-1.447,3.602-1.948,5.508c-0.969-1.488-1.97-2.956-3.041-4.383c-0.017-0.023-0.038-0.039-0.055-0.061
	c-0.927-1.517-1.887-3.012-2.863-4.498c-0.4-0.949-0.839-1.847-1.325-2.718c-0.026-0.165-0.065-0.333-0.14-0.503
	c-0.63-1.448-1.302-2.731-2.152-4.038c-0.189-0.333-0.374-0.669-0.563-1.001c-0.635-1.477-1.341-2.913-2.317-4.276
	c-1.112-1.555-3.153-0.747-3.274,0.771c-0.368,0-0.725,0.158-0.922,0.541c-0.014,0.032-0.033,0.061-0.047,0.092
	c-0.247,0.068-0.475,0.244-0.637,0.564c-0.199,0.395-0.399,0.79-0.598,1.185c-0.166,0.097-0.315,0.245-0.43,0.465
	c-0.514,0.987-1.057,1.956-1.596,2.927c-0.244,0.112-0.465,0.305-0.633,0.605c-1.681,3-3.468,5.925-4.929,9.042
	c-0.184,0.393-0.186,0.771-0.073,1.096c-0.125,0.173-0.24,0.349-0.362,0.523c-1.021,1.042-1.88,2.155-2.675,3.328
	c-0.049-0.139-0.096-0.28-0.147-0.418c0.047-0.305,0.011-0.637-0.144-0.977c-0.085-0.187-0.178-0.37-0.264-0.556
	c-0.011-0.111-0.033-0.227-0.073-0.348c-0.992-3.002-1.983-6.004-2.975-9.007c-0.145-0.437-0.411-0.724-0.725-0.885
	c-0.006-0.032-0.007-0.062-0.015-0.094c-0.206-0.795-0.443-1.551-0.705-2.296c0.061-0.21,0.083-0.445,0.041-0.705
	c-0.069-0.928-0.296-1.815-0.679-2.664c-0.094-0.271-0.243-0.475-0.418-0.629c-0.218-0.44-0.458-0.877-0.731-1.344
	c-0.042-0.126-0.096-0.247-0.135-0.373c-0.43-1.316-1.918-1.267-2.542-0.425c-0.417-0.583-1.13-0.958-2.041-0.761
	c-1.105,0.241-2.202,0.509-3.299,0.778c-0.899-0.084-1.893-0.019-3.022,0.266c-1.887,0.476-1.718,3.462-0.012,3.765
	c0.17,0.591,0.362,1.166,0.577,1.722c-0.129,0.523-0.06,1.106,0.338,1.628c0.176,0.25,0.351,0.5,0.527,0.75
	c0.037,0.087,0.071,0.173,0.124,0.26c0.166,0.282,0.323,0.566,0.487,0.848c0.383,0.941,0.777,1.878,1.202,2.805
	c0.167,0.365,0.417,0.61,0.705,0.756c-0.552,0.539-0.833,1.378-0.417,2.271c0.931,2,1.911,3.973,2.854,5.965
	c0.331,0.793,0.686,1.578,1.056,2.356c-0.335,0.389-0.492,0.92-0.296,1.527c0.81,2.504,1.898,4.78,3.18,7.079
	c0.024,0.044,0.054,0.075,0.08,0.115c0.148,0.388,0.304,0.777,0.463,1.167c-0.225,0.321-0.323,0.746-0.188,1.251
	c0.247,0.923,0.533,1.814,0.842,2.697c0.271,0.792,0.534,1.585,0.793,2.38c-0.008,0.177,0.012,0.367,0.081,0.575
	c0.634,1.928,1.292,3.692,2.353,5.428c0.869,1.421,3.04,0.822,3.076-0.836c0.001-0.047,0-0.089,0-0.135
	c0.134-0.106,0.253-0.238,0.348-0.406c1.828-3.266,3.471-6.608,4.998-10.01c0.332-0.565,0.668-1.13,1.011-1.689
	c0.116-0.086,0.225-0.185,0.316-0.306c1.28-1.703,2.347-3.445,3.335-5.332c0.208-0.397,0.238-0.774,0.157-1.106
	c0.061-0.069,0.119-0.145,0.171-0.23c0.466-0.764,0.918-1.533,1.361-2.306c0.246-0.059,0.492-0.169,0.718-0.393
	c1.138-1.121,1.909-2.312,2.479-3.684c0.189,0.278,0.377,0.558,0.567,0.835c-0.122,0.36-0.087,0.783,0.195,1.225
	c0.408,0.638,0.79,1.29,1.174,1.94c2.542,4.382,4.568,9.035,7.106,13.424c0.054,0.094,0.113,0.174,0.174,0.251
	c0.098,0.176,0.19,0.355,0.289,0.531c0.535,1.606,1.254,3.087,2.053,4.639c0.346,0.672,0.878,0.943,1.415,0.937
	c0.003,0.004,0.005,0.009,0.008,0.013c0.249,0.414,0.566,0.654,0.902,0.771c0.435,1.524,2.818,1.284,3.215-0.184
	c0.02-0.074,0.041-0.147,0.061-0.222c0.442-0.175,0.812-0.535,0.957-1.107c0.046-0.18,0.091-0.36,0.137-0.541
	c0.085-0.134,0.162-0.28,0.218-0.453c0.496-1.535,1.021-3.04,1.484-4.557c1-2.146,1.803-4.336,2.432-6.59
	c0.388-1.052,0.76-2.111,1.122-3.177c0.126-0.373,0.107-0.719-0.005-1.025c0.342-0.778,0.657-1.564,0.975-2.348
	c0.6-0.023,1.197-0.362,1.396-1.041c0.717-2.444,1.403-4.873,1.897-7.357c0.613-1.772,1.204-3.552,1.793-5.333
	c0.225-0.214,0.417-0.482,0.547-0.824c1.194-3.13,2.325-6.166,2.348-9.547C71.76,35.961,70.453,34.953,69.222,35.32z"/>
<path d="M466.521,94.546c0.062-0.48-0.144-0.994-0.516-1.264c-0.044-0.115-0.1-0.226-0.172-0.328
	c-0.179-0.961-0.82-1.671-1.929-2.052c-0.128-0.649-0.542-1.26-1.309-1.566c-1.216-0.397-2.323-0.991-3.335-1.759
	c-0.31-0.476-0.818-0.845-1.524-0.929c-1.173-0.139-2.102-0.098-3.025,0.123c-1.097-0.039-2.178-0.141-3.271-0.244
	c-0.197-0.093-0.429-0.152-0.701-0.157c-2.563-0.258-5.099-0.072-7.667,0.037c-0.363,0.016-0.648,0.148-0.88,0.331
	c-0.483,0.044-0.966,0.09-1.452,0.121c-0.477,0.03-0.821,0.25-1.043,0.551c-0.254,0.042-0.508,0.076-0.763,0.129
	c-0.065,0.003-0.13,0.008-0.194,0.011c-0.312,0.001-0.563,0.087-0.764,0.224c-0.197,0.05-0.392,0.087-0.591,0.145
	c-0.383,0.11-0.643,0.323-0.802,0.579c-1.053,0.24-2.106,0.527-3.186,0.802c-0.75,0.19-1.023,0.758-0.954,1.312
	c-1.205,0.42-2.388,0.903-3.561,1.443c-0.93,0.374-1.844,0.827-2.789,1.394c-0.481,0.288-0.671,0.69-0.661,1.084
	c-1.458,0.954-2.898,1.932-4.359,2.881c-0.197,0.128-0.339,0.282-0.44,0.449c-1.64,1.062-3.244,2.168-4.881,3.238
	c-0.145,0.095-0.251,0.207-0.341,0.325c-0.085,0.031-0.171,0.071-0.256,0.129l-1.992,1.348c-0.297,0.201-0.447,0.501-0.497,0.813
	c-0.064,0.05-0.124,0.104-0.189,0.153c-0.181,0.136-0.298,0.307-0.387,0.486c-2.185,1.306-4.371,2.607-6.525,3.963
	c-0.149,0.021-0.303,0.064-0.46,0.149c-1.664,0.897-3.354,1.736-5.019,2.635c-0.581,0.313-0.721,0.945-0.574,1.498
	c-0.502,0.159-1.004,0.318-1.51,0.471c-0.131,0.039-0.246,0.091-0.353,0.15c-0.626,0.164-1.251,0.332-1.877,0.497
	c-4.293,0.231-8.579,0.145-12.867-0.011c-5.549-3.632-11.973-5.777-17.129-10.049c-5.426-4.494-10.275-10.325-17.472-11.812
	c-1.874-1.45-3.803-2.803-5.721-4.253c-0.854-0.646-1.771-0.468-2.444,0.085c-2.678-1.046-5.47-1.769-8.405-2.064
	c-0.582-0.059-1.082,0.216-1.433,0.637c-3.1-0.289-6.263,0.03-9.564,0.327c-1.082,0.098-1.617,0.998-1.595,1.841
	c-0.763,0.338-1.525,0.676-2.288,1.013c-0.519,0.091-0.826,0.244-1.274,0.642c-0.024,0.021-0.033,0.05-0.055,0.073
	c-1.127,0.69-2.27,1.338-3.438,1.941c-0.093,0.023-0.188,0.057-0.282,0.104c-0.666,0.335-1.331,0.67-1.996,1.006
	c-0.039,0.02-0.068,0.044-0.104,0.065c-0.412,0.195-0.824,0.389-1.242,0.583c-0.294,0.136-0.459,0.361-0.541,0.615
	c-0.422,0.269-0.847,0.534-1.262,0.812c-0.347,0.242-0.539,0.559-0.624,0.891c-0.494,0.354-1,0.689-1.513,1.018
	c-0.166,0.101-0.327,0.207-0.489,0.312c-0.912,0.571-1.837,1.127-2.742,1.722c-0.097,0.063-0.181,0.134-0.257,0.21
	c0.135-0.19,0.242-0.404,0.277-0.667c0.312-2.337,0.211-4.396-0.342-6.691c-0.014-0.057-0.036-0.104-0.054-0.156
	c0.146-0.279,0.238-0.61,0.239-1.008c0.005-3.087-0.041-6.161-0.22-9.237c1.826,0.713,3.858,1.056,5.922,1.042
	c0.328,0.52,0.868,0.883,1.571,0.816c2.611-0.245,5.102-0.743,7.512-1.484c2.819-0.578,5.365-1.756,7.658-3.338
	c0.045-0.025,0.092-0.048,0.137-0.074c0.17-0.098,0.308-0.211,0.431-0.329c0.657-0.481,1.293-0.994,1.907-1.535
	c0.35-0.046,0.685-0.212,0.955-0.552c0.1-0.126,0.188-0.25,0.286-0.374l0.004,0.002c0.049-0.072,0.104-0.139,0.154-0.21
	c0.198-0.257,0.401-0.515,0.588-0.772c1.192-1.248,2.298-2.591,3.318-3.982c0.258-0.352,0.337-0.723,0.299-1.079
	c1.659-2.581,2.473-5.812,2.909-8.887c0.149-0.28,0.244-0.611,0.243-1.007c0-0.333-0.001-0.667-0.002-1
	c-0.001-0.23-0.037-0.432-0.089-0.622c-0.135-1.869-0.376-3.719-0.641-5.582c-0.127-0.895-0.847-1.377-1.646-1.479
	c-0.186-0.565-0.388-1.122-0.608-1.668c0.002-0.276-0.055-0.568-0.203-0.869c-0.391-0.749-0.744-1.515-1.059-2.299
	c-0.165-0.38-0.436-0.619-0.75-0.75c-0.559-0.874-1.176-1.731-1.885-2.57c-0.633-0.748-1.541-0.641-2.168-0.145
	c-1.291-2.142-3.01-3.706-5.28-4.491c-2.327-1.322-4.964-1.994-7.694-1.803c-1.383-0.224-2.758-0.25-4.064-0.052h-0.005
	c0,0,0,0,0,0.001c-0.144,0.021-0.29,0.031-0.432,0.059c-0.549,0.106-0.891,0.413-1.066,0.797c-0.856,0.03-1.717,0.123-2.575,0.295
	c-0.399,0.08-0.688,0.29-0.876,0.564c-0.182,0.022-0.368,0.069-0.56,0.151c-0.777,0.333-1.556,0.667-2.334,0.999
	c-0.343,0.146-0.568,0.372-0.706,0.634c-0.985,0.487-1.938,1.029-2.864,1.609c0.034-0.136,0.055-0.281,0.044-0.441
	c-0.016-0.228-0.039-0.429-0.069-0.617c0.145-0.487,0.058-1.04-0.405-1.503c-0.112-0.11-0.223-0.223-0.331-0.336
	c-0.332-0.342-0.692-0.495-1.039-0.511c-0.047-0.024-0.093-0.047-0.14-0.071c-0.041-0.815-0.531-1.622-1.446-1.897
	c-5.167-1.552-6.891,0.929-7.266,4.521c-0.2,0.299-0.305,0.668-0.256,1.106c0.063,0.562,0.126,1.125,0.189,1.687
	c0.027,0.654,0.075,1.318,0.14,1.98c0.021,0.223,0.079,0.42,0.15,0.604c0.178,1.576,0.354,3.152,0.531,4.728
	c0.058,0.509,0.271,0.911,0.564,1.214c0.024,0.709,0.057,1.418,0.102,2.126c-0.041,0.689-0.067,1.38-0.086,2.071
	c-0.645,0.291-1.125,0.919-1.109,1.924c0.062,4.114,0.583,8.163,1.312,12.182c-0.167,4.382-0.396,8.762-0.416,13.149
	c-0.003,0.634,0.273,1.116,0.675,1.438c-0.238,0.309-0.387,0.716-0.382,1.229c0.025,2.47,0.144,4.912,0.356,7.348
	c-0.37,0.251-0.637,0.684-0.654,1.316c-0.122,4.448-0.16,8.885-0.143,13.334c-0.002,0.496,0.17,0.877,0.431,1.155
	c-1.499,1.012-3.074,1.88-4.66,2.77c-0.019,0.01-0.031,0.023-0.049,0.034c-3.1,1.152-6.214,2.124-9.486,2.745
	c-0.104,0.02-0.196,0.053-0.288,0.084c-0.149,0.014-0.298,0.021-0.447,0.032c-5.31-2.213-10.857-3.688-16.434-5.063
	c-0.042-0.304-0.192-0.611-0.494-0.894c-1.089-1.019-2.192-1.929-3.403-2.792c-0.034-0.024-0.068-0.038-0.104-0.059
	c-0.058-0.048-0.112-0.09-0.171-0.139c-0.325-0.27-0.714-0.382-1.098-0.375c-0.354-0.342-0.723-0.673-1.102-1.001
	c-2.946-4.263-7.768-7.216-12.541-9.476c-0.989-0.671-2.039-1.273-3.197-1.825c-0.366-0.174-0.734-0.209-1.075-0.152
	c-0.028-0.025-0.046-0.056-0.077-0.08c-0.493-0.402-0.975-0.741-1.46-1.049c-1.694-1.382-3.56-2.308-5.573-2.931
	c-0.534-0.22-1.083-0.413-1.648-0.577c-4.205-3.367-10.839-3.742-15.882-2.126c-0.161-0.021-0.33-0.015-0.506,0.034
	c-0.338,0.095-0.676,0.188-1.014,0.282c-0.407,0.113-0.686,0.344-0.85,0.626c-0.054,0.021-0.107,0.046-0.162,0.065
	c-0.539,0.021-1.078,0.043-1.617,0.06c-0.53-0.016-0.89,0.232-1.083,0.581c-0.334,0.094-0.666,0.193-0.995,0.3
	c-0.078,0.019-0.15,0.043-0.221,0.07c-0.175,0.058-0.35,0.115-0.523,0.177c-0.212,0.042-0.424,0.083-0.637,0.132
	c-0.164,0.037-0.305,0.1-0.436,0.172c-0.258,0.042-0.517,0.083-0.775,0.125c-0.224,0.016-0.419,0.073-0.599,0.149
	c-0.039-0.428-0.203-0.857-0.536-1.239c-0.624-0.716-1.248-1.433-1.872-2.148c0.293-1.02-0.072-2.145-1.436-2.382
	c-2.402-0.418-4.779-0.694-7.158-0.614c-6.13-1.546-13.293-0.762-19.299-1.066c-0.088-0.077-0.179-0.154-0.284-0.224
	c-1.23-0.812-2.513-1.534-3.81-2.23c0.025-0.103,0.045-0.206,0.059-0.309c0.207-0.889,0.38-1.771,0.492-2.671
	c0.07-0.273,0.14-0.547,0.21-0.82c0.021-0.013,0.039-0.028,0.06-0.04c0.363-0.204,0.618-0.481,0.795-0.793
	c0.401-0.266,0.796-0.547,1.183-0.845c0.537,0.146,1.073,0.297,1.613,0.429c0.203,0.168,0.456,0.294,0.778,0.346
	c0.667,0.107,1.335,0.215,2.003,0.322c0.122,0.02,0.237,0.023,0.351,0.022c0.338,0.234,0.745,0.382,1.14,0.411
	c0.05,0.004,0.101,0.011,0.151,0.015c0.295,0.219,0.687,0.354,1.183,0.352c0.778-0.004,1.555-0.008,2.333-0.013
	c0.701-0.004,1.19-0.303,1.487-0.727c0.335-0.09,0.672-0.181,1.019-0.281c0.545-0.157,0.919-0.459,1.146-0.826
	c0.288,0.573,0.85,0.976,1.683,0.903c0.055-0.005,0.103-0.017,0.157-0.022c0.131-0.002,0.269-0.021,0.413-0.058
	c2.079-0.256,3.795-0.869,5.685-1.94c0.694-0.394,0.938-1.104,0.866-1.787c0.758-0.418,1.422-0.885,2.022-1.409
	c0.511-0.038,1.028-0.285,1.427-0.826c0.988-1.339,1.733-2.67,2.292-4.104c0.359-0.186,0.646-0.524,0.753-1.056
	c0.078-0.387,0.148-0.77,0.214-1.151c0.223-0.198,0.387-0.478,0.444-0.851c0.023-0.152,0.031-0.297,0.052-0.447
	c0.002,0,0.004,0,0.006,0.001c-0.001-0.024,0.003-0.049,0.002-0.073c0.099-0.725,0.178-1.445,0.226-2.16
	c0.026-0.105,0.034-0.212,0.063-0.316c0.08-0.329,0.062-0.623-0.015-0.886c0.009-0.3,0.035-0.591,0.036-0.898
	c0-0.089-0.009-0.175-0.024-0.259c0.504-0.406,0.787-1.068,0.548-1.901c-0.72-2.519-1.513-4.863-2.832-7.133
	c-0.418-0.72-1.056-0.996-1.679-0.96c-0.044-0.051-0.091-0.098-0.14-0.141c1.056,0.009,2.074-0.036,3.149-0.178
	c1.225-0.163,2.036-1.314,2.038-2.365c0.707,0.14,1.468-0.076,1.816-0.816c0.778-1.654,1.009-3.087,1.041-4.915
	c0.023-1.341-1.24-2.009-2.414-1.828c-0.626,0.097-1.251,0.176-1.876,0.247c-2.853-0.828-5.721-0.827-8.641-0.594
	c-3.316-0.058-6.63,0.141-9.927,0.562c-0.126-0.021-0.257-0.037-0.399-0.036c-0.939,0.005-1.807,0.089-2.626,0.231
	c-0.745,0.098-1.484,0.215-2.225,0.375c-0.621-0.47-1.439-0.624-2.181-0.09c-1.027,0.739-1.988,1.513-2.908,2.318
	c-0.464-0.037-0.941,0.107-1.333,0.527c-0.649,0.697-1.236,1.42-1.78,2.163c-0.926,0.599-1.701,1.656-2.352,2.864
	c-0.789-0.024-1.566,0.398-1.833,1.426c-0.356,1.376-0.763,2.688-1.265,4.019c-0.204,0.54-0.133,1.017,0.095,1.399
	c-0.087,0.408-0.184,0.812-0.264,1.222c-0.068,0.347-0.032,0.7,0.077,1.032c-0.038,0.209-0.073,0.42-0.106,0.631
	c-0.077,0.209-0.108,0.441-0.103,0.689c-0.069,0.506-0.13,1.017-0.182,1.535c-0.029,0.294,0.009,0.555,0.096,0.784
	c-0.225,0.377-0.33,0.838-0.211,1.356c0.084,0.366,0.175,0.713,0.266,1.062c-0.426,0.527-0.578,1.274-0.153,2.08
	c0.428,0.812,0.868,1.616,1.307,2.421c0.039,0.16,0.092,0.322,0.181,0.49c0.345,0.636,0.658,1.286,0.939,1.948
	c-0.111,0.073-0.22,0.159-0.326,0.265c-0.208,0.207-0.417,0.414-0.626,0.621c-0.222,0.208-0.438,0.422-0.647,0.642l-0.29,0.287
	c-0.078,0.004-0.156,0.015-0.233,0.026c-0.576-0.026-1.142,0.204-1.436,0.81c-0.103,0.213-0.188,0.415-0.283,0.621
	c-0.19,0.315-0.384,0.625-0.58,0.924c-1.009,1.005-1.958,2.075-2.8,3.262c-0.728,1.024-0.349,1.991,0.423,2.541
	c-0.06,0.31-0.015,0.594,0.103,0.844c-0.458,0.265-0.774,0.722-0.698,1.348c0.047,0.386,0.103,0.767,0.152,1.148
	c-0.209,0.346-0.294,0.784-0.167,1.291c0.375,1.496,0.78,2.896,1.363,4.325c0.205,0.502,0.562,0.824,0.967,0.995
	c0.083,0.179,0.188,0.356,0.337,0.529c1.471,1.713,3.044,3.138,4.816,4.475c-0.019,0.023-0.041,0.046-0.06,0.07
	c-0.231,0.074-0.431,0.228-0.599,0.434c-0.2,0.13-0.384,0.318-0.532,0.592l-0.001,0.003c-0.038,0.022-0.076,0.04-0.112,0.067
	c-0.941,0.707-1.85,1.405-2.772,2.137c-0.624,0.495-0.652,1.294-0.348,1.952c-0.551,0.668-1.085,1.354-1.583,2.086
	c-0.528,0.776-0.255,1.595,0.319,2.106c-0.13,0.231-0.206,0.497-0.198,0.79c0.017,0.603,0.049,1.181,0.1,1.755
	c-0.032,0.207-0.02,0.428,0.057,0.659c0.015,0.079,0.031,0.157,0.046,0.236c0.065,0.476,0.144,0.952,0.257,1.439
	c0.139,0.595,0.552,0.948,1.038,1.095c0.323,0.643,0.632,1.293,0.922,1.957c-0.074,0.436,0.044,0.908,0.471,1.326
	c0.724,0.673,1.36,1.578,1.975,2.358c0.027,0.035,0.06,0.059,0.089,0.089c-0.275,0.081-0.55,0.156-0.825,0.258
	c-0.475,0.175-0.83,0.461-1.093,0.794c-3.953,0.412-9.712,0.203-12.713-1.925c0.601-0.63,1.145-1.391,1.633-2.27
	c0.227-0.408,0.282-0.864,0.22-1.308c1.048-0.814,1.9-1.798,2.762-3.037c0.438-0.629,0.48-1.232,0.289-1.743
	c0.121-0.199,0.242-0.394,0.362-0.599c0.205-0.349,0.301-0.683,0.327-0.998c0.347-0.34,0.577-0.819,0.576-1.449
	c0.001-0.777,0.003-1.556,0.005-2.334c0-0.05-0.009-0.093-0.011-0.141c0-0.063,0-0.128,0-0.192c0.001-0.738-0.315-1.267-0.77-1.599
	c-0.003-0.01-0.009-0.016-0.012-0.025c0.523-0.596,0.728-1.48,0.251-2.46c-0.92-1.893-1.835-3.73-3.005-5.294
	c-0.398-0.687-0.844-1.36-1.349-2.027c-0.559-0.738-1.278-1.029-1.953-1.004c-0.214-0.124-0.438-0.239-0.667-0.349
	c-0.14-0.13-0.292-0.246-0.427-0.38c-0.588-0.534-1.251-0.661-1.85-0.535c-0.137-0.135-0.286-0.257-0.457-0.349
	c-1.124-0.604-2.192-0.881-3.263-0.956c-0.375-0.58-1.031-1-1.95-1.048c-1.946-0.102-3.716,0.114-5.45,0.581
	c-1.091-0.09-2.192-0.04-3.288,0.144c-0.389-0.385-0.922-0.658-1.596-0.714c-1.621-0.135-3.111-0.05-4.622,0.232
	c-0.769-0.018-1.522,0-2.267,0.051c-1.282-0.656-2.474-1.507-3.698-2.631c-0.46-0.423-0.982-0.619-1.498-0.655
	c0.189-0.666,0.473-1.33,0.792-1.985c0.384-0.052,0.751-0.227,1.04-0.57c0.613-0.731,1.104-1.43,1.51-2.162
	c0.411,0.269,0.899,0.391,1.411,0.281c0.119,0.031,0.24,0.056,0.365,0.068c3.37,0.353,6.564,0.468,9.911-0.098
	c0.427-0.072,0.766-0.259,1.021-0.516c1.376-0.086,2.7-0.463,4.124-1.14c0.687-0.221,1.377-0.465,2.082-0.733
	c0.471-0.18,0.795-0.475,1.003-0.817c0.659-0.32,1.258-0.71,1.809-1.173c0.373-0.043,0.732-0.182,1.02-0.456
	c1.932-1.845,3.326-3.928,4.321-6.175c0.107-0.179,0.217-0.352,0.322-0.535c0.146-0.255,0.217-0.514,0.238-0.768
	c0.012-0.012,0.024-0.024,0.035-0.037c0.482-0.258,0.842-0.753,0.856-1.498c0.018-0.189,0.036-0.379,0.054-0.569
	c0.102-0.424,0.188-0.844,0.27-1.262c0.253-0.29,0.418-0.675,0.417-1.17c0.003-1.889,0.007-3.778,0.011-5.667
	c0.002-1.098-0.773-1.675-1.613-1.753c-0.499-1.091-1.217-2.104-2.152-3.004c-0.033-0.06-0.056-0.12-0.097-0.181
	c-0.338-0.48-0.659-0.972-0.969-1.471c0.482-0.187,0.965-0.375,1.448-0.562c0.129-0.05,0.245-0.119,0.354-0.194
	c1.726-0.412,3.49-0.968,5.375-1.246c1.598-0.235,1.751-1.988,0.978-3.059c0.179-0.229,0.292-0.514,0.273-0.861
	c-0.016-0.222-0.024-0.444-0.025-0.667c0.001-0.106-0.008-0.205-0.025-0.298c0-0.012,0-0.023,0-0.035
	c-0.012-0.756-0.494-1.194-1.063-1.301c-0.15-0.754-0.737-1.428-1.673-1.426c-0.555,0.001-1.111,0.002-1.667,0.002
	c-0.508,0.001-0.909,0.227-1.202,0.547c-2.755-0.8-5.286-0.868-7.858-0.086c-0.333-0.004-0.665-0.007-0.994-0.008
	c-2.507-0.572-5.68-0.397-8.281-0.346c-0.089,0.002-0.168,0.018-0.251,0.028c-0.004,0-0.008,0.001-0.013,0.001
	c-0.073,0.01-0.149,0.016-0.218,0.031c-0.484,0.076-0.887,0.317-1.188,0.644c-1.874-0.084-3.381,0.172-5.232,0.792
	c-0.468,0.157-0.815,0.413-1.066,0.72c-0.493-0.199-1.045-0.211-1.579,0.055c-0.613-0.155-1.307-0.031-1.917,0.528
	c-1.172,1.074-2.3,2.12-3.361,3.306c-0.443,0.495-0.623,1.016-0.621,1.504c-0.245,0.4-0.477,0.806-0.703,1.214
	c-0.617,0.08-1.152,0.487-1.283,1.328c-0.058,0.373-0.112,0.747-0.168,1.12l-0.028,0.145c-0.855-0.071-1.847,0.46-1.986,1.557
	c-0.309,2.666-0.404,5.319-0.446,8.001c-0.015,0.945,0.539,1.472,1.208,1.618c0.041,0.59,0.111,1.183,0.2,1.776
	c-0.003,0.15,0.005,0.305,0.033,0.465c0.308,1.778,0.645,3.523,1.1,5.259c-0.607,0.477-1.213,0.955-1.83,1.417
	c-0.587,0.44-0.849,1.038-0.883,1.634c-0.346,0.393-0.691,0.787-1.04,1.185c-0.309,0.352-0.448,0.735-0.481,1.112
	c-0.91,0.203-1.716,0.894-1.839,1.965c-0.396,0.662-0.75,1.346-1.015,2.076c-0.127,0.288-0.186,0.572-0.203,0.847
	c-0.049,0.113-0.101,0.225-0.149,0.337c-0.102,0.232-0.15,0.475-0.157,0.716c-0.21,0.447-0.292,0.97-0.161,1.542
	c0.332,1.445,0.653,2.891,1.02,4.328c0.191,0.752,0.711,1.219,1.328,1.459c0.125,0.912,0.296,1.822,0.451,2.73
	c-0.357-0.218-0.706-0.291-1.025-0.255c-0.242-0.151-0.477-0.214-0.704-0.234c-0.251-0.303-0.626-0.516-1.123-0.541
	c-1.313-0.103-2.683-0.307-4.001-0.453c-0.438-0.049-0.791,0.091-1.057,0.331c-0.966-0.171-1.942-0.304-2.94-0.368
	c-0.092-0.006-0.179-0.002-0.262,0.011c-1-0.378-2.183-0.56-3.406-0.584c-0.695-0.014-1.283,0.525-1.516,1.164l-0.158-0.003
	c-0.189-0.073-0.406-0.106-0.659-0.071c-0.092,0.024-0.184,0.037-0.275,0.056c-0.575-0.01-1.149-0.022-1.724-0.029
	c-1.012-0.013-1.561,1.007-1.446,1.853c-1.101,0.27-2.211,0.583-3.339,0.956c-0.532,0.176-0.882,0.534-1.071,0.954
	c-0.224,0.12-0.449,0.233-0.674,0.35c-0.474-0.176-1.032-0.128-1.52,0.314c-0.472,0.416-0.931,0.846-1.376,1.29
	c-0.256,0.247-0.399,0.52-0.455,0.792c-0.015,0.026-0.04,0.051-0.053,0.077c-0.25,0.157-0.5,0.315-0.752,0.47
	c-0.044,0.021-0.086,0.043-0.13,0.062c-0.589,0.252-1.177,0.507-1.76,0.787c-0.408,0.196-0.67,0.467-0.816,0.771
	c-1.492,0.88-2.985,1.757-4.444,2.69c-0.355,0.228-0.562,0.56-0.668,0.92c-0.099,0.034-0.199,0.079-0.299,0.136
	c-0.514,0.264-1.012,0.555-1.499,0.862c-0.41,0.232-0.803,0.495-1.173,0.797c-0.424,0.29-0.646,0.68-0.716,1.085
	c-2.459,1.747-5.125,3.501-7.603,5.516c-0.369,0.3-0.523,0.672-0.524,1.044c-1.283,0.696-2.582,1.363-3.882,2.029
	c-1.195,0.565-2.395,1.121-3.584,1.699c-0.416,0.202-0.637,0.534-0.73,0.9c-3.478,0.994-7.05,1.494-10.818,1.585
	c-0.2,0.005-0.375,0.047-0.535,0.105c-1.075-0.196-2.152-0.376-3.232-0.536c-1.222-0.309-2.427-0.671-3.626-1.06
	c-5.078-2.706-9.658-6.316-14.984-8.541c-1.435-1.271-2.809-2.63-4.253-3.754c-0.015-0.012-0.031-0.019-0.047-0.029
	c-0.281-0.386-0.726-0.657-1.324-0.667c-0.006,0-0.011,0.001-0.017,0.001c-0.202-0.304-0.531-0.523-0.904-0.619
	c-0.269-0.094-0.569-0.102-0.876,0.018c-0.211,0.066-0.413,0.178-0.594,0.346c-0.165,0.117-0.314,0.241-0.465,0.393
	c-0.231,0.03-0.459,0.144-0.655,0.37c-0.147,0.168-0.294,0.335-0.441,0.502c-0.685,0.119-1.309,0.717-1.411,1.409
	c-0.817,0.878-0.544,2.549,0.622,2.997c0.014,0.03,0.022,0.061,0.037,0.091c0.228,0.486,0.601,0.732,1.008,0.796
	c0.033,0.226,0.081,0.457,0.138,0.692c-0.039,0.646,0.304,1.315,1.152,1.615c1.357,0.48,2.617,1.096,3.822,1.786
	c1.798,1.561,3.769,2.843,5.851,3.945c3.09,2.214,6.241,4.322,10.236,5.216c2.607,1.441,4.982,3.278,8.19,3.348
	c0.658,0.015,1.121-0.402,1.344-0.929c1.05,0.183,2.111,0.267,3.229,0.261c1.233,0.216,2.482,0.342,3.76,0.324
	c0.609-0.008,1.054-0.375,1.291-0.849c0.66-0.037,1.328-0.1,2.006-0.193c0.012,0.001,0.023,0.002,0.036,0.002
	c0-0.002,0-0.004-0.001-0.006c0.128-0.018,0.252-0.027,0.381-0.047c0.346-0.053,0.597-0.207,0.771-0.416
	c5.28-1.043,9.769-4.039,14.007-7.23c0.312-0.234,0.516-0.52,0.63-0.821c1.711-1.257,3.396-2.541,5.054-3.876
	c0.42-0.271,0.837-0.551,1.246-0.839c0.112-0.076,0.221-0.156,0.331-0.234c0.896-0.602,1.782-1.213,2.649-1.848
	c0.031-0.016,0.063-0.024,0.094-0.042c2.023-1.167,3.802-2.524,5.63-3.973c0.424-0.336,0.56-0.775,0.508-1.206
	c1.574-0.567,3.159-1.108,4.697-1.773c0.379-0.164,0.57-0.444,0.643-0.756c0.327-0.256,0.659-0.507,0.979-0.772
	c0.162-0.131,0.27-0.281,0.339-0.441c0.232-0.127,0.463-0.254,0.695-0.381c0.389-0.213,0.577-0.521,0.636-0.848
	c0.374-0.143,0.747-0.285,1.123-0.427c0.28-0.105,0.498-0.253,0.671-0.423c0.299,0.092,0.65,0.084,1.044-0.069
	c0.785-0.307,1.564-0.563,2.353-0.796c0.349,0.192,0.793,0.261,1.313,0.132c1.045-0.23,2.061-0.288,3.049-0.192
	c1.304,0.533,2.581,0.943,3.995,1.283c0.274,0.065,0.525,0.074,0.755,0.046c0.372,0.357,0.863,0.586,1.412,0.568
	c1.925-0.061,4.003,0.452,6.091,1.293c0.088,0.077,0.184,0.145,0.271,0.224c0.445,0.407,0.933,0.551,1.385,0.514
	c3.942,1.89,7.781,4.727,10.539,6.892c0.19,0.149,0.387,0.26,0.586,0.347c0.138,0.354,0.392,0.697,0.791,0.992
	c0.802,0.593,1.584,1.152,2.381,1.687c0.801,0.699,1.557,1.458,2.363,2.189c0.643,0.583,1.376,0.704,2.029,0.54
	c0.802,0.535,1.592,1.089,2.363,1.673c0.145,0.394,0.399,0.758,0.793,1.032c0.589,0.463,1.229,0.844,1.918,1.14
	c0.428,0.221,0.875,0.277,1.301,0.218c0.107,0.162,0.25,0.307,0.442,0.417c0.243,0.13,0.471,0.284,0.708,0.423
	c0.05,0.033,0.1,0.066,0.151,0.099c1.12,0.8,2.161,1.454,3.363,1.864c1.325,0.935,2.628,1.908,4.106,2.622
	c2.146,1.036,4.73,1.199,7.158,1.521c0.237,0.213,0.547,0.353,0.924,0.353h0.329c0.076,0.369,0.294,0.718,0.668,0.967
	c0.083,0.056,0.167,0.111,0.25,0.167c0.396,0.264,1.078,0.288,1.474,0.005c0.194-0.139,0.35-0.269,0.479-0.4
	c1.508-0.252,4.424,0.052,5.466-0.066c0.427-0.048,0.801-0.299,1.071-0.625c4.264-0.849,7.88-2.939,11.414-5.276
	c0.236,0.1,0.519,0.122,0.847,0.02c0.038-0.012,0.062-0.021,0.097-0.032c0.366,0.077,0.774,0.008,1.142-0.297
	c0.972-0.786,1.995-1.496,3.07-2.131c0.141-0.088,0.251-0.206,0.342-0.337c0.142-0.095,0.283-0.189,0.424-0.283
	c0.217-0.071,0.415-0.205,0.587-0.395c0.201-0.139,0.34-0.304,0.436-0.481c0.6-0.592,1.525-1.101,2.298-1.653
	c0.335,0.066,0.703,0.008,1.069-0.244c1.137-0.784,2.092-1.524,2.992-2.588c0.077-0.091,0.141-0.185,0.196-0.279
	c0.017-0.015,0.034-0.028,0.051-0.044c0.902-0.588,1.751-1.263,2.617-1.928c1.39-0.822,2.756-1.662,4.07-2.622
	c0.181-0.133,0.318-0.286,0.419-0.451c0.632-0.41,1.257-0.831,1.873-1.27c0.003-0.001,0.005-0.002,0.008-0.003
	c0.6-0.263,1.153-0.599,1.663-1.008c0.398-0.283,0.586-0.663,0.625-1.044c0.696-0.317,1.382-0.664,2.058-1.055
	c0.212-0.011,0.433-0.079,0.651-0.234c0.833-0.643,1.714-1.211,2.644-1.705c0.307-0.182,0.49-0.423,0.583-0.685
	c1.427-0.437,2.724-0.699,4.417-0.636c0.577,0.009,0.93-0.308,1.067-0.712c0.029-0.016,0.056-0.029,0.086-0.047
	c0.167,0.087,0.334,0.181,0.5,0.288c1.005,0.65,1.974,0.246,2.505-0.509c0.654-0.125,1.314-0.2,1.979-0.224
	c0.074,0.55,0.461,1.015,1.196,0.952c2.251-0.194,4.344-0.062,6.509,0.341c0.236,0.567,0.788,0.96,1.493,1.016
	c2.146,0.169,3.968,0.843,5.716,1.826c0.021,0.208,0.097,0.41,0.249,0.569c0.148,0.155,0.303,0.301,0.455,0.452
	c0.156,0.33,0.431,0.611,0.837,0.81c4.387,4.063,9.777,6.769,14.182,10.757c0.066,0.093,0.141,0.184,0.229,0.271
	c0.672,0.662,1.344,1.324,2.015,1.985c0.607,0.599,1.314,0.656,1.903,0.411c1.646,1.023,3.238,2.12,4.771,3.326
	c0.152,0.231,0.362,0.451,0.651,0.642c0.334,0.221,0.668,0.442,1.002,0.663c0.376,0.25,0.769,0.319,1.142,0.271
	c3.076,1.446,5.946,3.233,9.373,3.792c0.343,0.056,0.65,0.023,0.925-0.062c1.531,0.239,3.06,0.498,4.592,0.733
	c0.399,0.494,1.024,0.797,1.735,0.594c3.226-0.923,6.578-0.749,9.749-1.887c2.309-0.828,4.463-2.099,6.613-3.323
	c0.321,0.032,0.676-0.049,1.04-0.3c0.87-0.599,1.735-1.205,2.604-1.809c0.135-0.041,0.27-0.095,0.405-0.177
	c1.593-0.969,3.105-2.041,4.608-3.132c0.262-0.074,0.524-0.21,0.771-0.442c0.434-0.355,0.868-0.711,1.303-1.066
	c0.226-0.164,0.399-0.352,0.525-0.554c0.937-0.804,1.886-1.591,2.855-2.363c0.312-0.249,0.478-0.558,0.534-0.883
	c0.122-0.111,0.209-0.235,0.294-0.359c0.057-0.031,0.109-0.067,0.167-0.098c0.435-0.256,0.679-0.622,0.799-1.036
	c0.134-0.1,0.268-0.2,0.4-0.302c0.467-0.261,0.944-0.501,1.442-0.707c0.305-0.148,0.521-0.38,0.663-0.651
	c0.088-0.04,0.175-0.087,0.26-0.149c0.51-0.372,1.026-0.729,1.538-1.097c0.34,0.077,0.723,0.018,1.113-0.263
	c1.383-0.979,2.712-1.959,3.977-3.066c0.201,0.017,0.416-0.013,0.644-0.104c0.129-0.052,0.249-0.115,0.377-0.168l0.005,0.009
	c0.019-0.012,0.035-0.023,0.054-0.035c3.572-1.493,6.818-3.378,10.017-5.53c1.755-0.364,3.551-0.628,5.283-0.689
	c6.188,0.921,11.846,3.807,17.438,6.649c2.749,2.385,5.843,4.43,8.785,6.486c0.26,0.182,0.514,0.28,0.757,0.321
	c0.168,0.135,0.336,0.269,0.503,0.404c0.095,0.076,0.19,0.136,0.286,0.194c2.938,2.713,5.833,5.681,9.147,7.959
	c0.126,0.125,0.241,0.256,0.372,0.379c0.2,0.188,0.438,0.282,0.679,0.31c0.236,0.147,0.479,0.284,0.721,0.424
	c0.037,0.032,0.072,0.068,0.11,0.101c0.145,0.124,0.298,0.186,0.453,0.22c1.119,0.609,2.289,1.131,3.531,1.524
	c0.297,0.094,0.581,0.061,0.842-0.035c0.611,0.384,1.248,0.72,1.938,0.955c0.336,0.144,0.678,0.125,0.979,0.018
	c0.047,0.018,0.095,0.034,0.142,0.051c0.012,0.477,0.264,0.93,0.847,1.045c1.106,0.218,2.175,0.465,3.239,0.756
	c0.082,0.479,0.441,0.896,1.077,0.891l3-0.029c0.054,0.001,0.092-0.021,0.142-0.027c0.543-0.002,1.085-0.005,1.628-0.006
	c0.861,0.235,1.73,0.447,2.62,0.603c1.707,0.298,4.174-0.69,5.881-0.985c0.273-0.047,0.461-0.197,0.584-0.391
	c0.638-0.099,1.266-0.226,1.889-0.372c0.374,0.189,0.83,0.231,1.306-0.002c1.643-0.804,3.287-1.536,4.98-2.232
	c0.261-0.107,0.458-0.269,0.608-0.456c0.563-0.245,1.128-0.491,1.691-0.737c0.296-0.129,0.478-0.341,0.576-0.586
	c0.334-0.192,0.67-0.381,1.003-0.579c0.051-0.023,0.1-0.055,0.149-0.086c0.079-0.048,0.159-0.091,0.239-0.139
	c0.087-0.052,0.16-0.113,0.227-0.178c0.58-0.404,1.16-0.809,1.74-1.212c0.285-0.17,0.454-0.389,0.538-0.621
	c0.114-0.089,0.226-0.181,0.341-0.269c0.116-0.089,0.199-0.188,0.262-0.291c0.112-0.055,0.226-0.107,0.337-0.161
	c0.295,0.063,0.621,0.025,0.946-0.17c0.769-0.461,1.537-0.921,2.306-1.381c0.402-0.241,0.595-0.581,0.639-0.932
	c0.086-0.064,0.173-0.127,0.26-0.192l0.023-0.012c-0.001-0.001-0.002-0.003-0.002-0.004c0.08-0.061,0.161-0.117,0.241-0.179
	c0.072-0.056,0.133-0.115,0.186-0.176c0.021-0.013,0.041-0.027,0.062-0.04c0.362-0.224,0.565-0.523,0.655-0.843
	c0.901-0.552,1.785-1.125,2.645-1.729c0.261-0.007,0.531-0.08,0.801-0.253c3.273-2.102,6.502-4.281,9.443-6.832
	c0.407-0.353,0.514-0.763,0.433-1.134c0.603-0.392,1.201-0.791,1.801-1.189c0.367-0.217,0.735-0.431,1.103-0.647
	c0.068-0.033,0.136-0.065,0.203-0.099c0.309,0.047,0.636-0.002,0.954-0.198c0.146-0.033,0.294-0.079,0.444-0.152
	c0.932-0.449,1.841-0.932,2.742-1.426c0.288,0,0.595-0.072,0.914-0.259c0.757-0.442,1.521-0.872,2.282-1.306
	c0.084-0.001,0.169-0.001,0.258-0.014c1.651-0.234,3.265-0.246,4.924-0.242c0.325,0.001,0.603-0.09,0.833-0.237
	c0.593,0.221,1.184,0.483,1.775,0.82c0.801,0.456,1.564,0.043,1.919-0.585c1.048,0.849,2.183,1.3,3.488,1.422
	c0.055,0.016,0.108,0.04,0.163,0.055c0.347,0.093,0.682,0.072,1.005-0.027c0.052-0.003,0.101,0,0.152-0.003
	c0.196-0.012,0.381-0.057,0.559-0.116c0.331,0.259,0.661,0.522,0.996,0.794c0.356,0.29,0.879,0.34,1.278,0.168
	c0.867,0.527,1.739,1.046,2.603,1.581c0.758,0.47,1.538,0.25,2.048-0.259c0.042-0.007,0.089-0.01,0.131-0.017
	c0.243,0.067,0.508,0.074,0.783-0.013c1.195-0.376,1.882-0.966,2.055-1.705c0.199-0.311,0.285-0.681,0.219-1.089
	C466.468,94.858,466.499,94.71,466.521,94.546z M176.208,48.288c1.088-0.025,2.165,0.096,3.099,0.302
	c4.472,0.988,6.945,4.613,6.528,8.92c-1.026,2.745-3.571,5.132-6.499,6.231c-2.5,0.938-4.712,0.519-6.42-0.688
	c-0.7-0.763-1.3-1.705-1.714-2.885C169.554,55.48,172.101,50.553,176.208,48.288z M122.47,50.096
	c2.793-2.061,6.757-2.131,9.656-0.31c4.623,2.905,1.258,10.119-1.66,12.76c-0.422,0.382-0.842,0.701-1.259,0.968
	c-2.189,0.193-4.474-0.217-6.11-1.086C118.583,60.03,118.52,53.01,122.47,50.096z M137.214,101.349
	c-0.345,0.439-0.69,0.878-1.036,1.317c-0.407,0.441-0.531,0.938-0.472,1.399c-0.363,0.159-0.708,0.334-1.036,0.536
	c-0.235,0.084-0.428,0.206-0.599,0.345c-2.584-1.802-5.153-3.608-7.865-5.181c-2.274-1.742-4.534-3.506-7.077-4.863
	c0.278-0.107,0.558-0.209,0.834-0.318c0.612-0.237,1.016-0.642,1.237-1.105c0.124-0.076,0.25-0.152,0.374-0.229
	c2.077-0.024,4.122-0.098,6.189-0.363c0.206-0.026,0.389-0.084,0.561-0.153c1.667,0.322,3.34,0.604,5.052,0.707
	c0.901,0.437,1.792,0.907,2.713,1.354c0.423,0.733,0.854,1.461,1.298,2.183c0.009,0.153,0.031,0.311,0.082,0.475
	c0.106,0.344,0.19,0.689,0.289,1.034l0.006,2.341C137.558,100.953,137.368,101.123,137.214,101.349z M182.446,100.947
	c-2.388,1.536-4.755,3.104-7.025,4.821c-0.017,0.013-0.028,0.027-0.043,0.04c-0.016-0.002-0.031-0.004-0.047-0.005
	c-0.087-0.067-0.181-0.133-0.288-0.188c-1.527-0.802-4.918-2.699-7.073-4.803c-0.045-0.267-0.076-0.538-0.116-0.807
	c0.062-0.832,0.181-1.672,0.306-2.515c0.215-0.354,0.432-0.706,0.651-1.057c0.559-0.589,1.117-1.178,1.686-1.758
	c0.019-0.019,0.03-0.04,0.047-0.059c0.421-0.322,0.841-0.644,1.262-0.965c0.027-0.021,0.045-0.044,0.07-0.065
	c0.387-0.07,0.78-0.114,1.181-0.139c0.393,0.287,0.91,0.424,1.524,0.282c0.1-0.023,0.201-0.045,0.301-0.068
	c0.323,0.289,0.737,0.478,1.216,0.458c1.89-0.075,3.561-0.373,5.247-0.997c2.254,0.829,4.48,1.745,6.775,2.472
	C186.272,97.444,184.393,99.229,182.446,100.947z M300.086,59.238c-0.03-0.383-0.161-0.696-0.351-0.942
	c-0.003-0.242-0.009-0.481-0.01-0.724c0-0.057-0.018-0.102-0.022-0.156c0.983-1.297,1.907-2.626,2.783-3.992
	c1.464-1.152,2.65-2.374,3.59-3.792c2.401-0.163,4.723-0.445,6.881-1.326c0.031,0,0.063,0,0.095,0
	c1.45,1.695,2.973,3.318,4.267,5.111c0.696,1.081,1.354,2.192,1.958,3.351c0.111,0.214,0.248,0.376,0.396,0.507
	c-0.261,1.824-0.495,3.653-0.749,5.486c-0.05,0.361-0.005,0.687,0.096,0.979c-0.292,0.937-0.63,1.861-1.008,2.767
	c-0.523,0.002-1.062,0.252-1.458,0.846c-0.604,0.904-1.168,1.819-1.708,2.745c-1.416,0.645-2.908,1.096-4.438,1.462
	c-0.204-0.054-0.423-0.09-0.673-0.081c-0.717,0.024-1.428,0.07-2.138,0.127c-1.125,0.032-2.231,0.004-3.339-0.114
	c-1.347-0.948-2.684-1.917-4.059-2.82C300.362,65.521,300.333,62.399,300.086,59.238z"/>
<path d="M277.721,53.519c-0.068-0.534-0.137-1.071-0.202-1.612c-0.034-0.285-0.134-0.522-0.27-0.72
	c-0.187-1.961-0.609-3.756-1.371-5.613c-0.003-0.018-0.006-0.037-0.009-0.055c-0.004,0.001-0.008,0.002-0.011,0.003
	c-0.05-0.12-0.085-0.237-0.138-0.358c-0.295-0.677-0.871-0.865-1.424-0.747c-0.494-0.535-1.078-1.025-1.79-1.456
	c-0.055-0.033-0.116-0.043-0.175-0.067c-1.011-1.647-2.368-2.971-4.499-3.529c-0.065-0.017-0.12-0.008-0.184-0.018
	c-2.038-1.707-4.421-2.875-7.243-2.986c-0.421-0.017-0.743,0.1-0.982,0.291c-2.285-0.514-4.923-0.179-7.763,0.72
	c-0.102,0.032-0.195,0.073-0.282,0.119c-0.504,0.097-1.002,0.232-1.494,0.398c-0.248-0.091-0.533-0.11-0.846-0.018
	c-1.691,0.5-2.881,1.1-4.347,2.125c-0.085,0.06-0.16,0.126-0.228,0.197c-0.429,0.242-0.844,0.508-1.244,0.798
	c-0.283,0.122-0.566,0.227-0.85,0.357c-0.336,0.155-0.535,0.404-0.635,0.686c-0.77,0.454-1.532,0.927-2.297,1.433
	c-0.767,0.506-0.713,1.406-0.276,1.958c-0.2,0.048-0.38,0.17-0.494,0.385c-0.16,0.338-0.347,0.661-0.546,0.976
	c-0.271-0.042-0.554,0.059-0.729,0.393c-0.316,0.605-0.622,1.215-0.932,1.822c-0.238,0.396-0.483,0.789-0.763,1.161
	c-0.063,0.097-0.093,0.191-0.113,0.284c-0.793,1.51-0.85,1.636-1.405,3.229c-0.116,0.332,0.003,0.624,0.214,0.837
	c-0.899,3.554-1.331,7.023-0.507,10.841c1.104,5.123,5.163,9.439,8.661,13.084c0.553,0.576,1.226,0.61,1.783,0.355
	c0.677,0.704,1.412,1.279,2.259,1.681c2.123,1.598,4.99,2.432,7.838,2.407c2.655,0.645,5.372,0.955,7.998,0.885
	c0.8-0.021,1.319-0.657,1.448-1.339c0.317-0.031,0.583-0.138,0.788-0.303c0.032-0.003,0.064-0.005,0.097-0.008
	c0.545-0.056,0.936-0.334,1.177-0.697c1.953-0.441,3.893-1.019,5.868-1.748c0.822-0.304,1.101-1.073,0.981-1.747
	c0.607-0.169,1.046-0.67,1.059-1.342c0.818-0.266,1.396-1.147,0.842-2.065c-0.712-1.178-1.507-2.234-2.332-3.334
	c-0.322-0.43-0.839-0.623-1.342-0.62c-0.123-0.229-0.256-0.453-0.368-0.688c-0.304-0.521-0.839-0.71-1.352-0.659
	c-0.251-0.239-0.571-0.392-0.922-0.36c-0.815-0.761-2.257-0.172-2.399,0.839c-1.344,0.382-2.643,0.745-3.907,1.369
	c-0.146,0.072-0.26,0.164-0.355,0.267c-6.414,0.84-13.59-2.328-14.307-9.425c-0.029-0.288-0.117-0.534-0.243-0.742
	c0.848,0.017,1.694,0.038,2.541,0.059c2.374,0.323,4.706,0.356,7.065,0.239c5.446,0.238,10.883,0.621,16.328,1.302
	c0.623,0.078,1.065-0.271,1.292-0.754c0.458,0.025,0.915,0.054,1.374,0.067c0.671,0.02,1.249-0.485,1.431-1.106
	c0.042-0.143,0.066-0.286,0.104-0.429c0.222-0.252,0.366-0.577,0.363-0.969c0-0.075-0.003-0.149-0.003-0.224
	c0.311-0.232,0.529-0.598,0.534-1.108c0.012-1.222,0.023-2.445,0.037-3.667C278.231,54.12,278.023,53.765,277.721,53.519z
	 M265.946,54.076c-6.027,0.008-12.052-0.139-18.077-0.193c0.846-1.675,1.775-3.304,2.71-4.951c0.05-0.087,0.066-0.17,0.097-0.255
	c1.876-0.657,3.725-1.37,5.561-2.125c2.239,1.254,4.415,2.668,6.93,2.949c0.479,1.266,1.066,2.51,1.704,3.784
	c0.251,0.502,0.666,0.706,1.091,0.703C265.957,54.018,265.951,54.047,265.946,54.076z"/>
<path d="M384.501,51.69c0.006-4.316-2.744-7.361-6.39-9.634c-1.759-2.251-4.427-3.833-7.28-4.352
	c-0.181-0.033-0.352-0.028-0.517-0.007c-13.766-5.276-30.657,7.572-29.72,21.316c-2.886,10.009,6.537,21.102,15.712,23.894
	c8.308,2.527,20.355-0.639,24.505-8.702c0.099-0.109,0.19-0.226,0.287-0.337C386.543,68.66,390.143,57.188,384.501,51.69z
	 M371.819,67.82c-0.408,0.549-0.848,1.076-1.31,1.582c-0.164,0.137-0.336,0.274-0.525,0.413c-5.251,0.495-9.208,2.312-13.811-1.979
	c-2.846-2.653-4.062-5.711-4.166-8.94c0.161-1.262,0.391-2.519,0.646-3.732c0.599-1.209,1.289-2.342,2.019-3.478
	c0.102-0.061,0.206-0.117,0.298-0.202c1.725-1.59,3.827-2.951,6.048-3.837c0.21,0.166,0.453,0.296,0.741,0.329
	c5.979,0.672,11.162,5.316,12.516,10.704C373.174,61.63,372.466,64.741,371.819,67.82z"/>
</svg>
