<?xml version="1.0" encoding="utf-8"?>
<!-- Generator: Adobe Illustrator 16.0.4, SVG Export Plug-In . SVG Version: 6.00 Build 0)  -->
<!DOCTYPE svg PUBLIC "-//W3C//DTD SVG 1.1//EN" "http://www.w3.org/Graphics/SVG/1.1/DTD/svg11.dtd">
<svg version="1.1" xmlns="http://www.w3.org/2000/svg" xmlns:xlink="http://www.w3.org/1999/xlink" x="0px" y="0px"
	 width="281.89px" height="318.68px" viewBox="0 0 281.89 318.68" enable-background="new 0 0 281.89 318.68" xml:space="preserve">
<g id="Lettering">
	<g>
		<path d="M135.095,138.747c-1.92-0.594-3.691-0.43-5.258,0.807c-2.014,1.59-2.444,4.648-2.6,7.013
			c-0.036,0.548-0.077,1.095-0.12,1.64c-0.985,0.033-1.97,0.047-2.958,0.005c-2.277-0.098-2.232,3.692,0,3.499
			c0.909-0.06,1.815-0.151,2.72-0.251c-0.132,2.118-0.179,4.236,0.075,6.375c0.157,1.318,1.22,2.423,2.649,2.018
			c0.086-0.019,0.168-0.047,0.248-0.084c1.354-0.549,1.737-1.889,1.16-2.892c-0.287-1.958-0.277-3.904-0.224-5.854
			c0.866-0.086,1.733-0.157,2.604-0.193c1.812-0.076,1.825-2.79,0-2.821c-0.843-0.015-1.684,0.005-2.524,0.037
			c0.008-0.492,0.013-0.984,0.006-1.478c-0.021-1.646,0.13-3.453,1.179-4.796c0.359-0.46,0.818-0.444,1.346-0.481h0.476
			c0.085,0.031,0.155,0.053,0.219,0.07c0.053,1.089,1.543,1.478,2.238,0.52C137.234,140.634,136.494,139.181,135.095,138.747z"/>
		<path d="M145.326,148.051c-1.009-0.998-2.267-1.146-3.613-0.926c-0.637,0.105-1.258,0.398-1.829,0.688
			c-0.159,0.08-0.427,0.365-0.687,0.631c-0.206,0.146-0.397,0.309-0.571,0.49c-0.026,0.012-0.055,0.027-0.075,0.027
			c-0.527-0.004-0.848,0.592-0.68,1.022c-0.689,1.28-0.89,2.898-0.55,4.291c0.333,1.367,1.584,2.522,2.957,2.781
			c1.518,0.286,2.901-0.415,3.899-1.526C145.73,153.799,147.336,150.04,145.326,148.051z M142.253,151.927
			c-0.287,0.503-0.66,0.971-1.15,1.287c-0.057,0.037-0.096,0.06-0.127,0.078c-0.097-0.068-0.078-0.177-0.007-0.062
			c-0.459-0.754,0.639-2.046,1.202-2.637c0.201-0.211,0.326-0.477,0.389-0.758C143.189,150.202,142.599,151.317,142.253,151.927z"/>
		<path d="M158.1,144.43c-2.311,0.009-4.468,0.963-6.191,2.461c-0.803-1.507-3.374-0.375-3.117,1.091
			c-0.285,1.581-0.332,3.208-0.493,4.814c-0.16,0.675-0.255,1.361-0.269,2.052c-0.058,2.848,4.23,2.806,4.391,0
			c0.144-2.876,2.791-5.666,5.679-5.874C160.99,148.766,161.06,144.42,158.1,144.43z"/>
	</g>
	<g>
		<path d="M108.479,221.605c-0.567-0.215-5.249-2.463-3.607-3.614c0.53-0.372,1.276-0.502,2.08-0.523
			c1.03,0.09,2.059,0.156,3.094,0.191c0.183,0.013,0.357,0.021,0.517,0.023c2.951,0.069,2.945-4.507,0-4.573
			c-3.222-0.073-6.794-0.599-9.33,1.84c-2.716,2.611-0.978,7.086,1.542,9.035c2.176,1.683,8.831,2.804,6.633,6.783
			c-0.322,0.582-2.191,0.986-2.842,1.177c-0.622,0.182-1.247,0.301-1.891,0.346c-0.123,0.009-0.216,0.03-0.291,0.059
			c-0.007-0.056-0.017-0.115-0.033-0.184c-0.529-2.354-3.712-2.002-4.41,0c-1.413,4.056,3.402,5.299,6.361,4.782
			c3.54-0.617,6.721-1.936,8.059-5.458C116.081,226.96,112.307,223.057,108.479,221.605z"/>
		<path d="M125.544,220.853c-2.25-0.57-4.597-0.091-6.653,0.915c-0.813,0.397-1.719,1.306-1.901,2.223
			c-0.252,1.269,0.262,2.55-0.015,3.765c-0.086,0.378-0.01,0.749,0.161,1.065c-0.022,0.863,0,1.73-0.005,2.595
			c-0.008,1.185-0.372,2.416,0.275,3.521c0.713,1.218,2.143,1.218,3.358,1.048c1.986-0.277,4.359-0.22,6.359-0.08
			c1.261,0.087,2.316-1.12,2.316-2.316C129.441,229.376,130.998,222.232,125.544,220.853z M123.052,231.596
			c-0.467,0.039-1.129,0.162-1.772,0.231c0.04-0.387,0.088-0.77,0.086-1.11c-0.009-1.404,0.048-2.785-0.225-4.167
			c-0.066-0.336-0.22-0.608-0.427-0.824c0.522-0.81,2.448-0.854,3.273-0.703c1.316,0.239,0.866,1.529,0.83,2.63
			c-0.042,1.268-0.033,2.54-0.021,3.812C124.214,231.507,123.633,231.548,123.052,231.596z"/>
		<path d="M144.403,229.281c-0.319-2.452-0.557-4.909-1.005-7.345c-0.455-2.469-4.243-1.427-3.766,1.038
			c0.211,1.369,0.412,2.709,0.441,4.097c0.033,1.521,0.649,2.977,0.427,4.52c-0.142,0.986,0.088,0.349-0.517,0.505
			c-0.442,0.113-0.953,0.067-1.403,0.067c-0.255,0-0.532,0.001-0.812-0.002c-0.055-3.311-0.53-6.668-1.092-9.896
			c-0.32-1.837-2.917-1.474-3.354,0h0v0.001c-0.05,0.167-0.079,0.345-0.066,0.539c-0.487,3.746-0.15,7.564,0.074,11.326
			c0.089,1.486,1.34,2.447,2.801,2.133c1.168-0.25,2.712,0.176,3.95,0.045c1.423-0.15,2.848-0.617,3.71-1.829
			C144.839,233.007,144.623,230.968,144.403,229.281z"/>
		<path d="M156.688,223.103c-1.279-1.168-2.98-0.875-4.388-0.188c-0.467,0.229-1.011,0.527-1.505,0.855
			c-0.021-0.257-0.038-0.515-0.065-0.771c-0.25-2.367-3.919-2.456-3.768,0c-0.302,2.865-0.206,5.762-0.254,8.646
			c-0.062,0.832-0.104,1.663-0.089,2.487c-0.09,1.463,1.069,2.178,2.228,2.145c1.159,0.033,2.318-0.682,2.227-2.145
			c0.017-0.906-0.023-1.818-0.094-2.732c-0.013-0.924-0.013-1.849-0.017-2.773c0.322-0.396,0.6-0.815,0.881-1.291
			c0.544-0.351,1.115-0.643,1.714-0.879c1.164-0.712,1.035,0.123,1.324,1.146c0.738,2.613,0.207,5.304,0.372,7.955
			c-0.084,1.348,0.963,1.983,2.011,1.928c1.047,0.056,2.095-0.58,2.011-1.928C159.505,231.847,159.678,225.836,156.688,223.103z"/>
		<path d="M174.1,227.668c-0.049-4.726,0.076-9.448,0.181-14.173c0.06-2.699-4.037-2.669-4.168,0
			c-0.107,2.179-0.539,4.334-0.514,6.517c0.015-0.002,0.03-0.004,0.045-0.007c0.018,0.372,0.122,0.689,0.278,0.96
			c-0.001,0.03-0.002,0.06-0.004,0.09c-1.535-0.504-3.147-0.625-4.542,0.359c-1.974,1.393-2.21,4.164-2.296,6.365
			c-0.094,2.438-0.172,5.158,1.48,7.111c1.187,1.402,3.566,1.536,5.465,1.483c0.854,0.85,2.658,0.7,3.425-0.379
			C174.964,233.867,174.125,230.115,174.1,227.668z M167.929,232.103c-1.191-0.179-0.796-2.72-0.791-3.637
			c0.007-1.24,0.016-2.388,0.35-3.59c0.17-0.609,1.236-0.685,2.315-0.694c-0.005,0.171-0.012,0.343-0.016,0.514
			c-0.049,1.967-0.063,3.938-0.051,5.905c0.003,0.395,0.108,0.905,0.194,1.425C169.259,232.107,168.583,232.2,167.929,232.103z"/>
		<path d="M182.932,235.543c-0.162-0.682-0.491-1.398-0.934-1.978c0.07-1.089-0.386-2.137-1.356-2.776
			c-0.613-0.404-1.524-0.257-2.022,0.261c-1.233,1.281-1.447,4.363,0.778,4.81c0.096,0.02,0.189,0.028,0.28,0.033
			c0.125,0.032,0.25,0.045,0.376,0.041c0.027,0.128,0.052,0.257,0.075,0.383c0.156,0.857,0.081,1.161-0.449,1.284
			c-1.742,0.404-1.145,2.709,0.391,2.888C182.805,240.805,183.4,237.521,182.932,235.543z"/>
	</g>
	<g>
		<path d="M44.486,194.892c-0.199-2.036,0.187-4.502,0.18-6.24c-0.014-3.599,0.098-7.136,0.271-10.725
			c0.069-1.435-1.749-2.537-2.965-1.702c-2.376,1.631-3.44,4.1-4.442,6.712c-0.967,2.521-1.876,5.149-2.961,7.663
			c-0.239-0.562-0.464-1.087-0.597-1.33c-0.838-1.526-1.625-3.078-2.463-4.604c-1.25-2.276-2.275-4.876-4.215-6.634
			c-0.262-2.39-3.974-2.357-3.971,0.167c0,0.186-0.002,0.374-0.003,0.561c-0.723,2.774-0.765,5.546-0.486,8.399
			c0.064,0.656,0.099,1.328,0.121,2.007c-0.162,2.677-0.304,5.355-0.257,8.039c-0.096,1.603,1.392,2.241,2.615,1.92
			c0.679-0.044,1.355-0.517,1.413-1.256c0.071-0.201,0.123-0.417,0.131-0.664c0.009-0.303,0.021-0.605,0.032-0.908
			c0.386-3.716,0.451-7.528,0.444-11.319c0.002-0.085,0.003-0.17,0.005-0.255c0.757,1.521,1.388,3.12,1.964,4.257
			c0.788,1.553,1.636,3.073,2.424,4.627c0.372,0.732,0.653,1.343,1.141,1.794c0.436,1.578,3.075,1.461,3.411-0.163
			c0.686-3.315,2.349-6.075,3.891-9.044c0.226-0.435,0.427-0.896,0.622-1.367c-0.036,1.589-0.063,3.181-0.07,4.776
			c-0.011,2.689-0.645,6.1,0.526,8.608c0.763,1.636,3.196,1.06,3.643-0.476c0.08-0.274,0.16-0.549,0.239-0.823
			C45.395,195.99,45.058,195.289,44.486,194.892z"/>
		<path d="M67.659,177.112c0.021-2.791-4.221-2.773-4.316,0c-0.07,2.071-0.214,4.119-0.328,6.175
			c-0.148,1.704-0.33,3.405-0.533,5.106c-0.228,1.905-0.333,4.978-1.809,6.569c-0.464,0.216-1.03,0.331-1.723,0.365
			c-0.431,0.022-1.924,0.092-2.93-0.126c-0.401-0.281-0.757-0.622-1.044-1c-0.326-1.532-0.259-3.267-0.31-4.802
			c-0.053-1.614-0.229-3.296-0.367-4.982c0-0.433-0.004-0.865-0.014-1.298c-0.013-0.521-0.095-1.108-0.15-1.702
			c-0.002-0.096-0.006-0.191-0.007-0.287c0.017-0.047,0.035-0.092,0.047-0.143c0.01-0.044,0.013-0.093,0.02-0.14
			c0.011-0.068,0.026-0.132,0.029-0.207c0.021-0.481,0.043-0.962,0.064-1.442c0.041-0.113,0.079-0.228,0.135-0.334
			c0.269-0.506,0.184-0.989-0.072-1.356c-0.059-1.747-2.651-1.927-3.172-0.284c-0.805,2.539-0.924,5.071-0.925,7.717
			c0,2.528-0.132,5.156,0.286,7.658c0.341,2.044,0.382,4.192,2.132,5.587c1.38,1.099,3.737,1.197,5.417,1.399
			c0.069,0.009,0.134,0.011,0.203,0.018c0.838,0.166,1.62,0.158,2.34,0.002c3.324-0.4,5.53-2.598,6.077-6.425
			c0.356-2.491,0.479-4.902,0.426-7.407C67.436,182.895,67.639,180.009,67.659,177.112z"/>
		<path d="M97.831,176.965c-2.34-1.152-5.212-1.245-7.964-1.205c-1.15-0.012-2.3,0.031-3.458,0.053
			c-3.072,0.057-3.078,4.822,0,4.771c0.815-0.014,1.673-0.022,2.548-0.045c-0.001,0.036-0.011,0.067-0.011,0.104
			c-0.011,1.889-0.025,3.775-0.04,5.664c-0.003,0.037-0.006,0.075-0.01,0.112c-0.325,3.615-0.137,7.159-0.127,10.786
			c0.008,2.909,4.569,2.908,4.511,0c-0.111-5.462-0.144-10.922-0.176-16.386c0.574,0.099,1.15,0.188,1.727,0.271
			c0.449,0.091,0.899,0.163,1.353,0.189c1.78,0.104,2.455-1.505,2.071-2.837C98.5,177.937,98.368,177.229,97.831,176.965z"/>
		<path d="M105.777,188.381c-0.27-3.297-0.139-6.609-0.254-9.911c0.118-2.945-4.429-2.928-4.562,0
			c-0.274,6.047,0.177,11.895,0.478,17.92c0.151,3.022,4.546,3.024,4.692,0C106.263,193.676,105.998,191.08,105.777,188.381z"/>
		<path d="M118.204,187.969c0-0.001,0.001-0.002,0.001-0.003c-0.014-0.004-0.028-0.006-0.042-0.01
			c-0.086-0.035-0.174-0.056-0.264-0.064c-0.278-0.073-0.558-0.135-0.842-0.18c-2.18-0.649-4.882-0.629-6.995,0.035
			c-1.998,0.629-1.732,3.928,0.511,3.778c1.148-0.077,2.339-0.202,3.522-0.39c0.828-0.004,1.661,0.06,2.517,0.198
			c1.275,0.207,2.113-0.657,2.214-1.598C119.297,189.139,118.836,188.25,118.204,187.969z"/>
		<path d="M134.645,194.081c-1.126,0.155-2.242,0.171-3.363,0.333c-0.057,0.008-0.112,0.023-0.166,0.039
			c-0.328-0.051-0.656-0.117-0.987-0.205c-1.969-0.521-2.24-3.525-2.46-5.189c-0.28-2.116,0.105-4.427,1.003-6.365
			c0.558-1.206,0.907-1.939,2.344-1.938c0.144,0.025,0.295,0.039,0.464,0.026c0.508,0.032,1.017,0.054,1.525,0.08
			c0.486,0.035,0.973,0.069,1.461,0.076c2.486,0.115,2.466-3.715,0-3.85c-3.542-0.194-6.512-1.008-8.739,2.317
			c-1.96,2.927-2.676,6.896-2.31,10.338c0.345,3.231,1.214,6.053,3.995,7.952c2.26,1.545,5.959,1.993,8.505,1.003
			C138.839,197.563,137.685,193.661,134.645,194.081z"/>
		<path d="M155.437,194.721c-0.273-2.521-0.435-4.904-0.256-7.509c0.17-2.47,0.343-4.914,0.166-7.368
			c0.103-0.63,0.186-1.265,0.163-1.917c-0.021-0.594-0.607-1.004-1.126-0.946c-1.199-0.69-3.287,0.063-3.231,1.761
			c-0.057,1.673-0.155,3.325-0.292,4.978c-0.797,0.031-1.605,0.223-2.392,0.349c-0.954,0.153-1.914,0.268-2.872,0.39
			c-0.023-1.454-0.062-2.907-0.124-4.358c-0.029-0.679-0.278-1.193-0.639-1.562c-0.02-0.172-0.032-0.343-0.056-0.515
			c-0.276-2.001-3.422-1.255-3.34,0.476c-0.011,0.053-0.021,0.106-0.032,0.159c-0.312,0.36-0.528,0.837-0.568,1.442
			c-0.072,1.094-0.263,2.162-0.267,3.258h0.049c0.019,0.414,0.131,0.769,0.302,1.071c-0.002,4.078-0.188,8.152-0.119,12.233
			c0.056,3.389,5.219,2.66,4.709-0.256c0.057-2.545,0.1-5.096,0.108-7.646c1.164,0.104,2.313,0.092,3.488,0.043
			c0.417-0.018,0.844-0.03,1.269-0.062c-0.145,2.489,0.092,4.836,0.431,7.378c0.333,2.503,3.957,3.464,4.701,0.637
			c0.103-0.392,0.166-0.775,0.146-1.18C155.642,195.276,155.563,194.987,155.437,194.721z"/>
		<path d="M177.681,196.051c-1.428-3.477-2.687-7.015-3.997-10.535c-0.897-2.411-1.126-5.249-2.997-7.199
			c-0.202-0.21-0.464-0.346-0.747-0.41c-0.23-1.197-1.518-2.041-2.749-1.322c-2.346,1.369-3.306,5.218-4.266,7.563
			c-0.941,2.302-2.155,4.499-3.202,6.755c-0.538,1.158-0.98,2.432-1.517,3.628c-0.291,0.533-0.582,1.066-0.839,1.618
			c-1.1,2.362,2.083,4.378,3.526,2.231c0.208-0.072,0.389-0.206,0.507-0.398c0.001,0.001,0.002,0.002,0.002,0.003
			c0.8-1.52,2.078-2.737,2.954-4.227c0.255-0.435,0.476-0.897,0.675-1.372c0.079,0.01,0.165,0.01,0.251,0.008
			c1.536,0.317,3.359,0.295,5.045,0.114c0.983,1.792,2.195,3.437,3.153,5.312C174.654,200.114,178.676,198.471,177.681,196.051z
			 M167.781,184.771c0.303,1.229,0.643,2.447,0.969,3.67c-0.2,0.039-0.4,0.078-0.601,0.112c-0.633,0.109-1.281,0.169-1.923,0.256
			C166.648,187.439,167.209,186.104,167.781,184.771z"/>
		<path d="M242.85,177.857c-0.247-0.898-0.785-1.347-1.441-1.552c-0.222-0.312-0.689-0.502-1.027-0.367
			c-0.923,0.369-2.238,0.029-3.234,0.188c-1.367,0.216-2.705,0.461-4,0.884c-0.668-1.264-2.69-0.841-3.096,0.471
			c-0.01-0.003-0.019-0.005-0.028-0.008c-1.397,6.294-1.618,13.298-1.804,19.731c-0.039,1.34,1.107,2.298,2.365,2.365
			c3.171,0.169,6.333-0.233,9.503-0.261c3.064-0.026,3.063-4.825,0-4.752c-2.329,0.057-4.642,0.308-6.962,0.345
			c0.135-1.559,0.295-3.146,0.435-4.742c0.799-0.084,1.597-0.22,2.392-0.323c1.134-0.147,2.296-0.118,3.41-0.387
			c2.216-0.536,2.331-4.122,0-4.582c-1.696-0.335-3.667,0.002-5.494,0.432c0.038-1.242,0.038-2.479-0.03-3.7
			c1.667-0.425,3.46-0.375,5.168-0.426C240.847,181.118,243.513,180.269,242.85,177.857z"/>
		<path d="M257.736,194.226c-2.211-0.026-4.423-0.053-6.634-0.077c0.017-2.18,0.526-4.514,0.675-6.582
			c0.237-3.294-0.031-6.615-0.085-9.911c-0.051-3.104-4.479-3.004-4.744,0c-0.247,2.804-0.452,5.6-0.447,8.417
			c0.001,0.422,0.101,0.776,0.26,1.077c-0.01,0.139-0.013,0.278-0.023,0.417c-0.254,3.271-0.989,6.499-0.41,9.771
			c0.193,1.091,1.402,1.875,2.45,1.865c2.987-0.029,5.973-0.069,8.96-0.105C260.876,199.059,260.876,194.264,257.736,194.226z"/>
		<path d="M222.934,181.335c0.016-0.496,0.008-0.99-0.033-1.485c-0.009-0.461-0.02-0.921-0.026-1.38
			c0.022-1.522-1.157-2.272-2.336-2.257c-1.18-0.016-2.359,0.734-2.336,2.257c-0.048,3.263-0.171,6.545-0.236,9.823
			c-0.582-0.659-1.17-1.312-1.751-1.964c-1.247-1.399-2.189-2.828-3.136-4.438c-0.953-1.622-2.569-2.729-3.541-4.338
			c-1.285-2.126-4.175-1.063-4.385,1.188c-0.162,1.729,0.029,3.43,0.106,5.158c0.013,0.292,0.084,0.558,0.196,0.799
			c-0.128,3.947-0.267,7.902-0.511,11.827c-0.129,2.08,2.799,3.314,4.178,1.73c0.039-0.045,0.078-0.089,0.117-0.134
			c0.531-0.609,0.692-1.292,0.609-1.929c0.104-3.419,0.151-6.871,0.15-10.315c0.514,0.882,1.023,1.771,1.712,2.529
			c2.515,2.77,5.039,5.573,6.637,8.993c1.134,2.427,4.644,1.055,4.731-1.282C223.262,191.212,223.057,186.259,222.934,181.335z"/>
		<path d="M200.268,192.851c-0.675-4.878-0.517-9.997-0.56-14.924c-0.025-2.914-4.362-2.884-4.498,0
			c-0.073,1.542-0.242,3.069-0.252,4.615c0.012-0.001,0.024-0.003,0.036-0.005c0.007,0.236,0.047,0.452,0.111,0.651
			c-0.036,1.301-0.073,2.602-0.105,3.901c-0.028,1.107-0.054,2.207-0.005,3.307c-1.146-1.497-2.302-2.986-3.443-4.488
			c-2.344-3.087-3.84-6.606-6.255-9.667c-0.938-1.19-3.086-0.773-3.743,0.482c-0.775,1.481-0.631,2.993-0.471,4.601
			c-0.001,0.022-0.001,0.043-0.002,0.065c-0.015,0.11-0.034,0.218-0.034,0.338c-0.015,0.657-0.028,1.314-0.039,1.972
			c-0.024,0.561-0.06,1.117-0.118,1.674c-0.23,0.332-0.385,0.742-0.407,1.242c-0.034,0.542-0.047,1.085-0.042,1.629
			c-0.001,0.182,0.021,0.352,0.058,0.513c0.003,2.816-0.055,5.631,0.052,8.447c0.123,3.243,5.217,3.235,5.034,0
			c-0.287-2.84-0.454-5.699-0.477-8.556c0.205-1.06,0.333-2.112,0.409-3.169c0.869,1.424,1.776,2.828,2.825,4.168
			c1.429,1.825,2.884,3.63,4.313,5.456c0.953,1.217,1.871,2.708,3.26,3.476C199.543,200.583,200.59,195.182,200.268,192.851z"/>
		<path d="M76.123,194.428c-0.027-0.746-0.04-1.493-0.017-2.235c0.216-0.328,0.348-0.734,0.333-1.233
			c0.003-0.543-0.003-1.086-0.02-1.629c-0.001-0.065-0.016-0.124-0.022-0.187c0.015-0.115,0.032-0.229,0.029-0.356
			c-0.023-1.241-0.065-2.484-0.076-3.727c0.048-0.19,0.08-0.392,0.076-0.617c0-0.239-0.006-0.479-0.017-0.718
			c-0.004-0.188-0.008-0.378-0.013-0.567c0.27-1.857,0.458-3.7-0.136-5.531c-0.004-0.015-0.013-0.027-0.018-0.042
			c-0.182-0.678-0.663-1.124-1.246-1.325c-0.518-0.2-1.099-0.192-1.611,0c-0.001,0.001-0.002,0.002-0.003,0.002
			c-0.089,0.033-0.176,0.071-0.26,0.117c-0.072,0.036-0.141,0.077-0.208,0.122c-0.009,0.007-0.019,0.014-0.029,0.021
			c-0.392,0.27-0.689,0.676-0.79,1.231c-0.029,0.14-0.047,0.288-0.051,0.445c-0.022,0.905-0.042,1.81-0.043,2.715
			c-0.002,0.116,0.014,0.22,0.026,0.327c-0.017,0.828-0.037,1.657-0.056,2.485c-0.01,0.238-0.017,0.478-0.016,0.718
			c-0.004,0.226,0.028,0.427,0.076,0.617c-0.011,1.242-0.053,2.485-0.076,3.727c-0.002,0.124,0.014,0.234,0.028,0.348
			c-0.389,2.609-0.381,5.155-0.351,7.798c0.014,1.208,1.03,2.338,2.287,2.287c1.165-0.048,2.347-0.271,3.515-0.355
			c0.902-0.065,1.803-0.088,2.707-0.071c0.758,0.013,1.256,0.512,0.841-0.208c0.87,1.509,3.726,1.437,4.016-0.524
			C85.689,193.381,79.954,193.979,76.123,194.428z"/>
	</g>
	<g>
		<path d="M55.853,269.64c-1.307-1.431-3.134-1.595-4.98-1.733c-0.843-0.064-1.678-0.035-2.519,0.038
			c-0.36,0.038-0.721,0.062-1.082,0.084c-0.155-5.044,0.542-10.107,0.265-15.163c-0.167-3.042-4.384-2.967-4.667,0
			c-0.259,2.713-0.495,5.419-0.507,8.146c-0.002,0.396,0.082,0.735,0.221,1.025c-0.021,0.337-0.041,0.674-0.06,1.011
			c-0.129,2.35-0.462,4.786-0.079,7.117c0.367,2.229,2.55,2.775,4.468,2.721c1.093-0.031,2.164-0.262,3.261-0.274
			c1.455-0.016,2.821,0.355,4.261,0.451C56.283,273.186,56.949,270.841,55.853,269.64z"/>
		<path d="M62.832,260.196c-0.17-2.459-3.406-2.887-4.228-0.572c-0.788,2.221-0.784,4.801-0.504,7.157
			c-0.13,1.151-0.25,2.303-0.292,3.461c0.015-0.004,0.03-0.008,0.045-0.012c-0.049,2.718,4.621,3.205,4.613,0.012
			C62.457,266.884,63.064,263.558,62.832,260.196z"/>
		<path d="M62.296,252.002c-0.54-0.486-1.123-0.716-1.843-0.774c-0.711-0.058-1.349,0.297-1.873,0.731
			c-0.614,0.51-1.11,1.567-1.02,2.373c0.07,0.62,0.072,0.593,0.312,1.159c0.085,0.199,0.281,0.406,0.395,0.549
			c0.253,0.314,0.617,0.505,0.986,0.648c0.235,0.184,0.492,0.317,0.791,0.405c0.49,0.143,0.769,0.089,1.256,0.014
			c1.257-0.194,2.063-1.518,2.038-2.713C63.32,253.523,62.95,252.592,62.296,252.002z"/>
		<path d="M77.886,259.653c-0.187-2.409-3.579-2.593-3.962-0.388c-1.363-0.76-3.016-0.774-4.425,0.265
			c-2.192,1.617-2.856,4.718-3.079,7.283c-0.222,2.562,1.07,4.612,3.417,5.552c0.854,0.342,1.839,0.482,2.763,0.374
			c-0.101,0.699-0.219,1.396-0.384,2.093c-0.238,1.014-2.586,3.733-3.144,1.682c-0.498-1.834-3.281-1.885-3.751,0
			c-0.552,2.209,0.772,3.914,2.779,4.754c2.636,1.103,5.449,0.151,7.229-2.01c1.713-2.081,2.051-5.195,2.18-7.793
			C77.705,267.52,78.192,263.607,77.886,259.653z M71.094,268.436c-0.862-0.395-0.7-1.291-0.653-2.13
			c0.057-1.045,0.407-2.268,0.865-3.204c0.617-1.26,1.293-1.453,2.506-0.878c-0.004,0.147-0.011,0.295-0.014,0.442
			c-0.11,1.671-0.312,3.334-0.531,4.996c-0.36,0.073-0.711,0.252-1.014,0.578C71.8,268.729,71.896,268.802,71.094,268.436z"/>
		<path d="M92.479,260.424c-1.312-2.382-3.931-3.326-6.333-2.758c0.053-2.143-0.016-4.292-0.066-6.43
			c-0.063-2.694-3.828-2.578-4.098,0c-0.116,1.105-0.172,2.188-0.122,3.285c-0.11,2.362-0.273,4.718-0.491,7.082
			c-0.284,3.082-0.996,6.025-1.003,9.138c-0.624,2.506,3.907,3.356,4.077,0.315c0.179-3.201,1.041-6.25,1.429-9.415
			c1.347,0.048,2.498,0.163,2.868,1.776c0.463,2.023,0.548,4.509-0.097,6.496c-0.901,2.78,3.443,3.947,4.353,1.199
			C93.986,268.122,94.041,263.26,92.479,260.424z"/>
		<path d="M106.049,262.615c2.185,0.345,3.358-2.242,1.499-3.556c-1.033-0.729-2.313-1.115-3.67-1.301
			c-0.076-2.18-0.241-4.361-0.391-6.522c-0.16-2.312-3.536-2.349-3.617,0c-0.149,2.149-0.276,4.302-0.346,6.456
			c-0.671,0.048-1.318,0.109-1.918,0.171c-1.938,0.196-2.942,2.732-1.041,3.842c0.941,0.549,1.874,0.733,2.853,0.749
			c-0.099,2.054-0.299,4.07-0.034,6.15c0.386,3.027,5.698,7.561,7.75,3.419c0.832-1.679-0.876-3.615-2.621-2.62
			c-1.126,0.642-0.761-5.342-0.649-7.121C104.581,262.383,105.305,262.497,106.049,262.615z"/>
		<path d="M137.762,267.975c2.294,0.639,3.934-2.928,1.659-3.936c-2.173-0.963-4.258-0.915-6.263-0.315
			c-0.203-0.267-0.408-0.532-0.622-0.798c-0.501-0.621-1.006-1.247-1.52-1.865c0.136-0.037,0.268-0.076,0.408-0.112
			c1.546-0.396,3.613-1.146,4.444-2.641c1.94-3.488-0.5-6.697-4.021-7.606c-2.662-0.687-6.055-0.2-8.219,1.543
			c-2.541,2.046-2.484,5.419-0.362,7.717c-2.015,1.547-3.758,3.1-4.596,5.659c-0.625,1.911-0.746,5.689,1.404,6.774
			c3.115,1.572,4.909,1.142,7.779-0.658c1.116-0.7,2.219-1.529,3.356-2.252c0.213,0.412,0.425,0.832,0.642,1.267
			c1.332,2.671,5.959,3.974,7.466,0.769c0.574-1.221-0.665-2.852-1.991-1.99c-0.693,0.449-1.406-0.847-1.819-1.753
			C136.229,267.707,136.976,267.755,137.762,267.975z M126.238,255.975c0.661-1.428,4.051-1.425,5.233-0.902
			c2.067,0.913-2.176,1.889-2.676,2.014c-0.472,0.117-0.93,0.26-1.378,0.424C126.711,256.948,126.069,256.34,126.238,255.975z
			 M128.304,266.122c-0.368,0.239-5.354,3.711-5.45,2.758c-0.245-2.434,1.009-3.735,2.786-5.147c0.327-0.26,0.647-0.489,0.967-0.706
			c0.457,0.608,0.889,1.233,1.416,1.779c0.305,0.317,0.58,0.638,0.843,0.962C128.677,265.884,128.49,266.002,128.304,266.122z"/>
		<path d="M172.343,261.934c-0.119-2.909-0.03-5.953-0.42-8.831c-0.183-1.345-2.134-2.031-3.189-1.297
			c-2.452,1.708-3.997,4.875-5.043,7.601c-0.574,1.496-1.312,2.857-2.014,4.232c-0.466-1.11-0.941-2.217-1.43-3.308
			c-1.305-2.91-3.102-6.534-5.469-8.704c-0.248-0.228-0.551-0.366-0.867-0.428c-1.046-0.798-2.992-0.335-3.024,1.395
			c-0.029,1.536-0.132,3.072-0.247,4.609c-0.394,4.832-1.056,9.717-0.576,14.491c0.006,0.059,0.008,0.118,0.015,0.177
			c0.001,0.014,0.005,0.024,0.007,0.037c0.019,0.169,0.032,0.338,0.053,0.506c0.005,0.039,0.017,0.074,0.025,0.111
			c0.011,2.485,4.041,2.467,4.042-0.111c0.002-3.026-0.076-6.053-0.083-9.079c0.098-1.265,0.175-2.529,0.241-3.794
			c0.45,0.787,0.897,1.564,1.286,2.342c1.477,2.958,2.398,6.173,4.586,8.723c1.121,1.307,3.667,0.304,3.498-1.449
			c-0.239-2.477,1.422-4.924,2.749-6.898c0.44-0.657,0.851-1.465,1.276-2.299c-0.001,0.661,0.008,1.32,0.045,1.975
			c0.187,3.287-0.048,6.646-0.076,9.938c-0.09,1.547,1.143,2.312,2.375,2.292c1.232,0.021,2.464-0.745,2.375-2.292
			C172.448,268.562,172.479,265.241,172.343,261.934z"/>
		<path d="M240.049,264.315c-0.266-1.887-1.138-3.927-3.134-4.535c-1.468-0.448-2.82-0.276-3.968,0.305
			c0.003-0.234,0.008-0.469,0.01-0.703c0.011-1.596-1.646-2.06-2.694-1.433c-0.665,0.227-1.205,0.795-1.221,1.704
			c-0.023,1.268-0.048,2.544-0.078,3.82c-0.136,1.077-0.241,2.156-0.215,3.239c0.005,0.193,0.04,0.367,0.087,0.53
			c-0.012,0.265-0.021,0.529-0.035,0.793c-0.104,1.187-0.193,2.374-0.239,3.563c-0.236,2.654,4.227,2.725,4.175,0
			c-0.04-2.148,0.016-4.297,0.081-6.446c0.257-0.688,0.776-1.24,1.567-1.556c1.312-0.521,1.321,1.183,1.364,1.936
			c0.127,2.196,0.149,4.409,0.263,6.609c0.148,2.875,4.635,2.888,4.48,0C240.513,269.596,240.405,266.843,240.049,264.315z"/>
		<path d="M200.511,269.037c-1.57,0.137-1.858-0.069-1.867-1.696c-0.008-1.366,0.081-2.729,0.064-4.096
			c-0.003-0.255-0.008-0.511-0.012-0.766c0.696-0.046,1.392-0.097,2.086-0.155c2.38-0.201,2.401-3.542,0-3.713
			c-0.715-0.051-1.432-0.067-2.149-0.064c-0.037-2.257-0.067-4.514-0.041-6.768c0.003-0.34-0.057-0.636-0.161-0.892
			c0.003-0.064,0.006-0.13,0.01-0.194c0.116-2.24-3.517-2.761-3.935-0.532c-0.353,1.884-0.484,3.777-0.569,5.69
			c-0.021,0.468,0.089,0.851,0.273,1.166c-0.016,0.505-0.033,1.01-0.05,1.515c-0.689,0.041-1.378,0.093-2.067,0.113
			c-2.701,0.079-2.691,4.328,0,4.188c0.554-0.009,1.105-0.04,1.657-0.083c0.09-0.005,0.18-0.01,0.271-0.014
			c-0.055,2.025-0.077,4.049-0.006,6.063c0.135,3.86,4.946,6.285,7.924,3.686C203.221,271.365,202.244,268.887,200.511,269.037z"/>
		<path d="M209.978,270.522c-0.011-1.96-0.023-3.923-0.041-5.887c0.033-0.116,0.062-0.237,0.076-0.366
			c0.137-1.247,0.212-2.555-0.129-3.769c0-0.011,0-0.022-0.001-0.033c-0.079-2.289-3.405-2.268-3.536,0
			c-0.193,3.354-0.593,6.662-0.635,10.024c-0.115,0.586,0.017,1.072,0.292,1.449c0.391,0.631,1.113,0.909,1.84,0.889
			c0.727,0.021,1.449-0.258,1.839-0.889C209.952,271.571,210.082,271.094,209.978,270.522z"/>
		<path d="M210.475,251.479c-0.449-0.605-0.902-0.965-1.604-1.254c-0.632-0.261-1.337-0.048-1.92,0.211
			c-0.777,0.348-1.367,1.352-1.531,2.146c-0.226,1.089,0.014,2.28,0.865,3.052c0.771,0.698,1.798,0.992,2.722,0.685
			c1.028-0.198,1.726-0.837,2.132-1.858C211.511,253.525,211.035,252.233,210.475,251.479z"/>
		<path d="M188.378,261.282c-0.066-1.767-1.76-2.455-3.054-2.071c-0.634-0.098-1.302-0.104-1.788-0.165
			c-2.006-0.252-3.86-0.612-5.866-0.124c-0.992,0.24-1.51,1.141-1.591,2.089c-0.201,2.374,0.006,4.703,0.306,7.06
			c0.188,1.467,0.403,2.883,1.507,3.963c1.088,1.065,2.617,0.994,3.999,0.766c0.85-0.141,1.672-0.384,2.528-0.511
			c0.579-0.086,1.103-0.24,1.644-0.443c0.049,0.002,0.101,0.004,0.159,0.008c0.79,0.047,1.524-0.465,1.927-1.105
			C189.707,268.266,188.48,264.008,188.378,261.282z M180.789,268.768c-0.022-0.072-0.048-0.159-0.079-0.291
			c-0.186-0.778-0.201-1.633-0.279-2.428c-0.105-1.073-0.141-2.145-0.116-3.217c1.218-0.111,2.451-0.025,3.633-0.171
			c0.074,0.953,0.168,1.905,0.191,2.864c0.017,0.738,0.144,1.529,0.127,2.293c-0.324,0.117-0.65,0.235-0.992,0.311
			C182.626,268.271,181.553,268.736,180.789,268.768z"/>
		<path d="M224.119,258.906c-0.583-0.287-1.196-0.269-1.733-0.067c-1.851-0.833-4.277-0.874-6.126-0.827
			c-0.878,0.022-1.971,0.642-2.106,1.604c-0.315,2.233-0.227,4.44-0.157,6.689c0.052,1.65-0.343,3.465,0.127,5.069
			c0.236,0.806,0.989,1.581,1.804,1.806c0.894,0.246,1.498-0.228,2.306-0.248c1.617-0.04,3.197,0.088,4.763-0.432
			c2.938-0.974,3.002-4.102,3.001-6.698C225.996,263.904,226.201,259.928,224.119,258.906z M221.54,267.879
			c-0.02,0.248-0.044,0.375-0.086,0.574c-0.166,0.016-0.329,0.049-0.488,0.108c-0.794,0.19-1.706,0.121-2.532,0.093
			c0.117-2.113,0.008-4.235-0.012-6.355c0.984,0.008,1.994,0.027,2.937-0.114c0.051,0.207,0.088,0.419,0.113,0.629
			c0.103,0.844,0.13,1.696,0.149,2.545C221.638,266.2,221.606,267.041,221.54,267.879z"/>
	</g>
	<g>
		<path d="M86.671,121.723c-0.044-0.483-0.203-0.876-0.432-1.182c-0.149-1.348,0.253-3.032,0.188-4.251
			c-0.111-2.063-0.327-4.147-0.512-6.206c-0.241-2.667,0.143-6.113-1.794-8.225c-0.678-0.738-2.134-0.81-2.799,0
			c-2.029,2.471-3.411,5.882-4.815,8.744c-0.765,1.561-1.366,3.238-1.932,4.878c-0.023,0.065-0.042,0.134-0.063,0.199
			c-0.274-0.736-0.522-1.477-0.78-2.171c-0.676-1.824-1.696-3.402-2.535-5.147c-0.983-2.043-2.681-7.24-5.8-6.312
			c-0.663,0.196-1.293,0.739-1.443,1.442c-0.576,2.71-0.13,5.825-0.154,8.589c-0.014,1.676-0.05,3.351-0.09,5.025
			c-0.023,0.97-0.244,1.876-0.173,2.85c0.021,0.29,0.076,0.565,0.117,0.838c-0.311,0.458-0.434,1.064-0.214,1.8l0.17,0.571
			c0.531,1.782,3.442,2.543,4.317,0.564c1.169-2.646,0.143-5.84,0.097-8.655c-0.023-1.415-0.044-2.829-0.053-4.244
			c0.892,1.848,1.806,3.61,2.505,5.562c0.607,1.694,2.413,7.276,5.275,5.516c2.01-1.237,1.714-4.46,2.24-6.473
			c0.593-2.271,2.071-4.229,3.441-6.084c0.157-0.212,0.297-0.435,0.432-0.66c0.256,1.932,0.129,3.979,0.238,5.914
			c0.168,2.998-0.581,6.194,0.687,9.004c0.858,1.902,4.144,0.985,3.957-1.071C86.721,122.266,86.696,121.994,86.671,121.723z"/>
		<path d="M118.166,120.887c-0.37-1.104-0.208-2.28-0.143-3.426c0.101-1.785-0.12-3.598-0.228-5.38
			c-0.194-3.201,0.145-7.104-1.075-10.103c-0.865-2.124-3.528-1.053-3.51,0.467c-0.417,1.595-0.107,3.181,0.059,4.838
			c0.073,0.727,0.107,1.453,0.133,2.182c-1.749-0.65-3.637-0.891-5.479-0.486c-1.015,0.223-1.571,1.195-1.641,2.154
			c-0.132,1.84-0.169,3.598,0.065,5.431c0.257,2.016,0.973,3.943,1.117,5.974c0.082,1.157,0.911,2.146,2.139,2.139
			c1.945-0.012,4.062-0.48,5.854-1.321C116.909,123.816,118.757,122.772,118.166,120.887z M113.519,113.351
			c0.062,1.993-0.177,4.293,0.05,6.39c-0.686,0.189-1.364,0.471-2.041,0.633c-0.374-2.398-1.088-4.723-1.008-7.166
			C111.541,113.233,112.521,113.399,113.519,113.351z"/>
		<path d="M132.724,115.478c-0.045-1.437-0.537-2.702-0.24-4.146c0.341-1.655-1.661-3.068-2.953-1.72
			c-1.168,1.219-1.082,2.776-0.865,4.359c0.249,1.816,0.385,3.807,0.22,5.68c-0.577,0.114-1.149,0.212-1.827,0.206
			c-0.412-0.009-0.824-0.008-1.236,0.005c-0.189,0.009-0.379,0.018-0.568,0.026c-0.624,0.063-0.689,0.039-0.199-0.073
			c-0.155-2.805-0.007-5.604-0.032-8.411c0.308-2.659-4.169-2.776-4.236,0c-0.054,2.247-0.177,4.491-0.195,6.739
			c-0.014,1.808-0.062,3.918,1.392,5.224c2.244,2.015,6.811,0.512,9.359,0.131c0.941-0.141,1.53-1.188,1.559-2.047
			C132.971,119.457,132.786,117.469,132.724,115.478z"/>
		<path d="M140.234,108.418c-0.004-1.629-0.008-3.258-0.012-4.888c0.002-0.791-0.358-1.345-0.863-1.677
			c-0.164-0.307-0.358-0.601-0.597-0.876c-0.763-0.879-2.241-0.161-2.23,0.924c0,0.079-0.005,0.155-0.005,0.234
			c-0.319,0.335-0.53,0.795-0.528,1.395c-0.003,1.63-0.008,3.259-0.011,4.888c0,0.089,0.016,0.167,0.025,0.25
			c0.011,4.442,0.025,8.884,0.064,13.326c0.023,2.623,4.046,2.623,4.068,0c0.038-4.355,0.052-8.711,0.063-13.066
			C140.235,108.77,140.247,108.601,140.234,108.418z"/>
		<path d="M153.854,122.271c-0.78-0.64-1.718-0.964-1.735-2.177c-0.018-1.204,0.09-2.426,0.111-3.632
			c0.032-1.875-0.436-3.962-1.647-5.442c-1.66-2.029-5.984-3.471-7.507-0.476c-0.52,1.023,0.542,2.2,1.597,1.598
			c2.397-1.369,3.492,0.064,3.984,2.06c-1.302-0.371-2.771-0.356-4.011-0.008c-2.123,0.596-3.183,2.908-2.905,4.967
			c0.515,3.812,5.197,5.256,8.376,3.93c0.458,0.528,1.075,1.018,1.884,1.582C153.42,125.662,155.197,123.369,153.854,122.271z
			 M148.961,120.04c-1.398,0.882-3.521,0.126-3.869-1.546c-0.197-0.951,0.686-1.252,1.417-1.289
			c0.859-0.043,1.699,0.028,2.511-0.134c0.038,0.881,0.024,1.677,0.013,2.207c-0.005,0.257-0.001,0.494,0.008,0.722
			C149.015,120.016,148.989,120.023,148.961,120.04z"/>
		<path d="M167.316,111.138l-0.028-0.119c-0.167-0.688-0.766-0.985-1.404-1.068c-2.238-0.293-3.485,0.731-5.189,2.021
			c-0.105,0.08-0.212,0.163-0.318,0.248c-0.01-0.452-0.024-0.905-0.047-1.357c0.155-2.387-3.568-2.379-3.709,0
			c-0.23,3.879-0.366,7.79-0.42,11.676c0.01-0.001,0.019-0.003,0.028-0.004c0.058,2.453,3.99,2.681,3.978,0.004
			c-0.008-1.695,0.051-3.396,0.104-5.097c1.062-2.268,3.51-4.22,5.959-4.631c0.473-0.08,0.91-0.566,1.018-1.017
			C167.341,111.567,167.372,111.369,167.316,111.138z"/>
		<path d="M181.695,103.53c-0.089-2.624-4.137-2.639-4.083,0c-0.001,0.231,0.009,0.461,0.011,0.691
			c-0.068,0.253-0.069,0.527,0.013,0.813c0.008,0.344,0.014,0.688,0.027,1.032c0.009,0.421,0.017,0.843,0.026,1.265
			c-0.02,0.254,0.014,0.476,0.072,0.679c0.09,1.444,0.206,2.887,0.302,4.333c0.215,3.214,0.015,6.439,0.223,9.65
			c0.001,0,0.003-0.001,0.004-0.001c-0.037,2.579,4.165,2.98,4.359,0.001C183.054,115.765,181.905,109.725,181.695,103.53z"/>
		<path d="M197.111,94.593c-0.108,0.186-0.194,0.374-0.287,0.562c-1.501,1.553-2.292,3.712-2.919,5.745
			c-0.97,3.146-2.209,6.146-3.337,9.239c-1.219,3.341-2.25,6.741-3.419,10.1c-0.958,2.751-2.675,5.637-2.918,8.544
			c-0.25,3.002,3.935,3.072,4.875,0.659c2.208-5.668,4.111-11.426,5.979-17.213c0.867-2.688,1.91-5.324,2.882-7.977
			c0.975-2.657,2.421-5.25,2.998-8.035C201.437,93.931,198.354,92.45,197.111,94.593z"/>
		<path d="M218.854,112.395c0.394-1.271,0.655-2.574,0.561-4.057c-0.159-2.488-1.448-4.613-3.284-6.062
			c-0.672-0.626-1.473-1.14-2.419-1.501c-0.634-0.241-1.294-0.366-1.961-0.41c-0.941-0.141-1.908-0.136-2.862,0.046
			c-1.645,0.313-3.035,1.212-4.134,2.426c-0.854,0.681-1.597,1.455-2.166,2.267c-2.715,3.867-2.561,10.01-0.826,14.208
			c1.854,4.484,7.185,7.121,11.383,3.812c0.697-0.55,1.288-1.163,1.809-1.821c1.985-2.166,3.231-5.592,3.714-7.845
			C218.742,113.11,218.802,112.754,218.854,112.395z M204.956,115.707c-1.16-4.594,1.022-11.975,7.043-10.75
			c0.351,0.071,0.65,0.214,0.91,0.406c0.024,0.018,0.048,0.034,0.072,0.053c1.852,1.483,1.425,5.797,1.035,7.602
			c-0.501,2.318-1.879,5.26-4.242,6.129c-0.687,0.253-1.118,0.689-1.333,1.186C206.748,119.845,205.414,117.521,204.956,115.707z"/>
		<path d="M102.257,110.885c-0.19-1.374-1.539-1.666-2.581-1.209c-2.479-0.89-6.266-1.799-8.079,0.015
			c-1.6,1.6-0.99,4.831-1.149,6.89c-0.175,2.264-0.632,5.217,1.176,6.973c1.031,1,2.501,0.888,3.799,0.709
			c0.856-0.118,1.628-0.437,2.504-0.459c1.079-0.027,2.176,0.044,3.258,0.039c1.212-0.005,2.044-0.963,2.12-2.119
			C103.541,118.101,102.751,114.451,102.257,110.885z M94.986,120.273c-0.326-0.047-0.533-0.032-0.626,0.038
			c-0.039-0.26-0.045-0.527-0.057-0.783c-0.037-0.83,0.037-1.669,0.094-2.497c0.095-1.383,0.015-2.791,0.209-4.164
			c0.565,0.007,1.133,0.123,1.692,0.194c0.755,0.097,1.506,0.183,2.259,0.229c0.134,0.966,0.316,1.929,0.339,2.912
			c0.028,1.17,0.159,2.309,0.208,3.456C97.728,119.741,96.41,119.927,94.986,120.273z"/>
	</g>
</g>
<g id="Signals">
	<path fill="#A7A9AC" d="M186.438,77.935c-0.537-0.939-1.042-1.517-2.124-1.787c-2.113-0.528-3.38,1.565-2.948,3.155
		c-0.765,1.247-1.458,2.526-2.109,3.828c0.128-4.898-0.43-9.733-2.467-14.543c-2.993-7.065-10.634-14.983-18.541-15.842
		c-22.14-2.404-29.639,27.377-50.466,28.59c-8.191,0.477-6.411-7.906-5.444-13.077c0.851-4.551,1.575-9.222,0.879-13.847
		c-1.189-7.913-4.431-14.845-12.95-16.258c-7.05-1.17-15.201,1.214-21.752,3.678c-6.428,2.418-12.966,7.196-12.955,14.667
		c0.003,1.907,2.65,1.783,2.875,0c1.044-8.277,10.642-11.101,17.521-12.556c6.583-1.392,15.882-3.33,20.102,3.479
		c5.235,8.448,0.734,18.842,0.063,27.742c-0.436,5.779,4.409,11.088,10.209,11.197c17.845,0.335,26.241-17.208,39.588-25.647
		c3.923-2.48,8.44-3.853,13.051-2.896c4.897,1.016,9.054,5.987,11.766,9.907c3.6,5.204,4.088,11.292,3.642,17.37
		c-0.843-1.541-1.734-3.056-2.668-4.542c-0.629-1-1.568-3.017-2.88-3.196c-1.125-0.153-2.451,0.462-2.374,1.808
		c0.063,1.109,0.814,1.747,1.444,2.578c0.14,0.184,0.269,0.376,0.405,0.563c1.146,2.597,2.154,5.261,2.608,8.063
		c0.352,2.172,0.719,4.716,2.498,6.217c0.904,0.763,1.991,0.752,2.772,0.256c0.766-0.132,1.478-0.657,1.831-1.695
		c0.792-2.331,2.353-4.112,3.754-6.084c1.867-2.627,2.812-5.96,4.667-8.667C186.924,79.686,186.848,78.652,186.438,77.935z"/>
	<path fill="#A7A9AC" d="M220.34,149.84c-1.713,1.816-3.175,3.713-4.583,5.773c-0.981,1.436-1.89,2.925-2.83,4.388
		c-0.08,0.125-0.218,0.383-0.39,0.706c-0.161-3.479,0.022-6.979-0.468-10.462c-0.921-6.555-1.456-13.16-2.102-19.745
		c-0.122-1.241-1.83-1.253-1.938,0c-0.527,6.148-0.374,12.301-0.167,18.461c0.134,3.971-0.292,8.142,0.055,12.161
		c-1.91-2.816-3.832-5.603-4.685-9.054c-0.432-1.748-3.385-1.415-3.192,0.432c0.562,5.376,5.44,9.555,8.88,13.743
		c0.017,0.05,0.029,0.101,0.046,0.15c0.206,0.6,0.582,1.017,1.042,1.259c0.129,0.179,0.263,0.356,0.384,0.536
		c0.394,0.582,1.442,0.275,1.311-0.408c0.12-0.037,0.24-0.073,0.36-0.127c1.837-0.839,2.519-2.365,3.331-4.143
		c1.759-3.848,4.768-7.937,7.597-11.018C224.622,150.716,222.005,148.074,220.34,149.84z"/>
	<path fill="#A7A9AC" d="M31.642,249.734c-3.562-5.618-9.681-9.705-15.203-13.224c-1.516-0.966-3.005,1.163-1.855,2.405
		c4.344,4.697,10.708,6.971,14.441,12.349C30.124,252.848,32.701,251.404,31.642,249.734z"/>
	<path fill="#A7A9AC" d="M32.783,258.988c-4.748,3.027-10.62,2.987-15.428,5.838c-2.18,1.292-0.273,4.397,1.956,3.346
		c4.985-2.352,10.637-2.992,15.238-6.162C36.385,260.745,34.706,257.762,32.783,258.988z"/>
	<path fill="#A7A9AC" d="M31.261,274.094c-1.922,2.461-4.99,4.267-7.385,6.23c-1.77,1.451-5.667,4.182-3.47,6.768
		c0.75,0.882,2.512,0.561,2.897-0.539c0.143-0.173,0.272-0.361,0.39-0.547c0.19-0.297,0.564-0.659,0.832-0.958
		c1.052-1.171,2.218-2.244,3.364-3.321c1.933-1.815,4.272-3.565,5.752-5.797C34.585,274.508,32.324,272.733,31.261,274.094z"/>
	<path fill="#A7A9AC" d="M40.593,285.481c-1.604,2.69-3.309,5.317-5.043,7.925c-1.484,2.232-3.77,4.623-4.479,7.229
		c-0.572,2.102,1.858,3.105,3.343,1.945c2.088-1.631,3.442-4.783,4.842-7.007c1.667-2.648,3.29-5.326,4.817-8.057
		C45.344,285.245,41.924,283.25,40.593,285.481z"/>
	<path fill="#A7A9AC" d="M60.506,287.417c-0.586-1.931-3.467-1.132-3.014,0.831c0.998,4.317-2.15,8.947-3.202,13.021
		c-0.392,1.517,1.028,3.095,2.605,2.605c1.097-0.341,1.766-1.066,1.987-2.188c0.094-0.479,0.013-0.918-0.172-1.294
		C59.64,296.084,61.858,291.875,60.506,287.417z"/>
	<path fill="#A7A9AC" d="M79.18,306.985c-1.514-1.665-0.345-6.532-0.439-8.652c-0.152-3.426-0.414-6.827-1.142-10.183
		c-0.311-1.429-2.767-1.127-2.578,0.349c0.567,4.441,0.572,9.188-0.116,13.616c-0.415,2.662-1.022,5.914,1.248,7.897
		C78.226,311.823,81.048,309.04,79.18,306.985z"/>
	<path fill="#A7A9AC" d="M102.442,297.918c-2.073-5.1-4.319-10.126-6.392-15.226c-0.843-2.074-4.208-1.259-3.436,0.947
		c1.811,5.168,3.798,10.273,5.608,15.441C99.162,301.76,103.49,300.496,102.442,297.918z"/>
	<path fill="#A7A9AC" d="M278.094,264.5c-0.059-0.845-0.586-1.336-1.195-1.486c-1.292-2.94-2.62-5.895-2.875-9.098
		c-0.176-2.212-0.525-4.365-2.586-5.52c-1.007-0.564-2.056-0.12-2.57,0.788c-0.145,0.065-0.286,0.15-0.419,0.264
		c-1.852,1.583-3.199,3.616-4.984,5.269c-1.802,1.669-4.268,3.41-5.516,5.599c-0.104,0.106-0.207,0.212-0.312,0.32
		c-1.726,1.794,1.042,4.554,2.727,2.727c0.172-0.166,0.339-0.326,0.507-0.493c0.144-0.144,0.249-0.296,0.336-0.45
		c0.7-0.776,1.391-1.56,2.083-2.343c0.94-0.711,1.834-1.475,2.669-2.303c-1.095,3.622-2.129,7.271-3.348,10.835
		c-2.803,8.201-7.614,13.824-15.794,16.84c-5.876,2.167-11.751,3.303-17.837,4.179c-1.53-2.827-3.98-5.301-6.959-6.873
		c-4.29-2.263-9.604-1.16-14.014,0.053c-5.891,1.62-11.521,3.777-16.6,7.184c-5.237,3.513-10.209,8.193-16.755,8.909
		c-0.529,0.058-1.084,0.075-1.647,0.057c0.971-0.577,1.896-1.249,2.756-2.041c2.243-2.067,4.593-8.079,1.322-10.267
		c-3.108-2.079-8.036-1.691-11.167,0.218c-2.819,1.718-4.656,7.053-2.995,10.057c0.104,0.188,0.214,0.36,0.323,0.537
		c-2.773,0.157-5.612-0.099-8.052-0.351c-7.279-0.752-14.536-3.344-21.087-6.497c-5.804-2.794-10.998-6.833-16.269-10.476
		c-2.952-2.04-8.164-3.205-10.371,0.7c-3.077,5.444,1.811,15.783,8.091,16.779c1.356,0.215,2.742-1.092,1.895-2.465
		c-0.195-0.316-0.391-0.633-0.586-0.95c-0.373-0.604-1.042-0.791-1.654-0.688c-2.578-2.425-6.12-8.938-3.599-10.618
		c2.312-1.541,7.439,3.321,9.057,4.499c3.144,2.289,6.503,4.281,9.869,6.22c9.841,5.669,22.189,8.902,33.561,7.998
		c0.984-0.078,1.953-0.218,2.903-0.408c6.001,3.477,14.751,0.25,20.394-3.355c5.404-3.453,9.912-7.016,16.039-9.197
		c6.938-2.469,14.447-5.459,20.477,0.47c0.347,0.341,0.676,0.721,0.981,1.128c-3.858,0.908-7.555,3.715-9.48,7.039
		c-1.501,2.592-1.146,7.322,1.55,9.086c3.184,2.083,6.938,0.561,9.625-1.719c3.905-3.314,4.789-7.737,3.673-11.863
		c3.315-0.215,6.431-0.976,9.685-1.753c5.563-1.33,11.116-3.123,15.917-6.289c4.812-3.174,7.531-8.435,9.643-13.62
		c2.08-5.104,3.412-10.476,5.078-15.72c0.031,0.62,0.061,1.186,0.146,1.575c0.768,3.537,2.699,7.159,4.279,10.385
		c0.75,1.53,3.346,0.82,3.229-0.875C278.186,265.833,278.14,265.167,278.094,264.5z M171.337,295.018
		c-1.168,0.851-2.512,1.427-3.945,1.813c-0.918-0.987-1.413-2.346-1.129-4.163c0.418-2.669,2.721-3.193,4.985-3.198
		C175.48,289.46,173.331,293.566,171.337,295.018z M225.55,300.583c-0.864,1.001-1.944,1.77-3.044,2.482
		c-3.912,2.535-5.697-3.095-3.407-6.03c1.745-2.237,4.56-3.374,7.36-3.874C227.369,295.686,227.332,298.519,225.55,300.583z"/>
	<path fill="#A7A9AC" d="M196.919,228.744c0-1.508-1.026-2.32-2.284-2.867c0.455-0.26,0.885-0.568,1.267-0.974
		c0.3-0.319,0.476-0.808,0.328-1.242c-0.353-1.04-0.949-1.68-1.691-2.16c0.744-0.479,1.341-1.12,1.695-2.161
		c0.605-1.779-1.505-2.48-2.824-3.292c1.753-2.003-1.099-3.436-3.235-4.855c0.969-0.549,1.886-1.151,2.83-1.83
		c0.562-0.403,0.729-1.361,0-1.727c-2.663-1.336-5.554,0.016-8.374-0.611c-0.635-0.141-0.837,0.714-0.262,0.949
		c1.799,0.736,4.033,0.237,5.927,0.643c-0.848,0.457-1.712,0.882-2.609,1.245c-0.828,0.329-1.164,1.27-0.521,1.972
		c0.423,0.462,4.091,2.826,3.695,3.073c-0.56,0.348-0.845,1.146-0.455,1.732c1.007,1.512,3.859,2.349,0.753,3.629
		c-1.209,0.499-1.21,1.967,0,2.465c2.084,0.857,0.845,1.495-0.499,2.039c-1.185,0.48-1.231,1.993,0,2.458
		c0.162,0.061,3.27,1.397,2.81,1.572c-0.925,0.352-1.778,0.565-2.613,1.099c-0.573,0.366-0.833,1.135-0.457,1.742
		c1.128,1.824,2.593,1.75,0.457,2.758c-0.474,0.224-0.775,0.946-0.585,1.438c0.427,1.106,2.302,2.936,1.328,3.761
		c-0.432,0.366-0.47,1.08-0.199,1.543c-0.226-0.387-0.55-0.157-0.852,0.293c-0.339,0.117-0.618,0.363-0.671,0.755
		c-0.06,0.442-0.134,0.865-0.138,1.31c-0.013,1.653,2.367,1.587,2.521,0c0.359-0.091,0.719-0.181,1.078-0.272
		c0.519-0.081,0.978-0.716,0.935-1.228c-0.141-1.692,0.22-1.008,0.656-2.59c0.156-0.566-1.175-3.571-1.552-3.393
		c2.86-1.349,1.412-2.907,0.097-4.494C195.003,230.989,196.919,230.425,196.919,228.744z"/>
	<path fill="#A7A9AC" d="M211.942,227.113c-1.682-1.699-0.887-1.569-0.887-3.576c0-1.264-1.237-2.263-2.268-3.12
		c1.119-1.175,2.188-2.337,2.103-4.071c-0.03-0.605-0.448-1.326-0.898-1.697c-1.922-1.586-2.2-1.434-1.236-3.707
		c0.229-0.54,0.059-1.082-0.523-1.285c-2.091-0.732-4.036-0.681-6.232-0.516c-0.465,0.035-0.461,0.678,0,0.719
		c1.121,0.099,5.515,0.108,3.74,2.068c-0.286,0.316-0.396,0.782-0.396,1.203c0,0.518,0.4,1.007,0.746,1.353
		c2.798,2.799,1.74,3.199,0.023,5.13c-0.466,0.525-0.487,1.252,0,1.774c0.699,0.749,2.752,1.856,1.483,3.209
		c-0.388,0.415-0.506,1.048-0.2,1.549c1.331,2.174,2.635,2.792-0.032,4.768c-0.757,0.561-0.859,1.632,0,2.174
		c2.133,1.347-0.238,1.046-0.958,2.274c-1,1.708,1.087,4.227-0.545,5.517c-0.407,0.105-0.727,0.305-1.263,0.722
		c-0.998,0.776,0.081,2.571,1.239,2.128c0.423-0.162,0.798-0.313,1.14-0.48c0.007-0.002,0.015-0.004,0.022-0.006
		c0.52-0.052,0.87-0.353,1.051-0.726c0.311-0.307,0.578-0.69,0.805-1.211c0.415-0.949-0.55-4.526,0.219-4.822
		c2.774-1.069,2.478-2.88,1.041-4.376C211.971,230.888,214.055,229.247,211.942,227.113z"/>
	<path fill="#A7A9AC" d="M225.888,221.93c0.886-1.193,0.851-2.711,0.325-3.969c-0.269-0.641-0.652-0.884-1.199-1.412
		c-0.169-0.163,1.396-2.442,1.555-2.773c1.2-2.503-0.726-3.357-2.61-3.884c0.459-0.59,0.843-1.199,1.195-2.01
		c0.188-0.434,0.064-0.979-0.452-1.111c-2.468-0.633-4.854,0.499-7.284,0.928c-0.353,0.062-0.263,0.62,0.083,0.614
		c1.16-0.019,7.735-1.573,3.95,1.247c-0.781,0.582-0.664,1.637,0.26,1.991c2.724,1.042,1.59,2.452,0.169,4.294
		c-0.34,0.44-0.185,1.218,0.203,1.573c2.565,2.349,0.59,3.007,0.59,5.582c0,1.571,1.836,1.72,0.697,3.861
		c-0.542,1.018-1.06,2.011-0.386,3.161c1.152,1.966-1.054,3.351-2.421,4.54c-0.542,0.472-0.489,1.395,0,1.876
		c-0.345,0.76-0.917,1.241-1.717,1.442c-0.787,0.376-0.789,1.466-0.263,2.038c0.348,0.377-0.447,0.955-1.189,1.387
		c-0.756-0.186-1.734,0.269-1.659,1.195c0.004,0.055,0.008,0.101,0.012,0.152c-0.065,0.272-0.041,0.559,0.073,0.821
		c0.073,0.549,0.227,0.941,0.767,1.477c0.494,0.49,1.376,0.531,1.864,0c0.16-0.173,0.319-0.347,0.479-0.521
		c0.294-0.32,0.447-0.834,0.35-1.278c1.531-0.995,2.663-2.103,2.045-3.678c1.467-0.951,2.497-2.275,1.917-3.737
		c2.318-2.043,2.938-2.965,2.409-6.442c-0.197-1.293,0.807-1.627,1.177-2.973C227.143,225.176,225.365,222.633,225.888,221.93z"/>
	<path fill="#A7A9AC" d="M242.842,230.206c0.133-1.824-0.894-2.482-2.161-3.128c1.717-2.161,2.431-4.042-0.371-5.685
		c0.881-1.508,2.013-2.741,1.462-4.744c-0.406-1.476-1.797-2.504-3.148-3.343c0.933-0.881,1.558-1.751,1.581-3.306
		c0.024-1.585-1.405-2.287-2.567-3.081c0.667-0.807,0.802-1.573,0.631-2.919c-0.069-0.54-0.436-0.814-0.973-0.741
		c-1.6,0.217-3.188,0.532-4.796,0.694c-0.687,0.069-0.717,1.115,0,1.094c0.608-0.018,6.126-0.801,2.947,1.008
		c-0.646,0.368-0.675,1.197-0.221,1.719c1.364,1.572,2.613,2.953,0.377,4.83c-0.658,0.552-0.376,1.578,0.256,1.991
		c2.859,1.871,2.586,4.144,1.461,6.716c-0.272,0.623-0.243,1.536,0.49,1.868c1.857,0.84,0.637,2.277-0.298,3.334
		c-0.597,0.675-0.523,1.707,0.282,2.192c1.726,1.039,2.966,1.401-0.164,1.959c-1.051,0.187-1.301,1.632-0.611,2.315
		c1.552,1.537,0.764,2.046-0.484,3.557c-0.369,0.446-0.586,1.122-0.213,1.651c1.282,1.821,0.481,3.309-0.491,5.13
		c-0.288,0.539-0.231,1.198,0.211,1.639c0.225,0.224,0.1,0.51-0.2,0.804c-0.156,0.019-0.313,0.073-0.467,0.174
		c-0.831,0.548-1.702,0.921-2.555,1.405c-1.378,0.782-0.415,2.755,1.036,2.457c2.45-0.504,5.971-3.325,4.726-5.873
		c1.43-2.592,2.144-3.769,0.604-6.323c1.781-2.116,2.521-3.07,1.267-4.879C241.648,232.207,242.755,231.388,242.842,230.206z"/>
	<path fill="#A7A9AC" d="M257.786,215.646c-0.174-0.633-0.681-1.298-1.216-1.686c-1.841-1.336-0.647-2.09-0.311-3.612
		c0.165-0.748-0.294-1.52-1.055-1.631c0.084-0.465-0.105-0.886-0.437-1.152c0.017-0.03,0.032-0.056,0.049-0.087
		c0.342-0.645-0.085-1.395-0.816-1.422c-1.353-0.051-2.658,0.049-4-0.117c-0.65-0.081-0.734,0.93-0.149,1.105
		c0.629,0.188,1.203,0.296,1.78,0.402c-1.045,0.224-0.914,1.894,0.071,2.136c0.223,0.055,0.395,0.097,0.548,0.133
		c-0.198,0.676,0.294,1.338,0.927,1.521c-0.393,0.903-0.667,1.526-0.136,3.01c0.231,0.648,0.812,1.01,1.351,1.404
		c1.662,1.217-2.098,3.711-2.845,4.398c-0.346,0.318-0.477,0.867-0.347,1.312c0.154,0.529,0.279,1.47,0.896,1.752
		c1.43,0.654-0.677,2.338-1.275,3.2c-0.385,0.555-0.161,1.593,0.49,1.868c1.586,0.67,1.307,0.14,0.345,1.502
		c-0.498,0.706-0.513,1.503-0.531,2.319c-0.014,0.638,0.497,1.293,0.918,1.714c1.087,1.087-0.882,2.515-1.514,3.315
		c-0.534,0.676-0.56,1.68,0.278,2.156c1.417,0.805-0.467,2.934-0.854,4.271c-0.356,1.232,1.806,2.678,0.431,3.633
		c-2.721,1.891-0.319,4.277-2.329,5.965c-1.165,0.979,0.36,2.929,1.619,2.098c1.258-0.83,3.121-2.196,2.622-4.011
		c-0.37-1.345-1.417-1.139,0.281-2.309c0.579-0.398,1.247-1.083,1.271-1.834c0.087-2.767-1.676-2.895,0.142-5.646
		c0.969-1.467,0.493-2.67-0.498-3.599c1.494-1.804,3.406-4.523,0.827-5.879c-0.902-0.474,1.195-2.67,1.007-3.658
		c-0.155-0.817-0.593-1.315-1.163-1.688c0.83-0.912,1.689-1.929,1.417-3.154c-0.125-0.565-0.188-1.724-0.897-2.044
		c-0.962-0.435,0.711-0.81,1.359-1.641C257.028,218.426,258.289,217.474,257.786,215.646z"/>
	<path fill="#A7A9AC" d="M94.625,205.359c-1.321,0.779-2.79,1.045-4.111,1.81c-0.198,0.115-0.321,0.268-0.394,0.434
		c-0.309,0.096-0.619,0.188-0.927,0.286c-0.837,0.261-1.006,1.122-0.625,1.718c-0.903,0.237-1.819,0.445-2.691,0.83
		c-0.732,0.323-0.748,1.258-0.322,1.826c-0.413-0.115-0.875,0.057-1.39,0.526c-0.831,0.273-1.318,1.452-0.555,2.102
		c-0.125-0.107,2.07,1.738,2.041,1.762c-0.506,0.412-1.108,0.858-1.294,1.534c-0.276,1.005,0.591,1.95,1.395,2.732
		c-0.811,0.794-1.278,1.748-0.55,2.991c0.424,0.724,1.434,0.705,0.524,1.63c-0.719,0.732-1.312,1.502-0.999,2.639
		c0.139,0.504,0.532,1.319,0.903,1.693c0.706,0.712-0.547-0.213-1.01,0.249c-0.286,0.286-0.434,0.718-0.636,1.062
		c-1.331,2.271,1.667,2.812,0.097,4.398c-0.569,0.575-0.487,1.648,0.263,2.042c2.926,1.533,2.866,5.162,6.299,5.673
		c1.667,0.248,2.436-2.157,0.715-2.592c-1.061-0.268-1.86-2.614-2.466-3.47c-0.403-0.569-1.071-0.927-1.758-1.226
		c0.58-0.843,0.835-1.756,0.182-2.871c-0.466-0.796-1.195-0.453-1.027-0.844c0.326-0.758,1.354-1.378,1.777-2.171
		c0.261-0.491,0.212-1.094-0.193-1.496c-1.619-1.603,0.636-1.414,1.05-2.923c0.497-1.805-2.078-2.781-0.827-3.684
		c0.646-0.466,0.768-1.241,0.239-1.856c-1.383-1.61-0.754-1.679,0.214-3.051c0.299-0.423,0.19-1.135-0.19-1.473
		c-0.447-0.398-0.905-0.779-1.362-1.16c0.277-0.094,0.556-0.188,0.833-0.282c0.508-0.172,0.941-0.626,0.913-1.198
		c-0.018-0.363-0.051-0.685-0.111-0.972c1.369-0.39,2.703-0.608,3.976-1.489c0.585-0.405,0.689-1.12,0.412-1.634
		c0.402-0.275,0.566-0.773,0.486-1.212c0.637-0.31,1.274-0.622,1.869-1.052C96.134,206.091,95.466,204.863,94.625,205.359z"/>
	<path fill="#A7A9AC" d="M76.63,204.631c-0.298-0.46-0.409-0.691-0.948-0.794c-0.864-0.166-1.22,1.061-0.365,1.326
		c-1.745-0.542-4.185,0.468-6.111,0.772c-0.923,0.146-0.97,1.164-0.49,1.752c-0.136,0.635,0.176,1.362,0.924,1.617
		c0.269,0.091,0.554,0.165,0.841,0.239c-0.724,0.249-1.474,0.421-2.343,0.646c-1.39,0.36-1.183,2.172-0.027,2.578
		c-1.086,0.876-2.511,1.517-3.509,2.335c-0.606,0.497-0.44,1.661,0.257,1.994c2.338,1.119-1.011,1.66-1.07,3.404
		c-0.082,2.42,2.289,2.687,0.65,5.38c-0.333,0.547-0.149,1.382,0.441,1.681c1.458,0.74,2.508,1.406,0.717,3.036
		c-0.478,0.435-0.522,1.38,0,1.807c1.181,0.963,2.258,1.292,1.277,2.938c-0.43,0.721-0.031,1.7,0.78,1.916
		c0.733,1.024,1.467,2.048,2.201,3.072c-0.287,0.5-0.233,1.207,0.207,1.608c0.724,0.507,1.21,1.198,1.462,2.068
		c-0.067,0.096-0.133,0.193-0.204,0.303c-0.827,1.291,1.188,2.891,2.147,1.657c0.114-0.146,0.216-0.276,0.311-0.396
		c0.258-0.182,0.417-0.425,0.483-0.692c0.234-0.421,0.3-0.834,0.215-1.646c-0.085-0.817-1.869-2.388-1.656-2.77
		c1.37-2.456-0.858-4.26-2.969-5.188c0.882-2.004,0.178-2.657-1.425-3.886c0.941-1.029,1.685-2.252,1.281-3.72
		c-0.34-1.237-1.35-1.51-2.383-1.805c0.585-1.004,1.12-2.161,0.838-3.183c-0.129-0.471-1.694-2.058-1.804-1.926
		c1.866-2.244,2.965-3.396,1.468-4.749c1.5-0.874,2.981-1.653,3.832-3.328c0.111-0.218,0.168-0.482,0.163-0.743
		c0.806-0.307,1.581-0.694,2.364-1.264c0.68-0.496,0.958-1.479,0.274-2.128c-0.157-0.149-0.317-0.28-0.479-0.399
		c0.663-0.332,0.879-1.105,0.647-1.695c0.584-0.249,1.164-0.517,1.742-0.818C76.709,205.453,76.839,204.954,76.63,204.631z"/>
	<path fill="#A7A9AC" d="M56.636,241.911c-0.6-0.38-1.174-0.652-1.763-0.889c0.065-0.115,0.134-0.243,0.208-0.391
		c0.237-0.472,0.25-1.144-0.196-1.517c-0.467-0.391-2.515-1.883-2.055-2.584c0.292-0.446,0.369-1.342,0.236-1.826
		c-0.406-1.475-2.059-2.292-3.579-2.973c0.589-0.4,1.144-0.804,1.666-1.558c0.433-0.625,0.089-1.447-0.479-1.827
		c-0.546-0.365-1.203-0.641-1.801-0.986c1.093-0.491,2.081-0.97,3.065-1.923c0.54-0.522,0.477-1.346,0-1.876
		c-0.218-0.243-0.437-0.444-0.661-0.62c0.752-0.41,1.48-0.849,2.158-1.507c0.617-0.598,0.433-1.514-0.15-1.973
		c0.328-0.343,0.624-0.755,0.877-1.283c0.438-0.913-0.084-2.006-1.163-2.026c-0.274,0.014-0.547,0.013-0.818-0.001
		c0.254-0.236,0.504-0.476,0.77-0.701c0.748-0.672,0.361-2.017-0.593-2.249c-0.014-0.003-0.027-0.006-0.041-0.01
		c0.206-0.253,0.392-0.522,0.607-0.769c0.546-0.65,0.497-1.582-0.265-2.053c-0.545-0.337-1.066-0.575-1.592-0.781
		c0.257-0.222,0.509-0.469,0.762-0.76c0.346-0.398,0.375-1.063,0.12-1.521c1.296-0.345,2.62-0.61,4.05-0.739
		c0.72-0.065,0.745-1.166,0-1.141c-3.189,0.109-6.167,0.864-9.254,1.649c-0.898,0.229-0.93,1.633,0,1.843
		c0.165,0.037,0.313,0.055,0.471,0.083c-0.845,0.544-0.466,1.96,0.446,2.215c0.749,0.161,1.472,0.394,2.174,0.683
		c-0.374,0.414-0.712,0.851-0.986,1.426c-0.313,0.656-0.15,1.471,0.476,1.825c-0.344,0.357-0.677,0.73-0.998,1.163
		c-0.542,0.732,0.047,1.755,0.81,1.991c0.154,0.048,0.302,0.079,0.453,0.119c-0.472,0.108-0.964,0.182-1.447,0.289
		c-1.3,0.288-1.25,2.253,0,2.571c0.158,0.04,0.307,0.067,0.461,0.102c-0.291,0.167-0.561,0.328-0.774,0.469
		c-1.016,0.673-0.749,1.996,0.316,2.419c0.133,0.081,0.267,0.162,0.4,0.243c-0.936,0.49-2.037,0.989-2.72,1.332
		c-0.612,0.307-0.875,1.253-0.478,1.821c0.729,1.045,1.56,1.555,2.498,2.092c-0.599,0.424-1.259,0.785-1.78,1.304
		c-0.597,0.596-0.472,1.649,0.267,2.07c0.991,0.565,4.671,1.489,3.564,3.218c-0.245,0.383-0.219,0.901,0,1.287
		c0.162,0.284,2.123,2.675,1.97,2.777c-0.923,0.615-0.746,1.925,0.298,2.285c0.562,0.168,1.11,0.369,1.645,0.601
		c0.111,0.517,0.504,0.962,1.188,0.959c0.333-0.001,0.667-0.003,1-0.005C57.283,244.255,57.684,242.574,56.636,241.911z"/>
	<path fill="#A7A9AC" d="M37.141,204.886c-1.226,0.594-2.397,0.765-3.568,0.714c-0.087-0.052-0.183-0.093-0.293-0.112
		c-0.512-0.087-1.029-0.144-1.546-0.195c-0.164-0.188-0.407-0.312-0.733-0.309c-0.667-0.005-1.333-0.01-2-0.015
		c-1.139-0.009-1.44,1.815-0.274,2.026c0.263,0.047,0.528,0.083,0.794,0.118c-0.426,0.142-0.859,0.265-1.305,0.353
		c-1.032,0.264-1.021,1.799,0,2.069c1.064,0.22,2.072,0.591,3.024,1.109c-1.116,0.755-2.514,1.194-3.501,2.095
		c-0.461,0.42-0.365,1.091,0,1.523c1.311,1.555,0.879,2.68-0.524,3.952c-0.519,0.47-0.391,1.421,0.225,1.746
		c0.535,0.234,1.038,0.52,1.524,0.833c-0.088,0.135-0.177,0.27-0.266,0.405c-0.518,0.56-0.39,1.365,0.229,1.782
		c1.054,1.516,0.969,2.747-0.253,3.694c-0.41,0.493-0.476,1.167,0,1.652c0.019,0.019,2.113,1.963,1.721,2.138
		c-0.505,0.226-0.651,0.869-0.551,1.354c0.517,2.51,0.724,7.948,4.157,7.908c1.615-0.019,1.54-2.29,0-2.453
		c-0.85-0.09-1.161-3.908-1.334-4.595c-0.072-0.285-0.13-0.479-0.177-0.616c0.014-0.006,0.028-0.015,0.043-0.03
		c1.809-1.809-0.045-3.439-1.45-4.67c1.634-2.183,2.109-3.771,0.024-5.566c0.162-0.263,0.296-0.552,0.479-0.997
		c0.2-0.486-0.139-1.007-0.517-1.271c-0.377-0.298-0.772-0.568-1.182-0.813c1.849-1.938,1.797-2.952,0.145-5.045
		c1.298-0.853,2.617-1.05,3.724-2.414c0.361-0.445,0.452-1.076,0-1.511c-0.586-0.564-1.167-0.954-1.776-1.253
		c0.578-0.286,1.132-0.66,1.688-1.184c1.435-0.066,2.828-0.397,4.192-1.194C38.659,205.646,37.958,204.491,37.141,204.886z"/>
	<path fill="#A7A9AC" d="M72.54,160.213c-0.273-1.253-0.429-2.34-0.472-3.509c0.01-0.069,0.036-0.126,0.033-0.205
		c-0.013-0.333-0.026-0.667-0.039-1c0.002-0.105-0.028-0.186-0.048-0.275c-0.073-0.905-0.163-1.809-0.245-2.712
		c0.665-0.53,0.603-1.735-0.183-2.141c-0.079-0.5-0.417-0.8-0.821-0.9c-0.018-0.056-0.03-0.112-0.048-0.168
		c-0.301-0.903-1.664-0.54-1.432,0.395c0.044,0.177,0.073,0.353,0.108,0.529c-5.946-0.02-11.895,0.019-17.829,0.384
		c-0.079-0.004-0.157-0.004-0.235-0.008c-0.83-0.043-1.547,0.021-2.165,0.177c-0.388,0.03-0.775,0.055-1.163,0.088
		c-0.729,0.062-1.164,0.759-1.104,1.364c-0.043,0.057-0.08,0.118-0.12,0.177c-0.686-0.182-1.482,0.177-1.464,1.092
		c0.007,0.36,0.022,0.705,0.046,1.043c-0.054,0.135-0.087,0.287-0.088,0.457c-0.012,1.947-0.054,3.952,0.514,5.835
		c0.083,0.277,0.249,0.471,0.443,0.618c-0.012,0.506,0.241,0.994,0.67,1.228c0.214,0.381,0.584,0.667,1.104,0.654
		c3.912-0.09,7.693-0.896,11.483-1.688c1.086-0.007,2.172-0.015,3.259-0.022c2.211-0.015,6.359-0.826,8.471-0.085
		C72.036,161.828,72.702,160.959,72.54,160.213z M50.966,159.308c-0.042,0.004-0.082,0.015-0.122,0.027
		c-0.133,0.029-0.266,0.058-0.398,0.087c-0.186-0.246-0.39-0.487-0.639-0.729c-0.059-0.057-0.125-0.083-0.187-0.125
		c-0.001-1.376-0.279-2.806-0.595-4.134c0.352-0.395,0.796-0.691,1.312-0.905c1.356,0.159,2.733,0.229,4.121,0.241
		c-0.047,0.579,0.302,1.242,1.043,1.339c4.649,0.605,9.722,0.558,13.925-1.717l0.063,4.318
		C63.264,157.409,57.045,157.988,50.966,159.308z"/>
	<path fill="#A7A9AC" d="M41.366,147.787c-0.495-3.503-0.254-7.323-1.564-10.646c-0.104-0.264-0.299-0.483-0.536-0.648
		c-0.002-0.331-0.006-0.662-0.008-0.993c-0.008-1.6-2.45-1.62-2.511-0.066c-0.116-0.072-0.248-0.132-0.407-0.169
		c-3.166-0.751-6.412-0.971-9.576-1.726c-1.255-0.274-1.759,1.534-0.53,1.923c1.656,0.524,3.352,0.857,5.044,1.204
		c-0.087,0.027-0.173,0.057-0.26,0.085c-0.854,0.22-1.716,0.35-2.586,0.383H27c-0.763,0-1.234,0.574-1.316,1.202
		c-0.158,0.037-0.323,0.062-0.476,0.105c-0.699,0.197-0.892,0.87-0.704,1.415c-0.01,0.124,0.002,0.259,0.05,0.407
		c0.118,0.369,0.218,0.742,0.308,1.116c-0.108,0.18-0.187,0.38-0.185,0.623c0.005,0.576,0.028,1.152,0.043,1.728
		c-0.611,0.116-1.145,0.561-1.055,1.272c0.095,0.75,0.175,1.501,0.251,2.251c-0.671,0.095-1.299,0.703-1.155,1.59
		c0.225,1.38,0.494,2.751,0.745,4.123c-0.076,0.15-0.129,0.322-0.132,0.535c-0.003,0.283-0.009,0.565-0.012,0.848
		c-0.007,0.052-0.027,0.097-0.028,0.152c-0.005,0.833-0.01,1.667-0.011,2.5c-0.009,0.6,0.359,0.953,0.805,1.079
		c0.058,0.415,0.117,0.829,0.198,1.245c0.045,0.234,0.16,0.401,0.297,0.539c-0.367,0.525-0.383,1.32,0.307,1.612
		c1.786,0.754,3.622,0.875,5.477,0.777c0.034,0.003,0.058,0.021,0.093,0.021c2.167,0.075,4.332,0.061,6.5,0.017
		c0.895-0.018,1.379-0.919,1.242-1.648c0.523-0.165,1.04-0.372,1.546-0.649c0.564-0.31,0.18-1.24-0.439-1.042
		c-0.715,0.228-1.436,0.354-2.158,0.424c-0.065-0.01-0.118-0.039-0.19-0.039c-0.502-0.001-1.004-0.003-1.506-0.005
		c-2.388-0.618-4.858-1.42-7.278-1.259c-0.005-0.298-0.01-0.596-0.015-0.893c0.524,0.142,1.103,0.019,1.386-0.544
		c0.445-0.887,0.55-1.158,0.57-2.135c0.006-0.306-0.113-0.552-0.297-0.738c-0.003-3.779-0.093-7.548-0.908-11.223
		c0.11-0.624,0.378-1.087,0.912-1.221c0.552-0.138,0.868-0.572,0.953-1.052c0.634-0.139,1.258-0.314,1.852-0.578
		c1.574-0.028,3.545,0.054,3.083,0.666c-0.178,0.235,0.163,0.546,0.396,0.396c0.113-0.073,0.226-0.146,0.339-0.22
		c-0.018,1.765-0.029,3.531-0.039,5.296c-0.145,0.201-0.255,0.427-0.286,0.674c-0.067,0.55-0.111,1.1-0.162,1.649
		c-0.039,0.106-0.065,0.221-0.061,0.351c0.002,0.057,0.007,0.114,0.009,0.171c-0.229,2.77-0.277,5.539-0.276,8.329
		c-0.012,1.208,1.309,1.561,2.092,1.065c0.513,1.15,2.586,0.961,2.587-0.565c0-0.485,0-0.97,0.001-1.456
		c0.119-0.094,0.229-0.211,0.328-0.355C42.176,153.502,41.714,150.248,41.366,147.787z M36.496,139.061
		c-0.378-0.456-0.912-0.697-1.502-0.836c0.452-0.152,0.902-0.31,1.347-0.489c0.001,0,0.002-0.001,0.003-0.001
		c0.061,0.226,0.113,0.49,0.156,0.779C36.498,138.695,36.498,138.878,36.496,139.061z"/>
	<path fill="#A7A9AC" d="M40,100.265c-1.577,0.02-3.139-0.004-4.689-0.112c-0.076-0.071-0.176-0.124-0.311-0.129
		c-0.551-0.025-1.096-0.044-1.638-0.059c-1.643-0.202-3.273-0.519-4.891-1.022c-0.524-0.164-0.967-0.149-1.369-0.01
		c-0.486-0.022-0.978,0.245-1.145,0.782c-0.021,0.021-0.042,0.039-0.063,0.06c-0.407,0.415-0.699,0.904-0.911,1.438
		c-0.427,0.215-0.5,0.733-0.331,1.145c-0.108,0.54-0.167,1.099-0.199,1.652c-0.472,0.067-0.932,0.433-0.975,0.991
		c-0.384,5.008,0.357,9.944,1.356,14.84c0.114,1.877,0.263,3.751,0.504,5.618c-0.001,0.014-0.001,0.028-0.002,0.042h0.006
		c0.013,0.103,0.021,0.206,0.035,0.309c0.092,0.676,0.645,0.91,1.184,0.819c0,0.005,0.001,0.01,0.001,0.015
		c-0.964,0.166-1.919,0.408-2.86,0.783c-0.891,0.354-1.126,1.474-0.266,2.035c1.569,1.024,3.242,1.233,4.954,1.081
		c0.18,0.423,0.564,0.744,1.108,0.711c2.823-0.172,5.329-1.298,7.896-2.376c0.508,1.14,2.49,1.033,2.317-0.377
		c-0.088-0.727-0.164-1.454-0.238-2.181c0.143-0.206,0.095-0.498-0.07-0.69c-0.029-0.295-0.06-0.59-0.089-0.885
		c0.544-0.096,1.012-0.503,1.008-1.244c-0.005-0.936-0.009-1.872-0.014-2.808c0.008-0.063,0.018-0.124,0.018-0.192
		c-0.003-0.698-0.013-1.391-0.029-2.083c-0.012-2.473-0.024-4.945-0.037-7.417c-0.003-0.63-0.385-1.014-0.85-1.156
		c0.245-2.725,0.728-5.412,1.779-8.016C41.495,101.075,40.735,100.256,40,100.265z M37.948,103.779
		c-0.062-0.364-0.125-0.728-0.196-1.09c0.167,0.005,0.335,0.012,0.501,0.015C38.137,103.061,38.046,103.42,37.948,103.779z
		 M27.443,126.521c0.006-0.094,0.011-0.188,0.017-0.282c0.859,0.301,2.076-0.4,1.827-1.594c-0.591-2.649,0.423-7.165-0.968-9.887
		c-0.104-1.076-0.224-2.153-0.349-3.233c0.04-2.588,0.069-5.174,0.1-7.76c0.491,0.04,0.982,0.036,1.477,0.004
		c0.211,0.297,0.526,0.511,0.954,0.491c0.05-0.002,0.084-0.004,0.131-0.006c0.26,0.299,0.675,0.48,1.184,0.391
		c0.487-0.085,0.903-0.209,1.288-0.366c0.811,0.144,1.494,0.338,2.179,0.27c-0.028,2.277,0.046,4.546,0.187,6.81
		c0.007,2.083,0.038,4.165,0.161,6.243c-0.222,0.199-0.375,0.492-0.375,0.899c0.001,0.5,0.001,1,0.002,1.5
		c0,0.517,0.26,0.864,0.61,1.047c0.073,1.311,0.196,2.617,0.385,3.935c0,0.006,0,0.012,0,0.018h0.002
		c0.016,0.111,0.025,0.221,0.042,0.332c0.042,0.275,0.174,0.463,0.336,0.609C33.592,126.406,30.481,126.143,27.443,126.521z"/>
	<path fill="#A7A9AC" d="M243.863,134.209c0.047-0.275-0.003-0.582-0.189-0.895c-1.015-1.706-2.123-3.018-3.595-4.348
		c-1.612-1.456-4.131-2.543-5.066-4.557c-0.605-1.305-2.33-0.3-2.142,0.903c0.212,1.363,0.999,2.188,2.093,3.008
		c0.779,0.583,1.541,1.16,2.273,1.758c-2.034-0.886-4.074-1.756-6.081-2.701c-3.292-1.549-6.286-3.589-9.893-4.333
		c-1.04-0.215-1.843,1.326-0.765,1.813c6.854,3.093,13.511,6.634,20.325,9.842c-2.003,0.292-4.094,0.141-6.137-0.095
		c-0.179-0.142-0.396-0.253-0.687-0.276c-0.673-0.053-1.325-0.096-2-0.05c-1.571,0.105-1.563,2.581,0,2.444
		c0.675,0.045,1.327,0.002,2-0.05c0.025-0.002,0.041-0.014,0.065-0.017c3.403,0.019,7.01,0.454,9.772-1.818
		C244.036,134.673,244.003,134.396,243.863,134.209z"/>
	<path fill="#A7A9AC" d="M249.128,106.112c-0.166-0.21-0.399-0.387-0.752-0.476c-2.539-0.638-5.229-0.855-7.703-1.695
		c-0.027-0.549-0.412-1.083-1.173-1.167c-0.664-0.095-1.33-0.148-2-0.159c-1.489-0.072-1.739,1.845-0.699,2.583
		c1.36,0.964,2.894,1.507,4.486,1.898c-2.032,0.533-4.051,1.118-6.071,1.739c-2.623,0.806-6.729,1.129-8.888,2.778
		c-0.286,0.218-0.286,0.559,0,0.777c1.772,1.353,4.585,0.008,6.476-0.476c4.612-1.18,9.175-2.582,13.886-3.307
		c-1.432,1.641-2.695,3.462-3.557,5.387c-0.295,0.658,0.039,1.532,0.867,1.511c0.766-0.02,1.293-0.514,1.434-1.247
		c0.045-0.236,0.004-0.434-0.07-0.607c1.091-2.561,3.192-4.481,4.601-6.878C250.282,106.234,249.574,105.721,249.128,106.112z"/>
	<path fill="#A7A9AC" d="M41.375,90.511c0.059-7.021,0.268-14.021-0.576-21.011c-0.023-0.19-0.088-0.358-0.173-0.512
		c-0.095-1.83-0.192-3.659-0.293-5.488c-0.024-0.429-0.259-0.758-0.568-0.986c-0.03-0.442-0.402-0.886-0.974-0.774
		c-0.583,0.114-1.155,0.251-1.724,0.395c-3.408-0.171-8.286-0.551-10.5,1.931c-0.472,0.529-0.82,1.115-1.077,1.738
		c-0.614-0.95-2.244-0.461-2.208,0.697c0.083,2.732,0.424,5.398,0.843,8.083c-0.083,1.99-0.078,3.974-0.019,5.957
		c-0.074,4.119-0.083,8.224,0.608,12.314c0.033,0.196,0.105,0.356,0.201,0.49c0.28,0.783,0.725,1.457,1.442,1.932
		c2.893,1.916,7.113-0.162,10.698-1.518c0.509,0.187,1.03,0.355,1.606,0.472c0.526,0.107,1.189-0.051,1.442-0.586
		c0.126-0.267,0.215-0.546,0.299-0.827c0.032-0.003,0.066-0.012,0.098-0.015C41.776,92.683,42.095,91.175,41.375,90.511z M35,90.221
		c-0.9,0.004-1.501,1.062-1.21,1.809c-0.589,0.221-1.182,0.444-1.785,0.656c-1.302,0.603-2.556,0.514-3.764-0.249
		c0.041-0.132,0.075-0.272,0.074-0.437c-0.005-1.776-0.022-3.55-0.12-5.312c0.033-0.16,0.046-0.331,0.015-0.521
		c-0.033-0.204-0.062-0.408-0.095-0.611c-0.101-1.308-0.25-2.609-0.484-3.9c-0.017-0.313-0.045-0.625-0.065-0.938
		c-0.087-1.562-0.178-3.125-0.252-4.688c0.304-0.205,0.519-0.539,0.499-1.029c-0.005-0.283-0.027-0.605-0.057-0.951
		c-0.036-0.502-0.082-0.999-0.144-1.486c-0.086-0.872-0.16-1.81-0.16-2.721c0.198-0.729,0.504-1.304,0.909-1.751
		c0.049,0.006,0.089,0.027,0.141,0.026c2.311-0.049,4.452-0.362,6.5-1.237c0.168-0.018,0.33-0.045,0.5-0.06
		c0.38-0.034,0.623-0.266,0.729-0.544c0.131-0.072,0.262-0.136,0.392-0.214c0.394-0.236,0.572-0.642,0.576-1.048
		c0.092-0.014,0.184-0.026,0.276-0.04c-0.56,4.221-0.747,8.436-0.765,12.709c-0.011,2.649,0.238,5.18,0.686,7.783
		c0.056,0.347,0.101,0.695,0.154,1.043c0.055,1.251,0.103,2.487,0.128,3.7C36.784,90.213,35.892,90.217,35,90.221z"/>
	<path fill="#A7A9AC" d="M70.728,140.772c-0.178-0.155-0.356-0.311-0.534-0.466c-0.394-0.344-0.818-0.476-1.216-0.461
		c-0.385-0.272-0.875-0.441-1.478-0.436c-4.722,0.04-9.375,0.005-14.064-0.155c-0.024-4.085-0.079-8.17-0.123-12.254
		c-0.005-0.448-0.121-0.82-0.3-1.134c0.166-0.209,0.297-0.445,0.38-0.707c1.246-3.889,1.102-8.315,0.44-12.303
		c-0.099-0.598-0.443-1.04-0.899-1.33c0.01-2.342,0.021-4.685,0.024-7.027c0-0.202-0.019-0.39-0.053-0.565
		c0.289-0.364,0.471-0.84,0.471-1.435c0-3.667-0.001-7.333,0.003-11c0-0.227-0.029-0.431-0.073-0.624c0-0.051,0-0.102,0-0.153
		c0.009-0.001,0.018-0.001,0.027-0.002c0.416,0.313,0.965,0.508,1.668,0.494c2.434-0.05,4.809-0.321,7.119-0.857
		c1.959-0.024,3.919-0.03,5.881-0.022c2.602,0.01,3.34-2.813,2.246-4.479c0.092-1.473-1.051-3.067-2.746-3.116
		c-2.688-0.078-5.229,0.504-7.766,1.127c-3.312-0.367-6.604-0.544-9.857,0.374c-0.974,0.274-1.759,1.218-1.719,2.258
		c0.044,1.137,0.072,2.273,0.09,3.41c-0.017,2.53-0.051,5.06-0.084,7.59c-0.001,0.078,0.014,0.147,0.021,0.222
		c-0.006,0.691-0.012,1.383-0.018,2.075c-0.03,1.403-0.045,2.808-0.042,4.214c-0.039,0.155-0.069,0.315-0.082,0.489
		c-0.375,5.327-0.397,10.598,0.042,15.878c-0.002,0.042-0.012,0.079-0.012,0.122c-0.006,0.998-0.012,1.995-0.019,2.993
		c-0.296,0.376-0.486,0.874-0.491,1.507c-0.032,4.345-0.04,8.673,0.403,13c0.003,0.028,0.012,0.052,0.016,0.079
		c-0.117,1.14-0.24,2.28-0.362,3.421c-0.144,1.348,1.195,2.308,2.381,2.381c1.027,0.063,2.043,0.129,3.055,0.195
		c0.397,0.558,1.04,0.945,1.945,0.929c3.736-0.068,7.632,0.222,11.345-0.386c0.385-0.008,0.77-0.025,1.155-0.028
		c0.748-0.007,1.318-0.28,1.731-0.687c0.243-0.079,0.49-0.139,0.73-0.23C71.084,143.25,71.798,141.706,70.728,140.772z"/>
	<path fill="#A7A9AC" d="M70.186,67.772c0.238-0.459,0.242-1.06-0.047-1.535c-0.003-0.019-0.002-0.04-0.006-0.059
		c-0.127-0.75-0.7-1.172-1.337-1.265c-0.417-0.096-0.857-0.058-1.213,0.14c-0.556-0.138-1.115-0.245-1.675-0.325
		c-0.23-0.494-0.695-0.867-1.407-0.86c-1.865,0.019-3.726,0.11-5.587,0.205c-0.25-0.177-0.557-0.283-0.913-0.28
		c-1.421,0.014-2.786,0.098-4.158,0.285c-0.12-0.073-0.25-0.139-0.399-0.186l-1.507-0.475c-0.821-0.259-1.632,0.243-1.94,0.978
		c-1.02,0.44-1.353,1.602-0.975,2.422c-0.007,0.337-0.014,0.674-0.021,1.012c-0.648,2.103-0.479,4.368-0.632,6.573
		c-0.11,0.692-0.209,1.386-0.254,2.097c-0.098,1.548,2.456,1.911,2.72,0.368c0-0.004,0-0.008,0.001-0.011
		c2.309-0.029,4.611-0.198,6.914-0.362c2.903,0.061,5.829-0.167,8.75-0.191c1.353-0.011,1.913-1.231,1.692-2.249
		c0.167-0.307,0.318-0.615,0.452-0.925c0.165-0.012,0.329-0.039,0.484-0.092c0.493-0.158,0.9-0.529,1.02-1.113
		c0.03-0.132,0.05-0.271,0.049-0.424l-0.004-0.737C70.208,69.766,70.204,68.769,70.186,67.772z M65.145,67.045
		c-0.386,0.217-0.712,0.543-0.858,0.982c-0.526,1.581-1.003,3.142-1.115,4.75c-3.544-0.075-7.081-0.312-10.625-0.4
		c0.098-1.574,0.26-3.142,0.401-4.711c3.855-0.094,7.696-0.463,11.552-0.535c0.21,0,0.393-0.041,0.562-0.1
		C65.089,67.036,65.117,67.041,65.145,67.045z"/>
	<path fill="#A7A9AC" d="M173.82,51.5c0-1.205-1.057-2.4-2.32-2.32c-1.087,0.068-1.861,0.409-2.591,1.229
		c-0.814,0.915-0.905,2.277,0,3.182c0.818,0.819,2.002,0.815,2.9,0.21C172.93,53.683,173.82,52.609,173.82,51.5z"/>
	<path fill="#A7A9AC" d="M171,36.566c-0.167,0.02-0.333,0.039-0.5,0.059c-1.015,0.119-1.875,0.763-1.875,1.875
		s0.86,1.756,1.875,1.875c0.167,0.02,0.333,0.039,0.5,0.059c1.049,0.123,1.934-0.973,1.934-1.934S172.049,36.443,171,36.566z"/>
	<path fill="#A7A9AC" d="M185,34.547c-1.874,0-1.874,2.906,0,2.906S186.874,34.547,185,34.547z"/>
	<path fill="#A7A9AC" d="M176.654,40.271c-1.211,0.331-1.211,2.127,0,2.458c0.893,0.714,2.334-0.111,2.334-1.229
		S177.547,39.557,176.654,40.271z"/>
	<path fill="#A7A9AC" d="M219.141,50.5c-0.062-0.892-0.699-1.641-1.641-1.641s-1.578,0.749-1.641,1.641
		c-0.012,0.167-0.023,0.333-0.035,0.5c-0.064,0.912,0.811,1.676,1.676,1.676s1.74-0.764,1.676-1.676
		C219.164,50.833,219.152,50.667,219.141,50.5z"/>
	<path fill="#A7A9AC" d="M184.5,50.93c-0.333,0.027-0.667,0.055-1,0.082c-0.808,0.066-1.488,0.627-1.488,1.488
		s0.68,1.422,1.488,1.488c0.333,0.027,0.667,0.055,1,0.082c0.854,0.07,1.57-0.768,1.57-1.57S185.354,50.859,184.5,50.93z"/>
	<path fill="#A7A9AC" d="M181,63.047c-0.289,0.037-0.588,0.043-0.858,0.154c-1.276,0.523-1.276,2.076,0,2.599
		c0.27,0.111,0.57,0.117,0.858,0.154c0.788,0.1,1.453-0.737,1.453-1.453S181.788,62.947,181,63.047z"/>
	<path fill="#A7A9AC" d="M178.895,56.105c-0.156-0.178-0.312-0.355-0.467-0.533c-1.119-1.277-3.133,0.738-1.856,1.856
		c0.178,0.155,0.355,0.311,0.533,0.467C178.335,58.972,179.972,57.335,178.895,56.105z"/>
	<path fill="#A7A9AC" d="M155.119,24.881c-0.186-0.147-0.372-0.294-0.558-0.442c-0.64-0.507-1.494-0.628-2.121,0
		c-0.628,0.627-0.507,1.481,0,2.121c0.147,0.186,0.294,0.372,0.442,0.558c0.536,0.677,1.681,0.557,2.237,0
		S155.796,25.417,155.119,24.881z"/>
	<path fill="#A7A9AC" d="M163.93,45.44c-0.46-0.167-0.895-0.106-1.363-0.011c-1.56,0.315-1.56,2.826,0,3.142
		c0.468,0.095,0.903,0.156,1.363-0.011C165.466,48,165.466,46,163.93,45.44z"/>
	<path fill="#A7A9AC" d="M148.5,41.465c-0.822,0-1.555,0.698-1.535,1.535c0.004,0.167,0.008,0.333,0.012,0.5
		c0.02,0.83,0.678,1.523,1.523,1.523s1.504-0.693,1.523-1.523c0.004-0.167,0.008-0.333,0.012-0.5
		C150.055,42.163,149.322,41.465,148.5,41.465z"/>
	<path fill="#A7A9AC" d="M173.784,12.972c-0.16-0.026-0.319-0.053-0.479-0.079c-0.725-0.12-1.454,0.302-1.454,1.107
		s0.729,1.228,1.454,1.107c0.16-0.026,0.319-0.053,0.479-0.079C174.806,14.859,174.806,13.141,173.784,12.972z"/>
	<path fill="#A7A9AC" d="M242,64.781c-1.572,0-1.572,2.438,0,2.438S243.572,64.781,242,64.781z"/>
	<path fill="#A7A9AC" d="M204,67.664c-1.723,0-1.723,2.672,0,2.672S205.723,67.664,204,67.664z"/>
	<path fill="#A7A9AC" d="M199.5,53.781c-0.167-0.008-0.333-0.016-0.5-0.023c-1.602-0.075-1.602,2.56,0,2.484
		c0.167-0.008,0.333-0.016,0.5-0.023C201.071,56.145,201.071,53.855,199.5,53.781z"/>
	<path fill="#A7A9AC" d="M187.82,58.836c0.371-0.195-0.014-0.049-0.147-0.023c-1.179,0.229-1.179,2.144,0,2.373
		c0.133,0.026,0.518,0.172,0.147-0.023c0.893,0.471,2.028-0.108,2.028-1.164S188.712,58.366,187.82,58.836z"/>
	<path fill="#A7A9AC" d="M196.5,37.77c-1.587,0-1.587,2.461,0,2.461S198.087,37.77,196.5,37.77z"/>
	<path fill="#A7A9AC" d="M219.5,71.664c-0.167-0.004-0.333-0.008-0.5-0.012c-1.738-0.041-1.738,2.736,0,2.695
		c0.167-0.004,0.333-0.008,0.5-0.012C221.223,74.295,221.223,71.705,219.5,71.664z"/>
	<path fill="#A7A9AC" d="M245.539,30.5c0.004,0.167,0.008,0.333,0.012,0.5c0.029,1.224,1.87,1.224,1.898,0
		c0.004-0.167,0.008-0.333,0.012-0.5C247.49,29.261,245.51,29.261,245.539,30.5z"/>
	<path fill="#A7A9AC" d="M183.858,68.701c-0.671-0.171-1.348-0.049-1.944,0.297c-0.752,0.438-0.752,1.566,0,2.004
		c0.596,0.346,1.272,0.468,1.944,0.297C185.147,70.972,185.147,69.028,183.858,68.701z"/>
	<path fill="#A7A9AC" d="M194.5,64.559c-1.011,0-1.541,0.915-1.39,1.825c0.026,0.159,0.053,0.319,0.079,0.478
		c0.216,1.303,2.406,1.303,2.622,0c0.026-0.159,0.053-0.319,0.079-0.478C196.041,65.473,195.511,64.559,194.5,64.559z"/>
	<path fill="#A7A9AC" d="M166.5,26.805c-1.542,0-1.542,2.391,0,2.391S168.042,26.805,166.5,26.805z"/>
	<path fill="#A7A9AC" d="M127.293,42.5c0-1.213-1.14-1.976-2.27-1.729c-0.392,0.086-0.791,0.299-1.08,0.582
		c-0.056,0.054-0.104,0.113-0.152,0.173c-0.56,0.261-0.944,0.866-0.944,1.475c0,0.92,0.752,1.626,1.652,1.652
		c0.396,0.011,0.827-0.08,1.172-0.282c0.051-0.03,0.094-0.07,0.141-0.104C126.646,44.126,127.293,43.352,127.293,42.5z"/>
	<path fill="#A7A9AC" d="M136,16.812c-0.167-0.008-0.333-0.016-0.5-0.023c-0.932-0.043-1.711,0.812-1.711,1.711
		s0.779,1.754,1.711,1.711c0.167-0.008,0.333-0.016,0.5-0.023c0.918-0.043,1.688-0.735,1.688-1.688S136.918,16.855,136,16.812z"/>
	<path fill="#A7A9AC" d="M143.437,31.017l0.043,0.074c-0.013-0.036-0.033-0.061-0.047-0.095c-0.027-0.079-0.071-0.148-0.111-0.223
		c-0.048-0.084-0.101-0.165-0.158-0.239c-0.031-0.038-0.044-0.085-0.079-0.12c0,0,0,0,0,0c0.015,0.026,0.031,0.052,0.046,0.079
		c-0.237-0.296-0.533-0.532-0.874-0.788c-1.181-0.887-2.939,0.872-2.052,2.052c0.256,0.341,0.492,0.637,0.788,0.874
		c-0.026-0.015-0.052-0.031-0.079-0.046c0,0,0,0,0,0c0.035,0.035,0.082,0.048,0.12,0.079c0.074,0.057,0.155,0.109,0.239,0.158
		c0.075,0.04,0.144,0.084,0.223,0.111c0.034,0.014,0.06,0.034,0.095,0.047c-0.025-0.015-0.05-0.029-0.075-0.043
		c0.535,0.174,1.15,0.068,1.569-0.351S143.611,31.552,143.437,31.017z"/>
	<path fill="#A7A9AC" d="M208,26.652c-1.738,0-1.738,2.695,0,2.695S209.738,26.652,208,26.652z"/>
	<path fill="#A7A9AC" d="M230,34.34c-1.496,0-1.496,2.32,0,2.32S231.496,34.34,230,34.34z"/>
</g>
</svg>
