<?xml version="1.0" encoding="utf-8"?>
<!-- Generator: Adobe Illustrator 16.0.4, SVG Export Plug-In . SVG Version: 6.00 Build 0)  -->
<!DOCTYPE svg PUBLIC "-//W3C//DTD SVG 1.1//EN" "http://www.w3.org/Graphics/SVG/1.1/DTD/svg11.dtd">
<svg version="1.1" id="Layer_1" xmlns="http://www.w3.org/2000/svg" xmlns:xlink="http://www.w3.org/1999/xlink" x="0px" y="0px"
	 width="281.891px" height="318.68px" viewBox="0 0 281.891 318.68" enable-background="new 0 0 281.891 318.68"
	 xml:space="preserve">
<g>
	<g>
		<g>
			<g>
				<defs>
					<rect id="SVGID_1_" x="-11.555" y="5.84" width="306.047" height="306.045"/>
				</defs>
				<clipPath id="SVGID_2_">
					<use xlink:href="#SVGID_1_"  overflow="visible"/>
				</clipPath>
				<g clip-path="url(#SVGID_2_)">
					<g>
						<defs>
							<rect id="SVGID_3_" x="-11.555" y="5.84" width="306.047" height="306.045"/>
						</defs>
						<clipPath id="SVGID_4_">
							<use xlink:href="#SVGID_3_"  overflow="visible"/>
						</clipPath>
						<g id="Layer_1_1_" clip-path="url(#SVGID_4_)">
							<g id="Lettering">
								<g>
									<path d="M135.095,138.747c-1.921-0.596-3.691-0.432-5.259,0.807c-2.015,1.59-2.443,4.648-2.601,7.013
										c-0.035,0.55-0.076,1.097-0.119,1.642c-0.985,0.033-1.971,0.047-2.958,0.005c-2.277-0.098-2.232,3.69,0,3.499
										c0.908-0.062,1.814-0.151,2.72-0.251c-0.132,2.118-0.179,4.234,0.075,6.375c0.156,1.316,1.22,2.423,2.648,2.018
										c0.086-0.019,0.168-0.047,0.248-0.084c1.354-0.549,1.736-1.889,1.16-2.892c-0.287-1.958-0.277-3.904-0.225-5.854
										c0.865-0.086,1.732-0.155,2.604-0.191c1.812-0.076,1.824-2.79,0-2.821c-0.844-0.015-1.685,0.005-2.523,0.037
										c0.008-0.492,0.013-0.984,0.006-1.479c-0.021-1.646,0.13-3.451,1.179-4.796c0.359-0.46,0.818-0.442,1.347-0.479h0.477
										c0.085,0.031,0.154,0.053,0.219,0.068c0.054,1.091,1.543,1.479,2.238,0.521
										C137.234,140.634,136.494,139.181,135.095,138.747z"/>
									<path d="M145.326,148.051c-1.01-0.998-2.268-1.146-3.613-0.926c-0.637,0.104-1.258,0.396-1.829,0.688
										c-0.158,0.08-0.427,0.365-0.688,0.631c-0.205,0.146-0.396,0.311-0.57,0.49c-0.025,0.012-0.056,0.027-0.075,0.027
										c-0.526-0.004-0.848,0.592-0.68,1.021c-0.688,1.28-0.891,2.898-0.551,4.291c0.333,1.367,1.584,2.522,2.957,2.781
										c1.519,0.286,2.901-0.415,3.899-1.526C145.73,153.799,147.336,150.04,145.326,148.051z M142.253,151.927
										c-0.287,0.503-0.66,0.971-1.149,1.287c-0.058,0.037-0.097,0.06-0.127,0.078c-0.098-0.068-0.078-0.177-0.007-0.062
										c-0.46-0.754,0.639-2.046,1.201-2.637c0.201-0.211,0.326-0.477,0.39-0.758
										C143.189,150.202,142.599,151.317,142.253,151.927z"/>
									<path d="M158.1,144.43c-2.312,0.009-4.469,0.963-6.19,2.461c-0.804-1.507-3.374-0.375-3.117,1.091
										c-0.285,1.581-0.332,3.208-0.493,4.814c-0.159,0.675-0.255,1.361-0.27,2.052c-0.058,2.848,4.229,2.806,4.392,0
										c0.145-2.876,2.791-5.666,5.68-5.874C160.99,148.766,161.06,144.42,158.1,144.43z"/>
								</g>
								<g>
									<path d="M108.479,221.605c-0.566-0.215-5.249-2.463-3.606-3.612c0.529-0.372,1.275-0.502,2.08-0.523
										c1.029,0.09,2.06,0.156,3.094,0.191c0.184,0.013,0.356,0.021,0.518,0.021c2.951,0.069,2.944-4.507,0-4.573
										c-3.223-0.071-6.794-0.599-9.33,1.842c-2.716,2.609-0.979,7.086,1.542,9.033c2.177,1.685,8.831,2.806,6.634,6.783
										c-0.322,0.582-2.191,0.986-2.843,1.177c-0.622,0.184-1.247,0.303-1.892,0.348c-0.123,0.009-0.216,0.028-0.291,0.059
										c-0.007-0.056-0.017-0.115-0.032-0.184c-0.528-2.354-3.712-2.002-4.41,0c-1.413,4.056,3.401,5.299,6.36,4.781
										c3.54-0.616,6.722-1.937,8.06-5.458C116.081,226.96,112.307,223.057,108.479,221.605z"/>
									<path d="M125.544,220.853c-2.25-0.568-4.598-0.091-6.652,0.915c-0.812,0.397-1.72,1.308-1.9,2.225
										c-0.253,1.269,0.262,2.55-0.016,3.765c-0.086,0.378-0.011,0.749,0.161,1.063c-0.021,0.863,0,1.73-0.006,2.597
										c-0.008,1.185-0.372,2.416,0.275,3.521c0.713,1.218,2.143,1.218,3.357,1.048c1.985-0.275,4.358-0.22,6.358-0.08
										c1.261,0.089,2.315-1.118,2.315-2.314C129.441,229.376,130.998,222.232,125.544,220.853z M123.052,231.596
										c-0.467,0.039-1.129,0.162-1.771,0.231c0.04-0.389,0.089-0.771,0.087-1.11c-0.01-1.404,0.048-2.785-0.226-4.167
										c-0.065-0.336-0.221-0.608-0.428-0.824c0.521-0.81,2.448-0.854,3.272-0.703c1.316,0.239,0.866,1.529,0.83,2.63
										c-0.042,1.27-0.032,2.54-0.021,3.812C124.214,231.507,123.633,231.548,123.052,231.596z"/>
									<path d="M144.403,229.281c-0.318-2.452-0.557-4.909-1.005-7.347c-0.455-2.469-4.243-1.427-3.767,1.038
										c0.211,1.369,0.412,2.709,0.44,4.097c0.033,1.521,0.649,2.979,0.428,4.521c-0.143,0.986,0.088,0.349-0.518,0.505
										c-0.441,0.113-0.953,0.067-1.402,0.067c-0.255,0-0.532,0.001-0.812-0.002c-0.056-3.312-0.53-6.668-1.093-9.896
										c-0.319-1.837-2.917-1.474-3.354,0l0,0v0.001c-0.05,0.167-0.078,0.345-0.065,0.539c-0.486,3.746-0.149,7.564,0.074,11.326
										c0.089,1.486,1.34,2.447,2.801,2.133c1.168-0.25,2.712,0.176,3.95,0.045c1.423-0.148,2.849-0.617,3.71-1.829
										C144.839,233.007,144.623,230.968,144.403,229.281z"/>
									<path d="M156.688,223.103c-1.278-1.168-2.979-0.875-4.389-0.188c-0.467,0.229-1.011,0.525-1.505,0.854
										c-0.021-0.257-0.038-0.515-0.064-0.771c-0.25-2.367-3.919-2.456-3.769,0c-0.302,2.864-0.206,5.762-0.254,8.646
										c-0.062,0.832-0.104,1.663-0.089,2.487c-0.091,1.463,1.068,2.178,2.229,2.145c1.158,0.033,2.317-0.682,2.228-2.145
										c0.017-0.906-0.023-1.818-0.095-2.732c-0.014-0.924-0.014-1.849-0.018-2.771c0.322-0.396,0.601-0.815,0.881-1.291
										c0.545-0.353,1.115-0.645,1.715-0.879c1.164-0.712,1.034,0.123,1.323,1.146c0.738,2.613,0.207,5.306,0.372,7.955
										c-0.084,1.35,0.963,1.983,2.012,1.928c1.047,0.058,2.095-0.578,2.011-1.928
										C159.505,231.847,159.678,225.836,156.688,223.103z"/>
									<path d="M174.1,227.668c-0.05-4.728,0.075-9.448,0.182-14.173c0.06-2.699-4.037-2.669-4.169,0
										c-0.106,2.179-0.538,4.334-0.514,6.517c0.015-0.002,0.029-0.004,0.045-0.007c0.019,0.372,0.122,0.688,0.277,0.96
										c-0.001,0.03-0.002,0.06-0.004,0.09c-1.535-0.504-3.146-0.625-4.542,0.359c-1.975,1.393-2.21,4.164-2.296,6.363
										c-0.095,2.438-0.172,5.158,1.479,7.111c1.188,1.402,3.565,1.536,5.465,1.483c0.854,0.85,2.658,0.699,3.426-0.379
										C174.964,233.867,174.125,230.115,174.1,227.668z M167.929,232.103c-1.191-0.179-0.797-2.72-0.791-3.637
										c0.007-1.24,0.016-2.388,0.35-3.59c0.171-0.609,1.236-0.687,2.315-0.694c-0.006,0.171-0.013,0.343-0.017,0.514
										c-0.05,1.969-0.062,3.938-0.052,5.905c0.003,0.396,0.108,0.905,0.194,1.425C169.259,232.107,168.583,232.2,167.929,232.103
										z"/>
									<path d="M182.932,235.543c-0.162-0.684-0.491-1.398-0.935-1.979c0.069-1.089-0.387-2.137-1.355-2.774
										c-0.613-0.404-1.523-0.257-2.021,0.261c-1.232,1.281-1.447,4.363,0.777,4.81c0.097,0.021,0.188,0.028,0.28,0.033
										c0.125,0.032,0.25,0.045,0.376,0.041c0.026,0.128,0.052,0.257,0.074,0.383c0.156,0.857,0.081,1.161-0.448,1.284
										c-1.742,0.404-1.146,2.709,0.391,2.89C182.805,240.805,183.4,237.521,182.932,235.543z"/>
								</g>
								<g>
									<path d="M44.486,194.892c-0.198-2.036,0.188-4.502,0.181-6.24c-0.015-3.599,0.099-7.136,0.271-10.725
										c0.068-1.435-1.749-2.537-2.965-1.702c-2.376,1.631-3.439,4.102-4.442,6.712c-0.967,2.521-1.876,5.149-2.961,7.663
										c-0.238-0.562-0.464-1.087-0.597-1.33c-0.839-1.524-1.625-3.078-2.464-4.604c-1.25-2.276-2.274-4.876-4.215-6.634
										c-0.263-2.392-3.975-2.357-3.972,0.167c0,0.186-0.002,0.374-0.003,0.561c-0.723,2.774-0.765,5.546-0.485,8.399
										c0.063,0.654,0.1,1.326,0.121,2.007c-0.162,2.677-0.305,5.354-0.258,8.039c-0.096,1.603,1.393,2.239,2.615,1.92
										c0.68-0.044,1.354-0.519,1.413-1.256c0.07-0.201,0.123-0.417,0.131-0.664c0.01-0.305,0.021-0.605,0.032-0.908
										c0.386-3.716,0.45-7.528,0.443-11.319c0.002-0.085,0.003-0.17,0.005-0.255c0.758,1.521,1.389,3.12,1.964,4.257
										c0.788,1.555,1.637,3.073,2.425,4.627c0.372,0.732,0.652,1.345,1.142,1.794c0.437,1.578,3.074,1.461,3.41-0.163
										c0.687-3.313,2.35-6.073,3.892-9.044c0.227-0.435,0.428-0.896,0.622-1.365c-0.036,1.589-0.062,3.181-0.069,4.774
										c-0.012,2.689-0.646,6.102,0.525,8.608c0.763,1.636,3.195,1.06,3.644-0.478c0.08-0.272,0.159-0.549,0.238-0.821
										C45.395,195.99,45.058,195.289,44.486,194.892z"/>
									<path d="M67.659,177.112c0.021-2.791-4.222-2.771-4.316,0c-0.069,2.071-0.214,4.119-0.327,6.177
										c-0.147,1.704-0.33,3.403-0.533,5.104c-0.229,1.905-0.333,4.979-1.81,6.569c-0.464,0.216-1.029,0.331-1.723,0.365
										c-0.432,0.021-1.925,0.092-2.931-0.126c-0.4-0.281-0.757-0.622-1.044-1c-0.326-1.532-0.26-3.269-0.311-4.804
										c-0.054-1.612-0.229-3.296-0.367-4.98c0-0.435-0.004-0.865-0.014-1.298c-0.014-0.521-0.096-1.108-0.15-1.702
										c-0.002-0.097-0.006-0.191-0.007-0.287c0.018-0.047,0.035-0.092,0.047-0.145c0.011-0.044,0.014-0.093,0.021-0.14
										c0.012-0.068,0.026-0.132,0.029-0.207c0.021-0.479,0.043-0.962,0.063-1.44c0.041-0.113,0.079-0.229,0.135-0.334
										c0.27-0.508,0.185-0.989-0.071-1.356c-0.06-1.747-2.65-1.927-3.172-0.284c-0.806,2.539-0.925,5.071-0.926,7.717
										c0,2.528-0.132,5.156,0.286,7.658c0.341,2.044,0.382,4.192,2.132,5.587c1.38,1.101,3.737,1.197,5.417,1.399
										c0.069,0.009,0.135,0.011,0.203,0.018c0.838,0.166,1.62,0.158,2.34,0.002c3.324-0.398,5.53-2.598,6.077-6.425
										c0.355-2.491,0.479-4.902,0.426-7.407C67.436,182.895,67.639,180.009,67.659,177.112z"/>
									<path d="M97.831,176.965c-2.34-1.152-5.212-1.245-7.964-1.205c-1.15-0.012-2.301,0.031-3.458,0.053
										c-3.072,0.059-3.078,4.822,0,4.771c0.814-0.016,1.673-0.022,2.548-0.045c-0.001,0.036-0.012,0.065-0.012,0.104
										c-0.011,1.891-0.024,3.775-0.04,5.664c-0.003,0.037-0.006,0.075-0.01,0.112c-0.325,3.615-0.138,7.159-0.127,10.786
										c0.008,2.907,4.568,2.906,4.511,0c-0.11-5.462-0.144-10.922-0.176-16.388c0.574,0.101,1.149,0.188,1.728,0.271
										c0.448,0.091,0.898,0.163,1.354,0.188c1.779,0.104,2.455-1.505,2.07-2.837C98.5,177.937,98.368,177.229,97.831,176.965z"/>
									<path d="M105.777,188.381c-0.271-3.297-0.139-6.609-0.254-9.911c0.118-2.945-4.429-2.928-4.562,0
										c-0.273,6.047,0.178,11.896,0.479,17.92c0.15,3.022,4.546,3.024,4.691,0C106.263,193.676,105.998,191.08,105.777,188.381z"
										/>
									<path d="M118.204,187.969c0-0.001,0.001-0.002,0.001-0.003c-0.015-0.004-0.028-0.006-0.042-0.01
										c-0.086-0.035-0.175-0.058-0.265-0.064c-0.277-0.073-0.559-0.135-0.842-0.18c-2.181-0.649-4.883-0.629-6.995,0.035
										c-1.998,0.629-1.731,3.928,0.512,3.776c1.147-0.075,2.339-0.2,3.521-0.39c0.827-0.004,1.66,0.06,2.517,0.198
										c1.275,0.207,2.113-0.657,2.215-1.6C119.297,189.139,118.836,188.25,118.204,187.969z"/>
									<path d="M134.645,194.081c-1.126,0.153-2.242,0.171-3.362,0.333c-0.058,0.008-0.112,0.021-0.166,0.039
										c-0.328-0.053-0.656-0.117-0.987-0.205c-1.969-0.521-2.239-3.525-2.46-5.189c-0.279-2.116,0.104-4.427,1.003-6.365
										c0.559-1.206,0.907-1.938,2.345-1.938c0.145,0.025,0.295,0.039,0.464,0.026c0.508,0.03,1.018,0.054,1.524,0.078
										c0.486,0.035,0.974,0.069,1.461,0.076c2.486,0.115,2.467-3.715,0-3.85c-3.542-0.194-6.512-1.008-8.738,2.315
										c-1.96,2.929-2.677,6.896-2.311,10.34c0.346,3.229,1.214,6.053,3.995,7.95c2.26,1.546,5.959,1.993,8.505,1.004
										C138.839,197.563,137.685,193.661,134.645,194.081z"/>
									<path d="M155.437,194.721c-0.272-2.521-0.436-4.904-0.256-7.509c0.17-2.47,0.343-4.914,0.166-7.368
										c0.104-0.63,0.187-1.265,0.162-1.917c-0.021-0.594-0.606-1.004-1.126-0.946c-1.198-0.688-3.286,0.063-3.23,1.763
										c-0.057,1.673-0.154,3.323-0.292,4.978c-0.797,0.031-1.604,0.223-2.393,0.349c-0.953,0.153-1.913,0.27-2.871,0.392
										c-0.022-1.454-0.062-2.907-0.124-4.358c-0.029-0.679-0.278-1.191-0.64-1.562c-0.021-0.172-0.032-0.344-0.057-0.517
										c-0.275-2.001-3.422-1.255-3.34,0.478c-0.012,0.053-0.021,0.104-0.032,0.159c-0.312,0.358-0.527,0.837-0.567,1.44
										c-0.071,1.094-0.263,2.162-0.268,3.258h0.05c0.02,0.414,0.131,0.771,0.302,1.071c-0.002,4.078-0.188,8.152-0.118,12.233
										c0.056,3.389,5.219,2.66,4.709-0.256c0.057-2.547,0.1-5.098,0.107-7.646c1.164,0.104,2.312,0.092,3.487,0.043
										c0.417-0.018,0.845-0.03,1.27-0.062c-0.146,2.487,0.092,4.836,0.432,7.378c0.333,2.503,3.957,3.464,4.7,0.637
										c0.104-0.392,0.166-0.775,0.146-1.18C155.642,195.276,155.563,194.987,155.437,194.721z"/>
									<path d="M177.681,196.051c-1.429-3.477-2.688-7.015-3.997-10.535c-0.896-2.411-1.126-5.249-2.997-7.199
										c-0.202-0.21-0.464-0.346-0.747-0.408c-0.229-1.197-1.519-2.041-2.749-1.322c-2.346,1.369-3.306,5.218-4.267,7.562
										c-0.94,2.304-2.154,4.499-3.201,6.755c-0.538,1.158-0.979,2.434-1.518,3.63c-0.291,0.531-0.582,1.064-0.839,1.616
										c-1.101,2.362,2.083,4.378,3.525,2.231c0.208-0.072,0.39-0.206,0.507-0.398c0.001,0.001,0.002,0.002,0.002,0.003
										c0.801-1.52,2.078-2.735,2.954-4.227c0.255-0.435,0.477-0.897,0.675-1.372c0.079,0.01,0.165,0.01,0.252,0.008
										c1.535,0.317,3.358,0.295,5.045,0.114c0.982,1.792,2.194,3.437,3.152,5.312
										C174.654,200.115,178.676,198.471,177.681,196.051z M167.781,184.771c0.303,1.229,0.643,2.447,0.969,3.67
										c-0.2,0.039-0.399,0.078-0.602,0.112c-0.633,0.109-1.28,0.169-1.923,0.256
										C166.648,187.439,167.209,186.104,167.781,184.771z"/>
									<path d="M242.85,177.857c-0.247-0.896-0.785-1.347-1.44-1.552c-0.223-0.312-0.688-0.502-1.027-0.367
										c-0.923,0.369-2.237,0.029-3.233,0.188c-1.366,0.216-2.705,0.461-4,0.884c-0.668-1.264-2.689-0.841-3.096,0.471
										c-0.011-0.003-0.02-0.005-0.028-0.008c-1.396,6.294-1.617,13.298-1.804,19.731c-0.039,1.34,1.106,2.298,2.364,2.363
										c3.171,0.169,6.333-0.231,9.503-0.261c3.063-0.024,3.062-4.825,0-4.752c-2.328,0.057-4.643,0.31-6.962,0.345
										c0.136-1.559,0.295-3.146,0.436-4.74c0.799-0.084,1.598-0.222,2.393-0.323c1.134-0.147,2.296-0.118,3.41-0.387
										c2.216-0.536,2.33-4.122,0-4.582c-1.696-0.335-3.667,0.002-5.494,0.432c0.038-1.242,0.038-2.479-0.03-3.7
										c1.667-0.425,3.46-0.375,5.168-0.426C240.847,181.118,243.513,180.269,242.85,177.857z"/>
									<path d="M257.736,194.226c-2.211-0.024-4.423-0.053-6.634-0.077c0.018-2.18,0.525-4.514,0.675-6.582
										c0.237-3.294-0.03-6.613-0.085-9.909c-0.051-3.104-4.479-3.006-4.744,0c-0.246,2.804-0.451,5.6-0.446,8.417
										c0.001,0.422,0.102,0.774,0.26,1.075c-0.01,0.141-0.013,0.278-0.022,0.417c-0.254,3.271-0.988,6.499-0.409,9.771
										c0.192,1.091,1.401,1.875,2.449,1.865c2.987-0.029,5.974-0.069,8.96-0.105
										C260.876,199.059,260.876,194.264,257.736,194.226z"/>
									<path d="M222.934,181.335c0.017-0.496,0.008-0.99-0.033-1.485c-0.009-0.461-0.021-0.921-0.025-1.38
										c0.021-1.521-1.157-2.271-2.336-2.257c-1.181-0.016-2.358,0.734-2.336,2.257c-0.049,3.263-0.171,6.545-0.236,9.823
										c-0.582-0.659-1.17-1.312-1.751-1.964c-1.246-1.399-2.188-2.828-3.136-4.438c-0.953-1.622-2.568-2.729-3.541-4.338
										c-1.285-2.126-4.176-1.062-4.386,1.188c-0.161,1.729,0.029,3.43,0.105,5.156c0.014,0.292,0.085,0.56,0.196,0.801
										c-0.128,3.945-0.268,7.9-0.512,11.825c-0.129,2.08,2.8,3.314,4.179,1.73c0.039-0.045,0.078-0.089,0.116-0.134
										c0.531-0.609,0.692-1.292,0.609-1.931c0.104-3.419,0.15-6.871,0.149-10.313c0.515,0.882,1.022,1.771,1.712,2.529
										c2.516,2.77,5.039,5.571,6.638,8.991c1.134,2.429,4.645,1.057,4.73-1.28C223.262,191.212,223.057,186.259,222.934,181.335z
										"/>
									<path d="M200.268,192.851c-0.676-4.878-0.518-9.997-0.561-14.924c-0.024-2.914-4.361-2.884-4.498,0
										c-0.072,1.542-0.242,3.069-0.252,4.615c0.013-0.001,0.023-0.003,0.036-0.005c0.007,0.234,0.047,0.452,0.11,0.649
										c-0.036,1.303-0.073,2.604-0.104,3.901c-0.027,1.105-0.055,2.207-0.005,3.307c-1.146-1.497-2.303-2.984-3.443-4.486
										c-2.344-3.089-3.84-6.606-6.255-9.667c-0.938-1.19-3.086-0.773-3.742,0.48c-0.775,1.481-0.632,2.993-0.472,4.603
										c-0.001,0.021-0.001,0.043-0.002,0.063c-0.016,0.11-0.034,0.218-0.034,0.338c-0.016,0.657-0.027,1.314-0.039,1.974
										c-0.023,0.561-0.061,1.115-0.117,1.674c-0.229,0.332-0.386,0.742-0.407,1.242c-0.033,0.542-0.047,1.085-0.042,1.629
										c-0.001,0.182,0.021,0.352,0.059,0.513c0.003,2.816-0.056,5.631,0.052,8.447c0.123,3.241,5.218,3.233,5.034,0
										c-0.287-2.84-0.454-5.699-0.478-8.558c0.205-1.06,0.333-2.11,0.409-3.169c0.869,1.424,1.775,2.828,2.824,4.168
										c1.43,1.825,2.885,3.63,4.312,5.456c0.953,1.217,1.871,2.708,3.261,3.478C199.543,200.583,200.59,195.182,200.268,192.851z
										"/>
									<path d="M76.123,194.428c-0.026-0.746-0.04-1.493-0.018-2.235c0.216-0.326,0.349-0.732,0.333-1.231
										c0.003-0.543-0.003-1.086-0.021-1.629c-0.001-0.065-0.017-0.124-0.021-0.188c0.016-0.115,0.032-0.229,0.028-0.354
										c-0.022-1.241-0.064-2.484-0.075-3.729c0.048-0.188,0.08-0.392,0.075-0.617c0-0.237-0.006-0.479-0.017-0.718
										c-0.005-0.188-0.009-0.378-0.014-0.565c0.271-1.857,0.458-3.7-0.137-5.531c-0.004-0.017-0.013-0.027-0.018-0.042
										c-0.183-0.678-0.663-1.124-1.246-1.325c-0.519-0.2-1.1-0.192-1.611,0c-0.001,0.001-0.002,0.002-0.003,0.002
										c-0.089,0.033-0.176,0.071-0.26,0.117c-0.072,0.036-0.142,0.077-0.208,0.122c-0.01,0.007-0.02,0.014-0.029,0.021
										c-0.392,0.271-0.688,0.678-0.789,1.231c-0.029,0.14-0.048,0.288-0.052,0.445c-0.021,0.903-0.042,1.81-0.043,2.715
										c-0.002,0.115,0.015,0.22,0.025,0.327c-0.018,0.826-0.037,1.655-0.056,2.483c-0.011,0.238-0.018,0.479-0.017,0.718
										c-0.004,0.228,0.027,0.429,0.075,0.617c-0.011,1.242-0.053,2.485-0.075,3.729c-0.002,0.124,0.015,0.232,0.027,0.348
										c-0.389,2.609-0.381,5.155-0.352,7.798c0.015,1.208,1.03,2.338,2.287,2.287c1.165-0.048,2.348-0.271,3.516-0.354
										c0.901-0.065,1.803-0.09,2.707-0.071c0.758,0.013,1.256,0.512,0.841-0.208c0.87,1.509,3.727,1.437,4.017-0.524
										C85.689,193.381,79.954,193.979,76.123,194.428z"/>
								</g>
								<g>
									<path d="M55.853,269.64c-1.308-1.431-3.134-1.595-4.979-1.731c-0.844-0.064-1.679-0.035-2.52,0.036
										c-0.359,0.038-0.722,0.062-1.082,0.084c-0.154-5.044,0.542-10.105,0.266-15.161c-0.167-3.042-4.385-2.969-4.667,0
										c-0.26,2.713-0.495,5.419-0.508,8.146c-0.002,0.396,0.082,0.735,0.222,1.025c-0.021,0.337-0.041,0.674-0.061,1.011
										c-0.129,2.35-0.462,4.786-0.079,7.117c0.367,2.229,2.551,2.773,4.469,2.721c1.093-0.031,2.164-0.262,3.261-0.273
										c1.455-0.017,2.821,0.354,4.262,0.45C56.283,273.186,56.949,270.841,55.853,269.64z"/>
									<path d="M62.832,260.196c-0.17-2.459-3.406-2.887-4.229-0.57c-0.788,2.221-0.784,4.801-0.504,7.157
										c-0.13,1.149-0.25,2.303-0.292,3.461c0.016-0.004,0.029-0.01,0.045-0.014c-0.049,2.72,4.621,3.205,4.612,0.014
										C62.457,266.884,63.064,263.558,62.832,260.196z"/>
									<path d="M62.296,252.002c-0.54-0.486-1.123-0.716-1.843-0.774c-0.711-0.058-1.35,0.297-1.873,0.731
										c-0.614,0.51-1.109,1.565-1.021,2.373c0.069,0.62,0.071,0.593,0.312,1.159c0.085,0.197,0.28,0.404,0.396,0.549
										c0.253,0.312,0.616,0.505,0.985,0.646c0.234,0.186,0.492,0.317,0.791,0.405c0.49,0.143,0.77,0.089,1.256,0.014
										c1.258-0.192,2.062-1.518,2.038-2.713C63.32,253.523,62.95,252.592,62.296,252.002z"/>
									<path d="M77.886,259.653c-0.188-2.407-3.579-2.593-3.963-0.388c-1.362-0.76-3.016-0.772-4.425,0.267
										c-2.191,1.615-2.855,4.718-3.079,7.281c-0.223,2.562,1.069,4.612,3.417,5.554c0.854,0.342,1.839,0.48,2.764,0.374
										c-0.102,0.697-0.22,1.396-0.385,2.093c-0.237,1.014-2.586,3.731-3.145,1.682c-0.497-1.834-3.28-1.885-3.751,0
										c-0.552,2.209,0.771,3.914,2.779,4.754c2.636,1.104,5.448,0.151,7.229-2.01c1.713-2.081,2.051-5.195,2.18-7.793
										C77.705,267.52,78.192,263.607,77.886,259.653z M71.094,268.436c-0.862-0.395-0.7-1.291-0.653-2.13
										c0.058-1.045,0.407-2.268,0.865-3.204c0.616-1.26,1.293-1.453,2.506-0.878c-0.004,0.147-0.012,0.295-0.015,0.442
										c-0.109,1.671-0.312,3.334-0.53,4.996c-0.359,0.071-0.711,0.252-1.015,0.578C71.8,268.729,71.896,268.802,71.094,268.436z"
										/>
									<path d="M92.479,260.424c-1.312-2.382-3.932-3.326-6.333-2.758c0.054-2.145-0.017-4.292-0.065-6.432
										c-0.062-2.692-3.828-2.576-4.099,0c-0.115,1.105-0.172,2.188-0.122,3.285c-0.109,2.362-0.272,4.72-0.49,7.082
										c-0.284,3.082-0.996,6.025-1.003,9.14c-0.624,2.506,3.906,3.354,4.076,0.313c0.18-3.201,1.041-6.25,1.43-9.415
										c1.348,0.048,2.498,0.163,2.868,1.776c0.463,2.021,0.548,4.509-0.098,6.496c-0.9,2.778,3.442,3.945,4.354,1.197
										C93.986,268.122,94.041,263.26,92.479,260.424z"/>
									<path d="M106.049,262.615c2.186,0.345,3.358-2.242,1.499-3.558c-1.032-0.729-2.312-1.115-3.67-1.301
										c-0.075-2.18-0.24-4.361-0.392-6.522c-0.159-2.312-3.535-2.349-3.616,0c-0.148,2.149-0.275,4.304-0.347,6.456
										c-0.671,0.05-1.317,0.109-1.918,0.171c-1.938,0.196-2.941,2.732-1.041,3.844c0.94,0.549,1.874,0.731,2.854,0.749
										c-0.1,2.054-0.299,4.068-0.034,6.148c0.387,3.027,5.698,7.562,7.75,3.419c0.832-1.679-0.876-3.614-2.62-2.62
										c-1.126,0.644-0.762-5.342-0.648-7.12C104.581,262.383,105.305,262.497,106.049,262.615z"/>
									<path d="M137.762,267.975c2.294,0.641,3.934-2.928,1.658-3.936c-2.173-0.963-4.258-0.915-6.263-0.315
										c-0.203-0.267-0.408-0.532-0.622-0.798c-0.501-0.621-1.007-1.247-1.521-1.865c0.136-0.037,0.269-0.076,0.407-0.11
										c1.547-0.396,3.613-1.146,4.444-2.643c1.939-3.488-0.5-6.697-4.021-7.604c-2.662-0.688-6.056-0.2-8.22,1.543
										c-2.541,2.046-2.483,5.419-0.361,7.717c-2.016,1.547-3.759,3.1-4.597,5.659c-0.625,1.911-0.746,5.688,1.403,6.772
										c3.115,1.572,4.909,1.144,7.779-0.658c1.115-0.698,2.219-1.527,3.355-2.252c0.213,0.412,0.425,0.832,0.643,1.269
										c1.332,2.671,5.959,3.974,7.466,0.769c0.574-1.221-0.665-2.852-1.99-1.988c-0.693,0.447-1.406-0.849-1.819-1.755
										C136.229,267.707,136.976,267.755,137.762,267.975z M126.238,255.975c0.661-1.428,4.052-1.425,5.233-0.9
										c2.066,0.911-2.177,1.889-2.677,2.014c-0.473,0.117-0.931,0.26-1.378,0.424
										C126.711,256.948,126.069,256.34,126.238,255.975z M128.304,266.122c-0.368,0.237-5.354,3.711-5.45,2.758
										c-0.245-2.436,1.009-3.735,2.786-5.147c0.326-0.26,0.646-0.487,0.967-0.706c0.457,0.608,0.89,1.233,1.416,1.779
										c0.306,0.317,0.58,0.638,0.844,0.962C128.677,265.884,128.49,266.002,128.304,266.122z"/>
									<path d="M172.343,261.934c-0.118-2.909-0.029-5.953-0.42-8.831c-0.183-1.345-2.134-2.031-3.188-1.297
										c-2.451,1.708-3.997,4.875-5.043,7.603c-0.573,1.494-1.312,2.855-2.015,4.23c-0.466-1.11-0.94-2.217-1.43-3.308
										c-1.306-2.91-3.103-6.534-5.47-8.704c-0.248-0.229-0.551-0.366-0.866-0.428c-1.046-0.8-2.992-0.336-3.023,1.395
										c-0.029,1.536-0.133,3.072-0.247,4.609c-0.395,4.832-1.057,9.717-0.576,14.489c0.006,0.061,0.009,0.118,0.016,0.179
										c0.001,0.014,0.005,0.022,0.007,0.037c0.02,0.169,0.032,0.338,0.054,0.506c0.005,0.039,0.018,0.072,0.024,0.109
										c0.011,2.485,4.041,2.469,4.042-0.109c0.002-3.026-0.076-6.055-0.083-9.079c0.099-1.267,0.175-2.529,0.241-3.794
										c0.449,0.787,0.896,1.562,1.285,2.342c1.478,2.958,2.397,6.173,4.586,8.723c1.121,1.309,3.667,0.306,3.498-1.447
										c-0.238-2.479,1.423-4.926,2.749-6.898c0.439-0.657,0.852-1.465,1.275-2.299c-0.001,0.661,0.009,1.318,0.046,1.975
										c0.188,3.287-0.049,6.646-0.076,9.938c-0.09,1.547,1.144,2.312,2.375,2.292c1.231,0.021,2.464-0.745,2.375-2.292
										C172.448,268.562,172.479,265.241,172.343,261.934z"/>
									<path d="M240.049,264.315c-0.266-1.887-1.138-3.927-3.134-4.535c-1.469-0.446-2.819-0.274-3.969,0.307
										c0.004-0.234,0.009-0.469,0.011-0.703c0.011-1.596-1.646-2.062-2.693-1.433c-0.665,0.227-1.205,0.795-1.222,1.702
										c-0.022,1.27-0.048,2.544-0.078,3.82c-0.136,1.077-0.24,2.156-0.215,3.239c0.005,0.191,0.04,0.367,0.087,0.53
										c-0.012,0.265-0.021,0.527-0.035,0.793c-0.104,1.187-0.192,2.374-0.238,3.562c-0.235,2.654,4.228,2.727,4.175,0
										c-0.039-2.146,0.017-4.297,0.081-6.446c0.258-0.688,0.775-1.238,1.566-1.556c1.312-0.521,1.321,1.183,1.364,1.938
										c0.127,2.194,0.148,4.407,0.264,6.607c0.147,2.875,4.635,2.888,4.479,0C240.513,269.596,240.405,266.843,240.049,264.315z"
										/>
									<path d="M200.511,269.037c-1.57,0.137-1.858-0.069-1.867-1.696c-0.008-1.366,0.081-2.729,0.063-4.096
										c-0.003-0.257-0.008-0.513-0.013-0.768c0.696-0.046,1.393-0.097,2.087-0.153c2.38-0.201,2.4-3.542,0-3.715
										c-0.716-0.051-1.433-0.065-2.149-0.062c-0.036-2.257-0.066-4.514-0.041-6.77c0.004-0.34-0.057-0.636-0.16-0.892
										c0.003-0.063,0.006-0.13,0.01-0.194c0.116-2.238-3.518-2.761-3.936-0.53c-0.354,1.884-0.483,3.775-0.568,5.688
										c-0.021,0.468,0.089,0.853,0.272,1.166c-0.017,0.505-0.033,1.01-0.05,1.517c-0.688,0.039-1.379,0.093-2.067,0.111
										c-2.7,0.079-2.69,4.328,0,4.188c0.555-0.01,1.104-0.04,1.657-0.083c0.09-0.005,0.181-0.012,0.271-0.016
										c-0.056,2.025-0.077,4.051-0.006,6.063c0.135,3.859,4.945,6.285,7.924,3.686
										C203.221,271.365,202.244,268.887,200.511,269.037z"/>
									<path d="M209.978,270.522c-0.012-1.96-0.022-3.923-0.041-5.887c0.033-0.116,0.062-0.237,0.076-0.366
										c0.137-1.247,0.212-2.555-0.13-3.769c0-0.011,0-0.022-0.001-0.033c-0.078-2.289-3.404-2.268-3.535,0
										c-0.193,3.354-0.594,6.662-0.636,10.024c-0.114,0.586,0.018,1.07,0.292,1.447c0.392,0.631,1.113,0.909,1.841,0.891
										c0.727,0.021,1.448-0.26,1.839-0.891C209.952,271.571,210.082,271.094,209.978,270.522z"/>
									<path d="M210.475,251.479c-0.449-0.604-0.901-0.965-1.604-1.254c-0.633-0.261-1.337-0.048-1.92,0.211
										c-0.777,0.35-1.367,1.354-1.531,2.146c-0.227,1.089,0.015,2.278,0.865,3.052c0.771,0.698,1.798,0.992,2.722,0.685
										c1.028-0.196,1.727-0.837,2.133-1.856C211.511,253.525,211.035,252.233,210.475,251.479z"/>
									<path d="M188.378,261.282c-0.065-1.769-1.76-2.455-3.054-2.071c-0.635-0.1-1.303-0.104-1.788-0.165
										c-2.007-0.252-3.86-0.612-5.866-0.124c-0.991,0.24-1.51,1.141-1.591,2.089c-0.201,2.374,0.006,4.703,0.306,7.06
										c0.188,1.469,0.403,2.885,1.508,3.965c1.088,1.063,2.616,0.992,3.999,0.766c0.851-0.141,1.672-0.384,2.527-0.511
										c0.579-0.086,1.104-0.24,1.645-0.443c0.049,0.002,0.102,0.004,0.159,0.008c0.79,0.047,1.523-0.465,1.927-1.104
										C189.707,268.266,188.48,264.008,188.378,261.282z M180.789,268.768c-0.021-0.072-0.048-0.159-0.079-0.291
										c-0.187-0.776-0.201-1.633-0.278-2.428c-0.104-1.073-0.142-2.146-0.116-3.217c1.219-0.111,2.451-0.025,3.634-0.171
										c0.073,0.953,0.168,1.903,0.19,2.862c0.018,0.738,0.145,1.529,0.127,2.293c-0.324,0.117-0.649,0.235-0.992,0.312
										C182.626,268.271,181.553,268.736,180.789,268.768z"/>
									<path d="M224.119,258.906c-0.583-0.287-1.196-0.271-1.732-0.067c-1.852-0.833-4.277-0.874-6.127-0.827
										c-0.878,0.022-1.971,0.642-2.105,1.604c-0.314,2.231-0.228,4.438-0.156,6.688c0.052,1.65-0.344,3.465,0.127,5.069
										c0.235,0.806,0.989,1.581,1.805,1.806c0.895,0.246,1.497-0.228,2.306-0.248c1.617-0.04,3.197,0.088,4.764-0.432
										c2.938-0.976,3.002-4.104,3.001-6.698C225.996,263.904,226.201,259.928,224.119,258.906z M221.54,267.879
										c-0.021,0.248-0.044,0.375-0.086,0.574c-0.166,0.016-0.329,0.049-0.488,0.106c-0.794,0.19-1.706,0.121-2.531,0.093
										c0.116-2.111,0.008-4.233-0.013-6.354c0.983,0.008,1.994,0.027,2.938-0.114c0.052,0.207,0.088,0.419,0.113,0.629
										c0.104,0.846,0.13,1.696,0.148,2.545C221.638,266.2,221.606,267.041,221.54,267.879z"/>
								</g>
								<g>
									<path d="M86.671,121.723c-0.044-0.481-0.203-0.876-0.433-1.182c-0.148-1.35,0.254-3.032,0.188-4.251
										c-0.11-2.063-0.326-4.147-0.512-6.206c-0.241-2.667,0.144-6.113-1.794-8.227c-0.679-0.736-2.135-0.81-2.8,0
										c-2.028,2.473-3.41,5.884-4.814,8.744c-0.765,1.562-1.365,3.238-1.932,4.878c-0.023,0.065-0.042,0.136-0.062,0.199
										c-0.274-0.736-0.521-1.477-0.78-2.171c-0.676-1.824-1.695-3.402-2.534-5.147c-0.983-2.043-2.682-7.238-5.801-6.312
										c-0.663,0.196-1.293,0.739-1.442,1.442c-0.576,2.71-0.13,5.823-0.154,8.589c-0.014,1.676-0.05,3.351-0.09,5.023
										c-0.022,0.972-0.244,1.876-0.173,2.852c0.021,0.29,0.075,0.563,0.116,0.838c-0.312,0.458-0.434,1.062-0.214,1.8l0.17,0.571
										c0.531,1.781,3.441,2.543,4.316,0.562c1.17-2.646,0.144-5.84,0.098-8.653c-0.022-1.415-0.044-2.829-0.053-4.244
										c0.892,1.848,1.806,3.608,2.505,5.562c0.606,1.694,2.413,7.276,5.274,5.518c2.01-1.237,1.714-4.46,2.24-6.475
										c0.593-2.271,2.07-4.229,3.44-6.084c0.156-0.212,0.297-0.435,0.432-0.66c0.257,1.934,0.13,3.979,0.238,5.914
										c0.168,2.998-0.581,6.194,0.688,9.004c0.857,1.902,4.145,0.985,3.957-1.069C86.721,122.266,86.696,121.994,86.671,121.723z
										"/>
									<path d="M118.166,120.887c-0.37-1.104-0.208-2.28-0.144-3.426c0.102-1.785-0.12-3.6-0.229-5.38
										c-0.193-3.201,0.146-7.104-1.074-10.104c-0.865-2.124-3.528-1.053-3.511,0.467c-0.417,1.597-0.106,3.183,0.06,4.84
										c0.072,0.727,0.106,1.451,0.133,2.182c-1.749-0.65-3.637-0.891-5.479-0.486c-1.015,0.225-1.57,1.195-1.641,2.154
										c-0.133,1.84-0.17,3.598,0.064,5.431c0.257,2.018,0.973,3.943,1.116,5.976c0.082,1.155,0.911,2.146,2.14,2.139
										c1.944-0.012,4.062-0.479,5.854-1.321C116.909,123.816,118.757,122.772,118.166,120.887z M113.519,113.351
										c0.062,1.993-0.178,4.293,0.05,6.392c-0.687,0.188-1.363,0.471-2.041,0.633c-0.374-2.398-1.088-4.725-1.008-7.166
										C111.541,113.233,112.521,113.399,113.519,113.351z"/>
									<path d="M132.724,115.478c-0.045-1.437-0.537-2.702-0.24-4.146c0.342-1.655-1.66-3.068-2.953-1.722
										c-1.168,1.221-1.081,2.776-0.864,4.359c0.249,1.816,0.385,3.807,0.22,5.68c-0.576,0.114-1.148,0.212-1.826,0.206
										c-0.412-0.009-0.824-0.008-1.235,0.005c-0.189,0.011-0.38,0.02-0.568,0.026c-0.624,0.063-0.688,0.039-0.198-0.073
										c-0.155-2.805-0.008-5.604-0.032-8.411c0.309-2.657-4.169-2.774-4.235,0c-0.055,2.247-0.178,4.491-0.195,6.739
										c-0.014,1.81-0.062,3.918,1.393,5.226c2.244,2.015,6.812,0.512,9.358,0.131c0.941-0.143,1.53-1.188,1.56-2.047
										C132.971,119.457,132.786,117.469,132.724,115.478z"/>
									<path d="M140.234,108.418c-0.004-1.629-0.008-3.258-0.012-4.888c0.002-0.791-0.358-1.347-0.863-1.679
										c-0.164-0.307-0.357-0.601-0.597-0.876c-0.764-0.879-2.241-0.161-2.229,0.924c0,0.079-0.006,0.155-0.006,0.234
										c-0.318,0.335-0.529,0.795-0.527,1.396c-0.003,1.63-0.008,3.259-0.012,4.888c0,0.089,0.017,0.167,0.025,0.25
										c0.011,4.44,0.024,8.884,0.063,13.326c0.022,2.623,4.046,2.623,4.067,0c0.038-4.355,0.052-8.711,0.062-13.066
										C140.235,108.77,140.247,108.601,140.234,108.418z"/>
									<path d="M153.854,122.271c-0.779-0.64-1.718-0.964-1.734-2.177c-0.019-1.204,0.09-2.426,0.11-3.632
										c0.032-1.875-0.437-3.962-1.646-5.442c-1.66-2.027-5.983-3.471-7.507-0.476c-0.521,1.021,0.542,2.2,1.597,1.598
										c2.396-1.369,3.492,0.064,3.984,2.062c-1.303-0.371-2.771-0.356-4.012-0.01c-2.123,0.598-3.184,2.908-2.904,4.969
										c0.515,3.812,5.196,5.256,8.376,3.93c0.458,0.528,1.074,1.018,1.884,1.582C153.42,125.662,155.197,123.369,153.854,122.271
										z M148.961,120.04c-1.397,0.882-3.521,0.126-3.869-1.546c-0.196-0.951,0.687-1.252,1.417-1.289
										c0.859-0.043,1.699,0.026,2.512-0.136c0.038,0.883,0.023,1.679,0.014,2.207c-0.006,0.259-0.001,0.494,0.008,0.724
										C149.015,120.016,148.989,120.023,148.961,120.04z"/>
									<path d="M167.316,111.138l-0.027-0.119c-0.167-0.688-0.767-0.983-1.404-1.066c-2.237-0.293-3.484,0.729-5.188,2.021
										c-0.104,0.08-0.212,0.163-0.317,0.248c-0.01-0.452-0.023-0.905-0.047-1.356c0.154-2.388-3.567-2.38-3.709,0
										c-0.229,3.88-0.366,7.789-0.42,11.677c0.01-0.001,0.02-0.003,0.027-0.004c0.059,2.453,3.99,2.681,3.979,0.004
										c-0.008-1.695,0.051-3.396,0.104-5.099c1.062-2.268,3.51-4.22,5.959-4.631c0.474-0.08,0.91-0.564,1.019-1.017
										C167.341,111.567,167.372,111.369,167.316,111.138z"/>
									<path d="M181.695,103.531c-0.089-2.624-4.137-2.641-4.083,0c-0.001,0.229,0.01,0.461,0.012,0.689
										c-0.067,0.253-0.068,0.527,0.014,0.813c0.008,0.344,0.014,0.688,0.026,1.03c0.009,0.421,0.018,0.845,0.025,1.267
										c-0.021,0.254,0.015,0.476,0.072,0.679c0.09,1.444,0.205,2.887,0.302,4.333c0.215,3.214,0.016,6.439,0.224,9.65
										c0.001,0,0.003-0.001,0.004-0.001c-0.037,2.577,4.165,2.979,4.358,0.001C183.054,115.765,181.905,109.725,181.695,103.531z
										"/>
									<path d="M197.111,94.593c-0.107,0.186-0.193,0.374-0.286,0.562c-1.502,1.553-2.292,3.712-2.92,5.743
										c-0.97,3.146-2.209,6.146-3.337,9.239c-1.219,3.341-2.25,6.741-3.419,10.102c-0.958,2.751-2.675,5.637-2.918,8.544
										c-0.25,3.002,3.936,3.07,4.875,0.657c2.208-5.668,4.11-11.426,5.979-17.213c0.867-2.688,1.91-5.322,2.882-7.977
										c0.976-2.657,2.422-5.25,2.998-8.035C201.437,93.931,198.354,92.45,197.111,94.593z"/>
									<path d="M218.854,112.395c0.395-1.271,0.654-2.574,0.562-4.057c-0.159-2.488-1.448-4.613-3.284-6.062
										c-0.672-0.626-1.473-1.14-2.419-1.501c-0.634-0.239-1.294-0.364-1.961-0.408c-0.94-0.143-1.908-0.138-2.861,0.046
										c-1.646,0.312-3.035,1.212-4.135,2.426c-0.854,0.681-1.597,1.455-2.166,2.267c-2.715,3.867-2.562,10.012-0.825,14.208
										c1.854,4.484,7.186,7.121,11.383,3.812c0.696-0.55,1.288-1.163,1.81-1.821c1.984-2.166,3.23-5.592,3.714-7.845
										C218.742,113.11,218.802,112.754,218.854,112.395z M204.956,115.707c-1.16-4.596,1.021-11.977,7.043-10.75
										c0.352,0.069,0.649,0.214,0.91,0.404c0.023,0.02,0.048,0.034,0.071,0.055c1.853,1.481,1.426,5.797,1.035,7.602
										c-0.501,2.318-1.879,5.26-4.242,6.129c-0.688,0.253-1.117,0.689-1.333,1.188
										C206.748,119.845,205.414,117.521,204.956,115.707z"/>
									<path d="M102.257,110.885c-0.189-1.374-1.539-1.666-2.581-1.209c-2.479-0.89-6.266-1.799-8.078,0.015
										c-1.601,1.602-0.99,4.831-1.148,6.892c-0.176,2.264-0.633,5.217,1.176,6.973c1.03,1,2.501,0.888,3.799,0.709
										c0.855-0.118,1.628-0.437,2.504-0.459c1.079-0.027,2.177,0.044,3.259,0.039c1.212-0.005,2.044-0.963,2.12-2.119
										C103.541,118.101,102.751,114.451,102.257,110.885z M94.986,120.273c-0.325-0.047-0.532-0.03-0.626,0.038
										c-0.039-0.26-0.045-0.525-0.057-0.783c-0.037-0.828,0.036-1.669,0.094-2.495c0.096-1.385,0.016-2.791,0.209-4.164
										c0.564,0.007,1.133,0.123,1.691,0.192c0.756,0.099,1.507,0.185,2.26,0.229c0.134,0.966,0.315,1.929,0.339,2.912
										c0.027,1.17,0.159,2.309,0.208,3.456C97.728,119.741,96.41,119.927,94.986,120.273z"/>
								</g>
							</g>
							<g id="Signals">
								<path fill="#4E8EA5" d="M186.438,77.935c-0.537-0.938-1.042-1.517-2.124-1.787c-2.112-0.526-3.38,1.565-2.947,3.155
									c-0.766,1.247-1.458,2.526-2.109,3.828c0.129-4.898-0.43-9.733-2.467-14.543c-2.993-7.065-10.634-14.983-18.541-15.842
									c-22.141-2.404-29.64,27.377-50.466,28.59c-8.191,0.477-6.411-7.906-5.444-13.077c0.852-4.551,1.575-9.222,0.879-13.847
									c-1.188-7.913-4.431-14.847-12.949-16.26c-7.051-1.17-15.201,1.216-21.752,3.68c-6.429,2.418-12.967,7.194-12.955,14.667
									c0.003,1.907,2.649,1.783,2.875,0c1.044-8.277,10.643-11.103,17.521-12.558c6.583-1.392,15.882-3.329,20.103,3.479
									c5.234,8.448,0.733,18.842,0.062,27.742c-0.437,5.777,4.409,11.088,10.209,11.195c17.845,0.335,26.241-17.208,39.588-25.646
									c3.923-2.48,8.439-3.854,13.052-2.896c4.896,1.018,9.054,5.987,11.766,9.907c3.601,5.204,4.089,11.292,3.643,17.37
									c-0.843-1.541-1.733-3.056-2.668-4.542c-0.629-1-1.567-3.017-2.88-3.196c-1.125-0.151-2.451,0.462-2.374,1.81
									c0.062,1.107,0.813,1.747,1.443,2.578c0.141,0.184,0.27,0.376,0.405,0.562c1.146,2.597,2.153,5.261,2.607,8.063
									c0.353,2.172,0.719,4.716,2.498,6.217c0.903,0.763,1.99,0.752,2.771,0.256c0.767-0.132,1.479-0.657,1.831-1.695
									c0.792-2.331,2.354-4.11,3.754-6.084c1.867-2.627,2.812-5.96,4.667-8.667C186.924,79.686,186.848,78.652,186.438,77.935z"/>
								<path fill="#4E8EA5" d="M220.34,149.84c-1.713,1.816-3.175,3.713-4.583,5.771c-0.98,1.438-1.89,2.927-2.83,4.39
									c-0.079,0.125-0.218,0.383-0.39,0.706c-0.161-3.479,0.021-6.979-0.469-10.462c-0.921-6.557-1.456-13.16-2.103-19.745
									c-0.121-1.241-1.829-1.253-1.938,0c-0.526,6.146-0.374,12.301-0.167,18.461c0.135,3.971-0.292,8.142,0.056,12.161
									c-1.91-2.816-3.832-5.604-4.686-9.056c-0.433-1.748-3.385-1.415-3.191,0.434c0.562,5.376,5.439,9.555,8.88,13.743
									c0.018,0.05,0.028,0.101,0.046,0.148c0.206,0.602,0.582,1.019,1.042,1.259c0.13,0.181,0.264,0.356,0.385,0.536
									c0.395,0.582,1.441,0.275,1.312-0.408c0.119-0.035,0.239-0.071,0.359-0.127c1.837-0.839,2.52-2.363,3.331-4.143
									c1.759-3.848,4.769-7.938,7.598-11.018C224.622,150.716,222.005,148.074,220.34,149.84z"/>
								<path fill="#4E8EA5" d="M31.642,249.734c-3.562-5.616-9.682-9.705-15.203-13.224c-1.517-0.966-3.005,1.163-1.854,2.405
									c4.345,4.695,10.708,6.971,14.44,12.349C30.124,252.848,32.701,251.404,31.642,249.734z"/>
								<path fill="#4E8EA5" d="M32.783,258.988c-4.748,3.027-10.62,2.987-15.429,5.84c-2.181,1.292-0.272,4.396,1.956,3.346
									c4.984-2.354,10.638-2.992,15.237-6.162C36.385,260.745,34.706,257.762,32.783,258.988z"/>
								<path fill="#4E8EA5" d="M31.261,274.094c-1.923,2.461-4.99,4.267-7.386,6.23c-1.771,1.449-5.667,4.182-3.471,6.768
									c0.75,0.882,2.513,0.561,2.897-0.539c0.143-0.173,0.271-0.361,0.39-0.547c0.189-0.297,0.563-0.659,0.832-0.958
									c1.053-1.171,2.219-2.244,3.364-3.321c1.933-1.813,4.271-3.563,5.752-5.797C34.585,274.508,32.324,272.733,31.261,274.094z"
									/>
								<path fill="#4E8EA5" d="M40.593,285.481c-1.604,2.69-3.309,5.317-5.043,7.925c-1.483,2.232-3.771,4.623-4.479,7.229
									c-0.571,2.102,1.858,3.105,3.344,1.945c2.088-1.631,3.441-4.783,4.842-7.007c1.667-2.648,3.29-5.326,4.817-8.059
									C45.344,285.245,41.924,283.25,40.593,285.481z"/>
								<path fill="#4E8EA5" d="M60.506,287.417c-0.586-1.933-3.467-1.132-3.014,0.831c0.998,4.315-2.15,8.945-3.202,13.021
									c-0.393,1.519,1.027,3.095,2.604,2.605c1.098-0.341,1.767-1.066,1.986-2.188c0.095-0.479,0.014-0.918-0.172-1.294
									C59.64,296.084,61.858,291.875,60.506,287.417z"/>
								<path fill="#4E8EA5" d="M79.18,306.985c-1.515-1.665-0.346-6.53-0.438-8.65c-0.152-3.426-0.414-6.827-1.143-10.185
									c-0.312-1.429-2.768-1.127-2.578,0.351c0.566,4.439,0.571,9.188-0.116,13.615c-0.414,2.661-1.021,5.913,1.248,7.896
									C78.226,311.823,81.048,309.04,79.18,306.985z"/>
								<path fill="#4E8EA5" d="M102.442,297.918c-2.072-5.102-4.318-10.126-6.393-15.228c-0.843-2.072-4.208-1.259-3.437,0.947
									c1.812,5.168,3.799,10.273,5.608,15.441C99.162,301.76,103.49,300.496,102.442,297.918z"/>
								<path fill="#4E8EA5" d="M278.094,264.5c-0.059-0.847-0.586-1.336-1.194-1.486c-1.292-2.938-2.62-5.895-2.875-9.098
									c-0.176-2.212-0.524-4.365-2.586-5.521c-1.007-0.562-2.057-0.12-2.569,0.788c-0.146,0.065-0.286,0.15-0.419,0.266
									c-1.853,1.583-3.199,3.614-4.984,5.269c-1.802,1.669-4.269,3.41-5.516,5.599c-0.104,0.106-0.207,0.212-0.312,0.32
									c-1.726,1.794,1.042,4.554,2.729,2.727c0.172-0.164,0.339-0.324,0.507-0.491c0.145-0.146,0.249-0.296,0.336-0.45
									c0.7-0.776,1.392-1.562,2.083-2.343c0.939-0.711,1.834-1.477,2.669-2.305c-1.095,3.622-2.129,7.271-3.349,10.835
									c-2.803,8.201-7.613,13.824-15.794,16.842c-5.876,2.167-11.751,3.303-17.837,4.179c-1.529-2.827-3.979-5.301-6.959-6.873
									c-4.29-2.263-9.604-1.16-14.015,0.053c-5.891,1.62-11.521,3.777-16.6,7.186c-5.237,3.513-10.21,8.191-16.756,8.907
									c-0.528,0.06-1.084,0.075-1.646,0.059c0.972-0.577,1.896-1.249,2.756-2.041c2.243-2.067,4.594-8.079,1.322-10.269
									c-3.107-2.078-8.036-1.689-11.167,0.22c-2.818,1.718-4.656,7.053-2.995,10.057c0.104,0.188,0.214,0.36,0.323,0.537
									c-2.772,0.157-5.612-0.1-8.053-0.353c-7.278-0.752-14.536-3.344-21.087-6.496c-5.805-2.795-10.998-6.833-16.27-10.477
									c-2.952-2.04-8.164-3.205-10.371,0.7c-3.076,5.443,1.812,15.783,8.092,16.779c1.355,0.215,2.741-1.094,1.896-2.467
									c-0.195-0.314-0.392-0.633-0.587-0.948c-0.372-0.604-1.042-0.791-1.653-0.688c-2.578-2.425-6.12-8.938-3.6-10.618
									c2.312-1.541,7.438,3.321,9.058,4.499c3.145,2.289,6.503,4.281,9.869,6.221c9.841,5.67,22.188,8.901,33.562,7.997
									c0.983-0.076,1.952-0.218,2.902-0.406c6.001,3.477,14.751,0.25,20.395-3.355c5.403-3.453,9.912-7.016,16.039-9.197
									c6.938-2.469,14.446-5.459,20.478,0.472c0.347,0.341,0.676,0.721,0.98,1.128c-3.857,0.907-7.556,3.715-9.479,7.039
									c-1.501,2.592-1.146,7.32,1.55,9.086c3.185,2.083,6.938,0.561,9.625-1.72c3.905-3.313,4.789-7.736,3.673-11.862
									c3.315-0.215,6.432-0.978,9.687-1.753c5.562-1.33,11.115-3.123,15.917-6.289c4.812-3.174,7.53-8.437,9.643-13.62
									c2.08-5.104,3.412-10.477,5.078-15.72c0.031,0.619,0.062,1.186,0.146,1.573c0.769,3.537,2.699,7.159,4.278,10.387
									c0.75,1.528,3.347,0.818,3.229-0.875C278.186,265.833,278.14,265.167,278.094,264.5z M171.337,295.018
									c-1.168,0.853-2.512,1.427-3.944,1.813c-0.918-0.987-1.413-2.348-1.129-4.163c0.418-2.669,2.721-3.193,4.984-3.198
									C175.48,289.46,173.331,293.566,171.337,295.018z M225.55,300.583c-0.863,1.001-1.943,1.77-3.044,2.48
									c-3.912,2.535-5.696-3.095-3.406-6.028c1.744-2.237,4.561-3.374,7.359-3.874
									C227.369,295.686,227.332,298.519,225.55,300.583z"/>
								<path fill="#4E8EA5" d="M196.919,228.744c0-1.51-1.025-2.32-2.284-2.867c0.455-0.26,0.886-0.568,1.268-0.976
									c0.301-0.317,0.477-0.808,0.328-1.24c-0.354-1.04-0.948-1.682-1.69-2.16c0.744-0.479,1.341-1.12,1.694-2.161
									c0.604-1.779-1.505-2.48-2.823-3.292c1.753-2.003-1.1-3.438-3.235-4.855c0.97-0.549,1.887-1.149,2.83-1.83
									c0.562-0.401,0.729-1.359,0-1.727c-2.663-1.336-5.554,0.016-8.374-0.611c-0.635-0.141-0.837,0.716-0.262,0.949
									c1.799,0.736,4.032,0.237,5.927,0.645c-0.848,0.457-1.712,0.882-2.608,1.243c-0.828,0.329-1.164,1.271-0.521,1.974
									c0.423,0.462,4.091,2.826,3.695,3.073c-0.561,0.348-0.846,1.146-0.455,1.73c1.007,1.512,3.858,2.349,0.753,3.629
									c-1.209,0.499-1.21,1.967,0,2.465c2.084,0.857,0.845,1.495-0.499,2.039c-1.186,0.48-1.23,1.993,0,2.458
									c0.162,0.062,3.271,1.397,2.811,1.572c-0.926,0.352-1.777,0.565-2.613,1.099c-0.572,0.366-0.833,1.137-0.457,1.742
									c1.129,1.824,2.594,1.75,0.457,2.758c-0.475,0.226-0.774,0.946-0.585,1.438c0.428,1.104,2.303,2.936,1.328,3.761
									c-0.433,0.366-0.471,1.08-0.198,1.543c-0.228-0.387-0.551-0.157-0.854,0.293c-0.339,0.117-0.617,0.363-0.671,0.755
									c-0.061,0.442-0.134,0.865-0.138,1.312c-0.014,1.651,2.366,1.587,2.521,0c0.358-0.091,0.719-0.183,1.077-0.272
									c0.52-0.081,0.979-0.716,0.936-1.228c-0.142-1.692,0.221-1.008,0.656-2.59c0.155-0.566-1.176-3.571-1.553-3.395
									c2.86-1.349,1.412-2.907,0.098-4.494C195.003,230.99,196.919,230.425,196.919,228.744z"/>
								<path fill="#4E8EA5" d="M211.942,227.113c-1.683-1.697-0.887-1.567-0.887-3.574c0-1.266-1.237-2.265-2.269-3.12
									c1.118-1.175,2.188-2.337,2.104-4.071c-0.03-0.604-0.448-1.326-0.897-1.697c-1.923-1.586-2.2-1.434-1.236-3.707
									c0.229-0.54,0.06-1.082-0.522-1.283c-2.091-0.732-4.035-0.683-6.231-0.518c-0.465,0.035-0.461,0.678,0,0.719
									c1.121,0.101,5.516,0.108,3.74,2.068c-0.286,0.316-0.396,0.782-0.396,1.203c0,0.518,0.399,1.007,0.745,1.353
									c2.799,2.801,1.74,3.199,0.023,5.131c-0.467,0.524-0.487,1.253,0,1.773c0.698,0.749,2.752,1.856,1.482,3.209
									c-0.389,0.415-0.507,1.048-0.2,1.549c1.331,2.174,2.636,2.792-0.031,4.77c-0.758,0.561-0.859,1.632,0,2.174
									c2.133,1.347-0.238,1.046-0.958,2.272c-1,1.708,1.087,4.229-0.546,5.519c-0.406,0.104-0.727,0.305-1.263,0.722
									c-0.998,0.776,0.081,2.571,1.238,2.128c0.424-0.162,0.799-0.312,1.141-0.479c0.007-0.002,0.016-0.004,0.021-0.006
									c0.521-0.054,0.87-0.354,1.052-0.728c0.312-0.307,0.577-0.688,0.805-1.211c0.415-0.949-0.55-4.525,0.22-4.822
									c2.773-1.067,2.479-2.88,1.041-4.376C211.971,230.888,214.055,229.247,211.942,227.113z"/>
								<path fill="#4E8EA5" d="M225.888,221.93c0.886-1.193,0.851-2.711,0.324-3.969c-0.27-0.643-0.651-0.884-1.198-1.412
									c-0.169-0.163,1.396-2.442,1.555-2.773c1.2-2.503-0.727-3.355-2.609-3.884c0.459-0.59,0.843-1.199,1.194-2.01
									c0.188-0.434,0.063-0.979-0.451-1.111c-2.469-0.633-4.854,0.499-7.284,0.93c-0.354,0.062-0.264,0.618,0.083,0.612
									c1.16-0.019,7.734-1.571,3.95,1.247c-0.781,0.582-0.664,1.638,0.26,1.991c2.725,1.042,1.59,2.452,0.169,4.294
									c-0.34,0.44-0.186,1.218,0.203,1.573c2.564,2.349,0.59,3.007,0.59,5.582c0,1.569,1.836,1.72,0.697,3.859
									c-0.542,1.02-1.061,2.013-0.387,3.161c1.151,1.966-1.054,3.353-2.421,4.54c-0.542,0.474-0.488,1.396,0,1.876
									c-0.346,0.762-0.917,1.241-1.717,1.442c-0.787,0.376-0.789,1.466-0.264,2.038c0.349,0.377-0.447,0.955-1.188,1.387
									c-0.756-0.186-1.733,0.271-1.659,1.195c0.004,0.055,0.009,0.101,0.013,0.15c-0.064,0.272-0.041,0.561,0.072,0.821
									c0.073,0.549,0.228,0.941,0.768,1.479c0.494,0.488,1.376,0.529,1.864,0c0.159-0.175,0.318-0.349,0.479-0.521
									c0.294-0.32,0.446-0.834,0.35-1.278c1.531-0.993,2.663-2.103,2.046-3.678c1.467-0.951,2.496-2.273,1.917-3.737
									c2.317-2.043,2.938-2.965,2.408-6.44c-0.196-1.293,0.808-1.627,1.178-2.975C227.143,225.176,225.365,222.633,225.888,221.93
									z"/>
								<path fill="#4E8EA5" d="M242.842,230.206c0.134-1.824-0.894-2.482-2.16-3.128c1.717-2.161,2.431-4.042-0.371-5.687
									c0.881-1.508,2.014-2.741,1.462-4.744c-0.405-1.476-1.797-2.504-3.147-3.343c0.934-0.881,1.559-1.751,1.581-3.306
									c0.023-1.585-1.405-2.287-2.566-3.081c0.667-0.809,0.802-1.573,0.631-2.919c-0.068-0.54-0.437-0.814-0.974-0.741
									c-1.601,0.217-3.188,0.532-4.796,0.694c-0.688,0.067-0.717,1.113,0,1.094c0.607-0.02,6.126-0.801,2.947,1.008
									c-0.646,0.368-0.676,1.197-0.222,1.719c1.363,1.572,2.612,2.953,0.377,4.83c-0.658,0.552-0.376,1.578,0.256,1.991
									c2.858,1.871,2.586,4.144,1.461,6.716c-0.271,0.623-0.242,1.536,0.49,1.868c1.856,0.84,0.638,2.277-0.298,3.334
									c-0.598,0.675-0.522,1.707,0.281,2.192c1.727,1.039,2.966,1.399-0.164,1.959c-1.051,0.187-1.301,1.632-0.61,2.313
									c1.552,1.537,0.765,2.046-0.483,3.559c-0.369,0.444-0.586,1.121-0.213,1.649c1.281,1.821,0.48,3.311-0.491,5.13
									c-0.288,0.539-0.23,1.198,0.211,1.641c0.226,0.224,0.101,0.51-0.2,0.804c-0.155,0.019-0.312,0.073-0.467,0.174
									c-0.831,0.548-1.702,0.921-2.556,1.405c-1.378,0.782-0.414,2.755,1.036,2.457c2.45-0.504,5.972-3.325,4.727-5.873
									c1.431-2.592,2.145-3.771,0.604-6.323c1.78-2.116,2.521-3.07,1.268-4.879C241.648,232.207,242.755,231.388,242.842,230.206z
									"/>
								<path fill="#4E8EA5" d="M257.786,215.646c-0.175-0.633-0.682-1.298-1.217-1.686c-1.841-1.336-0.646-2.09-0.312-3.612
									c0.165-0.748-0.294-1.52-1.055-1.631c0.084-0.465-0.104-0.886-0.438-1.152c0.018-0.028,0.031-0.056,0.049-0.087
									c0.343-0.645-0.085-1.395-0.815-1.422c-1.354-0.051-2.658,0.049-4-0.117c-0.649-0.081-0.733,0.932-0.148,1.105
									c0.629,0.188,1.203,0.296,1.779,0.4c-1.045,0.226-0.914,1.896,0.071,2.138c0.223,0.055,0.396,0.097,0.548,0.133
									c-0.197,0.676,0.294,1.338,0.928,1.521c-0.394,0.903-0.668,1.526-0.137,3.012c0.23,0.646,0.812,1.01,1.352,1.402
									c1.662,1.219-2.099,3.711-2.846,4.398c-0.346,0.318-0.478,0.867-0.347,1.312c0.153,0.529,0.278,1.472,0.896,1.752
									c1.43,0.654-0.678,2.34-1.275,3.2c-0.385,0.557-0.16,1.593,0.49,1.868c1.586,0.67,1.308,0.14,0.346,1.502
									c-0.498,0.706-0.514,1.503-0.531,2.319c-0.015,0.638,0.497,1.293,0.918,1.714c1.087,1.087-0.882,2.515-1.515,3.313
									c-0.533,0.678-0.56,1.682,0.278,2.156c1.417,0.807-0.468,2.936-0.854,4.271c-0.355,1.23,1.806,2.678,0.431,3.633
									c-2.721,1.891-0.318,4.277-2.328,5.965c-1.165,0.979,0.359,2.929,1.618,2.098c1.259-0.83,3.121-2.194,2.622-4.011
									c-0.37-1.345-1.417-1.139,0.281-2.309c0.578-0.398,1.247-1.083,1.271-1.834c0.087-2.769-1.677-2.896,0.143-5.646
									c0.969-1.467,0.492-2.67-0.498-3.599c1.493-1.804,3.405-4.523,0.826-5.879c-0.901-0.476,1.195-2.67,1.008-3.658
									c-0.155-0.817-0.594-1.315-1.163-1.688c0.83-0.91,1.688-1.929,1.417-3.152c-0.125-0.565-0.188-1.726-0.896-2.044
									c-0.962-0.437,0.711-0.812,1.358-1.643C257.028,218.426,258.289,217.474,257.786,215.646z"/>
								<path fill="#4E8EA5" d="M94.625,205.359c-1.32,0.779-2.79,1.045-4.11,1.812c-0.198,0.115-0.321,0.268-0.395,0.434
									c-0.31,0.098-0.619,0.188-0.928,0.286c-0.837,0.261-1.006,1.122-0.625,1.718c-0.902,0.237-1.818,0.445-2.69,0.83
									c-0.731,0.323-0.748,1.258-0.321,1.826c-0.413-0.115-0.875,0.057-1.391,0.526c-0.831,0.271-1.317,1.452-0.556,2.102
									c-0.125-0.105,2.07,1.738,2.041,1.762c-0.506,0.412-1.107,0.858-1.294,1.534c-0.275,1.005,0.592,1.95,1.396,2.732
									c-0.812,0.794-1.277,1.748-0.55,2.991c0.424,0.724,1.435,0.705,0.523,1.63c-0.72,0.73-1.312,1.502-0.999,2.639
									c0.14,0.504,0.531,1.319,0.902,1.693c0.706,0.712-0.547-0.213-1.01,0.249c-0.286,0.286-0.435,0.718-0.637,1.062
									c-1.331,2.271,1.667,2.812,0.098,4.398c-0.568,0.573-0.487,1.646,0.263,2.042c2.927,1.531,2.866,5.162,6.3,5.673
									c1.667,0.248,2.437-2.157,0.715-2.592c-1.062-0.27-1.859-2.614-2.466-3.472c-0.403-0.567-1.071-0.927-1.759-1.226
									c0.58-0.843,0.835-1.756,0.183-2.871c-0.466-0.796-1.194-0.453-1.026-0.844c0.325-0.758,1.354-1.378,1.776-2.171
									c0.262-0.491,0.212-1.096-0.192-1.496c-1.619-1.604,0.636-1.414,1.05-2.923c0.497-1.807-2.077-2.781-0.826-3.686
									c0.646-0.466,0.769-1.241,0.238-1.854c-1.383-1.61-0.754-1.681,0.214-3.053c0.3-0.423,0.189-1.135-0.189-1.473
									c-0.446-0.396-0.904-0.779-1.361-1.16c0.276-0.094,0.556-0.188,0.833-0.282c0.508-0.172,0.94-0.626,0.913-1.196
									c-0.019-0.363-0.052-0.687-0.111-0.974c1.369-0.39,2.703-0.606,3.977-1.487c0.585-0.405,0.688-1.12,0.412-1.636
									c0.401-0.273,0.565-0.771,0.485-1.212c0.638-0.31,1.273-0.622,1.869-1.052C96.134,206.091,95.466,204.863,94.625,205.359z"
									/>
								<path fill="#4E8EA5" d="M76.63,204.631c-0.298-0.46-0.408-0.691-0.947-0.794c-0.864-0.166-1.221,1.061-0.365,1.326
									c-1.744-0.542-4.186,0.468-6.11,0.771c-0.923,0.146-0.971,1.164-0.49,1.752c-0.136,0.635,0.177,1.362,0.925,1.617
									c0.27,0.091,0.554,0.165,0.841,0.239c-0.725,0.249-1.475,0.421-2.343,0.646c-1.391,0.36-1.184,2.172-0.027,2.578
									c-1.086,0.876-2.511,1.519-3.509,2.335c-0.605,0.497-0.439,1.661,0.257,1.994c2.339,1.119-1.011,1.66-1.069,3.404
									c-0.082,2.42,2.289,2.687,0.649,5.38c-0.333,0.547-0.148,1.382,0.44,1.681c1.458,0.74,2.509,1.406,0.718,3.036
									c-0.479,0.437-0.521,1.38,0,1.807c1.181,0.965,2.258,1.293,1.276,2.938c-0.431,0.721-0.031,1.7,0.779,1.916
									c0.733,1.024,1.468,2.048,2.201,3.072c-0.287,0.5-0.232,1.207,0.207,1.606c0.725,0.507,1.21,1.198,1.462,2.068
									c-0.066,0.096-0.133,0.193-0.204,0.303c-0.826,1.291,1.188,2.893,2.146,1.657c0.114-0.146,0.217-0.276,0.312-0.396
									c0.259-0.182,0.417-0.425,0.483-0.69c0.233-0.421,0.3-0.834,0.215-1.646c-0.085-0.815-1.869-2.388-1.656-2.77
									c1.37-2.456-0.857-4.26-2.969-5.188c0.882-2.004,0.178-2.655-1.426-3.886c0.941-1.029,1.686-2.252,1.281-3.72
									c-0.34-1.237-1.351-1.51-2.383-1.806c0.585-1.005,1.119-2.16,0.838-3.184c-0.129-0.471-1.694-2.058-1.805-1.926
									c1.866-2.244,2.965-3.396,1.469-4.749c1.5-0.874,2.98-1.653,3.832-3.328c0.11-0.218,0.168-0.482,0.162-0.743
									c0.807-0.307,1.581-0.692,2.364-1.264c0.681-0.496,0.958-1.479,0.273-2.128c-0.157-0.149-0.316-0.28-0.479-0.399
									c0.663-0.332,0.879-1.104,0.646-1.693c0.584-0.249,1.164-0.519,1.742-0.818C76.709,205.453,76.839,204.954,76.63,204.631z"
									/>
								<path fill="#4E8EA5" d="M56.636,241.911c-0.601-0.38-1.175-0.652-1.764-0.891c0.064-0.113,0.134-0.243,0.208-0.391
									c0.236-0.472,0.25-1.146-0.196-1.519c-0.467-0.391-2.515-1.883-2.055-2.584c0.292-0.444,0.369-1.342,0.235-1.824
									c-0.405-1.477-2.06-2.292-3.579-2.975c0.59-0.398,1.145-0.804,1.666-1.558c0.434-0.625,0.09-1.447-0.479-1.827
									c-0.546-0.365-1.202-0.641-1.801-0.986c1.093-0.489,2.081-0.97,3.064-1.923c0.54-0.521,0.478-1.346,0-1.876
									c-0.218-0.243-0.438-0.442-0.661-0.62c0.752-0.41,1.479-0.849,2.158-1.507c0.617-0.598,0.434-1.514-0.149-1.973
									c0.327-0.343,0.624-0.755,0.877-1.283c0.438-0.913-0.084-2.006-1.163-2.026c-0.273,0.016-0.547,0.015-0.817-0.001
									c0.254-0.234,0.504-0.476,0.771-0.699c0.748-0.674,0.36-2.019-0.594-2.249c-0.014-0.005-0.026-0.008-0.041-0.012
									c0.206-0.253,0.393-0.521,0.606-0.769c0.547-0.65,0.497-1.582-0.265-2.053c-0.546-0.338-1.066-0.575-1.593-0.781
									c0.258-0.223,0.51-0.469,0.763-0.76c0.346-0.398,0.375-1.063,0.12-1.521c1.296-0.345,2.619-0.61,4.05-0.739
									c0.721-0.063,0.745-1.166,0-1.141c-3.188,0.109-6.167,0.864-9.254,1.649c-0.897,0.229-0.931,1.633,0,1.843
									c0.165,0.037,0.312,0.055,0.471,0.083c-0.845,0.544-0.466,1.96,0.446,2.215c0.749,0.161,1.472,0.394,2.174,0.683
									c-0.374,0.414-0.712,0.853-0.985,1.428c-0.312,0.654-0.149,1.471,0.477,1.823c-0.345,0.357-0.678,0.73-0.998,1.163
									c-0.542,0.732,0.047,1.755,0.811,1.991c0.153,0.048,0.302,0.079,0.452,0.119c-0.472,0.106-0.964,0.182-1.446,0.289
									c-1.3,0.288-1.25,2.253,0,2.571c0.158,0.038,0.308,0.065,0.461,0.102c-0.291,0.167-0.562,0.328-0.773,0.469
									c-1.017,0.673-0.749,1.996,0.315,2.419c0.134,0.081,0.268,0.162,0.399,0.243c-0.937,0.49-2.037,0.989-2.72,1.332
									c-0.612,0.307-0.875,1.253-0.479,1.821c0.729,1.045,1.561,1.555,2.498,2.092c-0.6,0.424-1.26,0.785-1.78,1.304
									c-0.597,0.598-0.472,1.649,0.268,2.07c0.991,0.565,4.671,1.489,3.563,3.218c-0.245,0.383-0.219,0.901,0,1.287
									c0.162,0.284,2.123,2.675,1.971,2.777c-0.924,0.615-0.746,1.925,0.298,2.285c0.562,0.168,1.109,0.367,1.646,0.601
									c0.11,0.517,0.504,0.962,1.188,0.959c0.333-0.001,0.667-0.003,1-0.005C57.283,244.255,57.684,242.574,56.636,241.911z"/>
								<path fill="#4E8EA5" d="M37.141,204.886c-1.227,0.594-2.396,0.765-3.567,0.714c-0.088-0.052-0.184-0.093-0.294-0.112
									c-0.512-0.087-1.028-0.144-1.546-0.193c-0.164-0.188-0.406-0.312-0.732-0.311c-0.667-0.005-1.333-0.01-2-0.015
									c-1.14-0.009-1.439,1.815-0.273,2.026c0.264,0.047,0.527,0.083,0.794,0.116c-0.426,0.144-0.858,0.267-1.306,0.354
									c-1.031,0.264-1.021,1.799,0,2.069c1.063,0.22,2.072,0.591,3.024,1.107c-1.116,0.755-2.515,1.194-3.502,2.096
									c-0.461,0.421-0.364,1.092,0,1.522c1.312,1.555,0.88,2.68-0.523,3.952c-0.52,0.47-0.391,1.421,0.226,1.746
									c0.535,0.232,1.038,0.52,1.523,0.833c-0.088,0.135-0.177,0.27-0.266,0.403c-0.519,0.562-0.391,1.365,0.229,1.782
									c1.055,1.518,0.97,2.747-0.253,3.694c-0.409,0.493-0.476,1.167,0,1.652c0.02,0.019,2.113,1.963,1.722,2.138
									c-0.505,0.226-0.65,0.869-0.551,1.354c0.517,2.512,0.724,7.948,4.156,7.908c1.615-0.019,1.54-2.29,0-2.453
									c-0.851-0.09-1.161-3.908-1.334-4.595c-0.071-0.285-0.13-0.479-0.177-0.616c0.014-0.006,0.027-0.015,0.043-0.028
									c1.809-1.811-0.046-3.439-1.45-4.672c1.634-2.183,2.108-3.771,0.023-5.564c0.162-0.263,0.296-0.552,0.479-0.997
									c0.2-0.486-0.14-1.007-0.518-1.271c-0.377-0.298-0.771-0.566-1.182-0.812c1.849-1.938,1.797-2.952,0.146-5.045
									c1.298-0.854,2.616-1.05,3.724-2.414c0.361-0.445,0.452-1.076,0-1.511c-0.586-0.564-1.167-0.954-1.775-1.253
									c0.578-0.286,1.132-0.66,1.688-1.186c1.436-0.064,2.828-0.396,4.191-1.194C38.659,205.646,37.958,204.491,37.141,204.886z"
									/>
								<path fill="#4E8EA5" d="M72.54,160.213c-0.272-1.253-0.43-2.34-0.473-3.509c0.011-0.069,0.036-0.126,0.033-0.205
									c-0.014-0.333-0.025-0.667-0.039-1c0.002-0.105-0.027-0.188-0.048-0.275c-0.073-0.905-0.163-1.809-0.245-2.712
									c0.665-0.53,0.604-1.735-0.184-2.141c-0.079-0.5-0.417-0.802-0.82-0.9c-0.019-0.056-0.03-0.112-0.049-0.168
									c-0.301-0.903-1.663-0.54-1.432,0.396c0.044,0.177,0.072,0.353,0.107,0.527c-5.946-0.02-11.896,0.021-17.829,0.384
									c-0.079-0.004-0.157-0.004-0.234-0.008c-0.83-0.043-1.548,0.021-2.165,0.179c-0.389,0.028-0.774,0.055-1.163,0.088
									c-0.729,0.062-1.164,0.759-1.104,1.362c-0.043,0.059-0.08,0.118-0.12,0.179c-0.687-0.184-1.481,0.177-1.464,1.092
									c0.007,0.358,0.021,0.705,0.046,1.043c-0.054,0.135-0.087,0.287-0.088,0.457c-0.013,1.947-0.055,3.952,0.515,5.835
									c0.083,0.277,0.249,0.471,0.442,0.618c-0.013,0.506,0.241,0.994,0.67,1.228c0.214,0.381,0.584,0.667,1.104,0.654
									c3.912-0.09,7.692-0.896,11.482-1.688c1.086-0.007,2.172-0.015,3.26-0.021c2.211-0.017,6.358-0.826,8.471-0.085
									C72.036,161.828,72.702,160.959,72.54,160.213z M50.966,159.308c-0.042,0.004-0.082,0.017-0.121,0.027
									c-0.134,0.029-0.267,0.058-0.398,0.087c-0.187-0.246-0.39-0.487-0.639-0.729c-0.06-0.057-0.125-0.083-0.188-0.125
									c-0.001-1.376-0.279-2.806-0.596-4.134c0.353-0.395,0.796-0.689,1.312-0.905c1.355,0.159,2.732,0.229,4.121,0.241
									c-0.047,0.579,0.302,1.242,1.043,1.339c4.648,0.605,9.723,0.56,13.925-1.717l0.062,4.318
									C63.264,157.409,57.045,157.99,50.966,159.308z"/>
								<path fill="#4E8EA5" d="M41.366,147.787c-0.495-3.503-0.255-7.323-1.564-10.646c-0.104-0.264-0.299-0.481-0.535-0.646
									c-0.002-0.331-0.007-0.662-0.009-0.993c-0.008-1.602-2.449-1.62-2.511-0.066c-0.116-0.071-0.248-0.132-0.407-0.169
									c-3.166-0.751-6.411-0.971-9.575-1.726c-1.256-0.274-1.76,1.534-0.53,1.923c1.656,0.522,3.353,0.855,5.044,1.204
									c-0.087,0.025-0.173,0.057-0.26,0.085c-0.854,0.22-1.717,0.35-2.586,0.383H27c-0.764,0-1.233,0.574-1.315,1.202
									c-0.158,0.037-0.323,0.062-0.477,0.104c-0.699,0.197-0.893,0.87-0.704,1.415c-0.01,0.124,0.002,0.261,0.051,0.407
									c0.117,0.369,0.218,0.742,0.308,1.116c-0.107,0.18-0.188,0.38-0.186,0.623c0.006,0.576,0.028,1.15,0.044,1.728
									c-0.611,0.116-1.146,0.562-1.056,1.272c0.095,0.75,0.175,1.501,0.251,2.251c-0.671,0.095-1.299,0.703-1.154,1.59
									c0.225,1.38,0.493,2.751,0.744,4.123c-0.075,0.15-0.129,0.322-0.132,0.535c-0.003,0.283-0.009,0.563-0.013,0.848
									c-0.007,0.052-0.026,0.099-0.027,0.152c-0.005,0.833-0.01,1.667-0.011,2.5c-0.01,0.6,0.358,0.953,0.805,1.079
									c0.059,0.415,0.117,0.829,0.198,1.245c0.045,0.232,0.159,0.399,0.297,0.539c-0.367,0.523-0.383,1.318,0.308,1.61
									c1.785,0.754,3.621,0.875,5.478,0.777c0.033,0.003,0.058,0.021,0.093,0.021c2.167,0.075,4.332,0.062,6.5,0.019
									c0.896-0.02,1.379-0.919,1.242-1.648c0.522-0.165,1.04-0.372,1.546-0.647c0.563-0.312,0.18-1.24-0.438-1.042
									c-0.716,0.228-1.437,0.354-2.158,0.424c-0.064-0.01-0.117-0.039-0.189-0.039c-0.502-0.001-1.004-0.003-1.506-0.005
									c-2.389-0.618-4.857-1.42-7.278-1.259c-0.005-0.3-0.01-0.598-0.015-0.895c0.523,0.142,1.104,0.021,1.386-0.544
									c0.445-0.887,0.551-1.158,0.57-2.135c0.006-0.308-0.113-0.552-0.298-0.738c-0.003-3.779-0.093-7.548-0.907-11.223
									c0.109-0.624,0.378-1.087,0.912-1.223c0.552-0.138,0.867-0.57,0.952-1.052c0.635-0.139,1.259-0.312,1.853-0.578
									c1.574-0.026,3.545,0.056,3.083,0.666c-0.178,0.235,0.163,0.546,0.396,0.396c0.113-0.073,0.227-0.146,0.34-0.222
									c-0.019,1.767-0.029,3.531-0.039,5.298c-0.146,0.199-0.256,0.427-0.286,0.674c-0.066,0.55-0.111,1.1-0.162,1.647
									c-0.039,0.106-0.064,0.223-0.062,0.353c0.002,0.057,0.008,0.112,0.01,0.171c-0.229,2.77-0.277,5.539-0.276,8.329
									c-0.012,1.208,1.31,1.561,2.093,1.063c0.514,1.15,2.586,0.961,2.587-0.563c0-0.485,0-0.972,0.001-1.456
									c0.119-0.094,0.229-0.211,0.328-0.355C42.176,153.502,41.714,150.248,41.366,147.787z M36.496,139.061
									c-0.378-0.456-0.912-0.695-1.502-0.836c0.451-0.15,0.901-0.31,1.347-0.489c0.001,0,0.002-0.001,0.004-0.001
									c0.061,0.228,0.112,0.49,0.155,0.779C36.498,138.695,36.498,138.878,36.496,139.061z"/>
								<path fill="#4E8EA5" d="M40,100.265c-1.577,0.021-3.14-0.004-4.688-0.112c-0.076-0.069-0.177-0.124-0.312-0.129
									c-0.551-0.023-1.097-0.044-1.639-0.059c-1.643-0.202-3.272-0.521-4.891-1.022c-0.524-0.164-0.968-0.147-1.369-0.01
									c-0.485-0.021-0.979,0.245-1.146,0.782c-0.021,0.021-0.042,0.039-0.062,0.06c-0.407,0.415-0.699,0.904-0.911,1.438
									c-0.427,0.215-0.5,0.731-0.331,1.145c-0.107,0.54-0.167,1.101-0.198,1.652c-0.473,0.067-0.933,0.433-0.976,0.991
									c-0.384,5.008,0.356,9.942,1.355,14.84c0.113,1.877,0.264,3.751,0.504,5.618c-0.001,0.014-0.001,0.026-0.002,0.042h0.006
									c0.014,0.103,0.021,0.206,0.035,0.309c0.093,0.676,0.646,0.91,1.185,0.819c0,0.005,0.001,0.01,0.001,0.015
									c-0.964,0.166-1.919,0.408-2.859,0.783c-0.892,0.354-1.126,1.474-0.267,2.035c1.568,1.022,3.242,1.231,4.954,1.081
									c0.18,0.423,0.563,0.744,1.107,0.711c2.822-0.172,5.329-1.298,7.896-2.376c0.508,1.14,2.489,1.033,2.316-0.377
									c-0.088-0.729-0.164-1.454-0.237-2.183c0.144-0.206,0.095-0.498-0.07-0.688c-0.028-0.295-0.061-0.59-0.089-0.885
									c0.544-0.098,1.013-0.503,1.008-1.244c-0.005-0.938-0.009-1.872-0.014-2.81c0.008-0.062,0.019-0.124,0.019-0.19
									c-0.004-0.698-0.014-1.393-0.029-2.083c-0.012-2.475-0.023-4.945-0.037-7.417c-0.003-0.63-0.385-1.016-0.85-1.156
									c0.244-2.725,0.729-5.412,1.778-8.016C41.495,101.075,40.735,100.256,40,100.265z M37.948,103.779
									c-0.062-0.362-0.125-0.728-0.196-1.09c0.167,0.005,0.335,0.014,0.501,0.017C38.137,103.061,38.046,103.42,37.948,103.779z
									 M27.443,126.521c0.007-0.094,0.012-0.188,0.018-0.28c0.858,0.301,2.076-0.4,1.827-1.596
									c-0.592-2.647,0.423-7.165-0.969-9.887c-0.104-1.076-0.224-2.153-0.349-3.233c0.039-2.588,0.068-5.174,0.1-7.76
									c0.491,0.04,0.981,0.036,1.478,0.004c0.211,0.297,0.526,0.513,0.954,0.491c0.05-0.002,0.084-0.004,0.131-0.006
									c0.261,0.299,0.676,0.479,1.185,0.391c0.487-0.085,0.903-0.209,1.288-0.366c0.812,0.146,1.494,0.34,2.18,0.271
									c-0.028,2.277,0.046,4.546,0.188,6.81c0.007,2.083,0.037,4.165,0.16,6.243c-0.222,0.199-0.375,0.492-0.375,0.899
									c0.001,0.5,0.001,1,0.002,1.5c0,0.517,0.261,0.864,0.61,1.047c0.072,1.311,0.195,2.617,0.385,3.935c0,0.008,0,0.014,0,0.02
									h0.002c0.017,0.109,0.024,0.221,0.042,0.332c0.042,0.273,0.175,0.463,0.336,0.607
									C33.592,126.406,30.481,126.143,27.443,126.521z"/>
								<path fill="#4E8EA5" d="M243.863,134.209c0.048-0.275-0.003-0.582-0.188-0.896c-1.015-1.706-2.123-3.018-3.595-4.348
									c-1.612-1.456-4.131-2.543-5.065-4.557c-0.604-1.307-2.33-0.302-2.143,0.901c0.212,1.363,0.999,2.188,2.093,3.008
									c0.779,0.583,1.541,1.16,2.272,1.76c-2.033-0.888-4.073-1.757-6.08-2.701c-3.293-1.549-6.286-3.589-9.894-4.333
									c-1.04-0.215-1.844,1.326-0.766,1.812c6.854,3.095,13.511,6.636,20.324,9.844c-2.003,0.292-4.094,0.141-6.137-0.097
									c-0.18-0.142-0.396-0.253-0.688-0.274c-0.673-0.055-1.325-0.098-2-0.052c-1.57,0.105-1.562,2.581,0,2.444
									c0.675,0.045,1.327,0.002,2-0.05c0.024-0.002,0.041-0.014,0.064-0.019c3.402,0.021,7.01,0.454,9.771-1.816
									C244.036,134.673,244.003,134.396,243.863,134.209z"/>
								<path fill="#4E8EA5" d="M249.128,106.112c-0.166-0.21-0.398-0.387-0.752-0.476c-2.539-0.638-5.229-0.854-7.703-1.695
									c-0.026-0.549-0.411-1.083-1.173-1.167c-0.664-0.095-1.33-0.146-2-0.157c-1.488-0.072-1.738,1.845-0.699,2.583
									c1.36,0.964,2.895,1.507,4.486,1.896c-2.032,0.533-4.052,1.118-6.071,1.739c-2.623,0.806-6.729,1.129-8.888,2.778
									c-0.286,0.218-0.286,0.559,0,0.775c1.771,1.354,4.585,0.008,6.477-0.476c4.611-1.182,9.175-2.582,13.886-3.309
									c-1.433,1.643-2.694,3.462-3.558,5.389c-0.295,0.656,0.039,1.53,0.867,1.511c0.767-0.021,1.293-0.514,1.435-1.247
									c0.045-0.236,0.004-0.434-0.069-0.607c1.091-2.561,3.191-4.479,4.601-6.878
									C250.282,106.234,249.574,105.721,249.128,106.112z"/>
								<path fill="#4E8EA5" d="M41.375,90.511c0.06-7.021,0.269-14.021-0.576-21.011c-0.022-0.19-0.088-0.358-0.173-0.514
									c-0.096-1.828-0.191-3.657-0.293-5.486c-0.023-0.431-0.259-0.758-0.567-0.986c-0.03-0.44-0.402-0.886-0.975-0.772
									c-0.583,0.112-1.154,0.251-1.725,0.395c-3.407-0.171-8.286-0.551-10.5,1.931c-0.472,0.529-0.819,1.115-1.076,1.738
									c-0.614-0.95-2.244-0.461-2.208,0.697c0.083,2.73,0.424,5.396,0.843,8.083c-0.083,1.99-0.078,3.974-0.02,5.957
									c-0.073,4.119-0.083,8.224,0.607,12.312c0.033,0.196,0.104,0.356,0.201,0.49c0.279,0.783,0.726,1.457,1.441,1.932
									c2.894,1.916,7.113-0.16,10.698-1.518c0.509,0.187,1.029,0.355,1.605,0.472c0.525,0.107,1.188-0.051,1.441-0.586
									c0.126-0.267,0.215-0.546,0.299-0.827c0.032-0.003,0.065-0.012,0.099-0.015C41.776,92.683,42.095,91.175,41.375,90.511z
									 M35,90.221c-0.899,0.004-1.501,1.062-1.21,1.811c-0.589,0.221-1.183,0.442-1.785,0.654
									c-1.302,0.604-2.556,0.516-3.764-0.249c0.041-0.132,0.074-0.271,0.073-0.437c-0.005-1.776-0.021-3.55-0.12-5.312
									c0.033-0.16,0.047-0.331,0.016-0.521c-0.033-0.204-0.062-0.408-0.095-0.611c-0.102-1.308-0.25-2.607-0.484-3.898
									c-0.018-0.313-0.045-0.625-0.064-0.938c-0.087-1.562-0.178-3.125-0.252-4.688c0.305-0.204,0.52-0.538,0.499-1.028
									c-0.005-0.283-0.026-0.605-0.058-0.951c-0.035-0.502-0.082-0.999-0.145-1.486c-0.086-0.872-0.159-1.81-0.159-2.721
									c0.197-0.729,0.504-1.304,0.908-1.751c0.05,0.006,0.09,0.027,0.142,0.026c2.312-0.051,4.452-0.362,6.5-1.237
									c0.168-0.019,0.33-0.045,0.5-0.061c0.38-0.033,0.623-0.267,0.729-0.545c0.131-0.07,0.263-0.136,0.393-0.214
									c0.395-0.234,0.571-0.642,0.576-1.048c0.092-0.014,0.184-0.024,0.275-0.04c-0.561,4.222-0.747,8.438-0.766,12.709
									c-0.011,2.649,0.237,5.182,0.687,7.783c0.057,0.347,0.102,0.695,0.153,1.043c0.056,1.251,0.104,2.487,0.129,3.7
									C36.784,90.213,35.892,90.217,35,90.221z"/>
								<path fill="#4E8EA5" d="M70.728,140.772c-0.179-0.153-0.355-0.311-0.534-0.466c-0.395-0.344-0.817-0.476-1.216-0.461
									c-0.386-0.271-0.875-0.441-1.479-0.436c-4.723,0.04-9.375,0.005-14.063-0.155c-0.023-4.085-0.079-8.17-0.123-12.254
									c-0.005-0.448-0.121-0.82-0.3-1.134c0.166-0.209,0.297-0.445,0.38-0.707c1.246-3.891,1.103-8.315,0.439-12.305
									c-0.1-0.598-0.442-1.04-0.898-1.33c0.01-2.342,0.021-4.685,0.023-7.025c0-0.202-0.02-0.392-0.054-0.565
									c0.289-0.364,0.472-0.84,0.472-1.435c0-3.667-0.001-7.333,0.003-11c0-0.229-0.028-0.433-0.072-0.624
									c0-0.051,0-0.104,0-0.153c0.009-0.001,0.019-0.001,0.026-0.002c0.416,0.313,0.965,0.508,1.668,0.494
									c2.435-0.05,4.81-0.321,7.119-0.857c1.959-0.022,3.919-0.028,5.881-0.021c2.603,0.01,3.34-2.813,2.246-4.479
									c0.092-1.473-1.052-3.065-2.746-3.114c-2.688-0.078-5.229,0.504-7.767,1.127c-3.312-0.367-6.604-0.544-9.856,0.374
									c-0.975,0.272-1.759,1.218-1.719,2.258c0.044,1.137,0.071,2.271,0.09,3.41c-0.018,2.528-0.052,5.06-0.084,7.59
									c-0.001,0.078,0.015,0.146,0.021,0.222c-0.006,0.691-0.013,1.383-0.019,2.075c-0.029,1.403-0.045,2.808-0.042,4.214
									c-0.039,0.155-0.068,0.315-0.082,0.489c-0.375,5.327-0.396,10.598,0.042,15.878c-0.002,0.042-0.013,0.079-0.013,0.122
									c-0.006,0.998-0.012,1.995-0.019,2.993c-0.297,0.376-0.486,0.874-0.491,1.507c-0.032,4.345-0.04,8.673,0.402,13
									c0.004,0.026,0.013,0.052,0.017,0.079c-0.117,1.14-0.239,2.278-0.361,3.421c-0.145,1.348,1.194,2.308,2.381,2.381
									c1.026,0.062,2.043,0.129,3.056,0.195c0.396,0.558,1.04,0.943,1.944,0.929c3.735-0.068,7.632,0.222,11.346-0.386
									c0.385-0.01,0.771-0.025,1.154-0.028c0.748-0.007,1.317-0.28,1.73-0.688c0.243-0.077,0.49-0.139,0.729-0.229
									C71.084,143.25,71.798,141.706,70.728,140.772z"/>
								<path fill="#4E8EA5" d="M70.186,67.772c0.237-0.459,0.242-1.06-0.047-1.535c-0.003-0.019-0.002-0.038-0.007-0.059
									c-0.127-0.75-0.699-1.172-1.337-1.265c-0.417-0.098-0.856-0.06-1.213,0.14c-0.557-0.138-1.115-0.245-1.675-0.325
									c-0.229-0.494-0.695-0.867-1.407-0.858c-1.864,0.019-3.727,0.108-5.587,0.205c-0.25-0.179-0.558-0.283-0.913-0.28
									c-1.421,0.014-2.786,0.098-4.158,0.285c-0.119-0.073-0.25-0.141-0.398-0.188l-1.507-0.475
									c-0.82-0.259-1.632,0.243-1.939,0.978c-1.021,0.44-1.354,1.604-0.976,2.422c-0.007,0.337-0.015,0.676-0.021,1.014
									c-0.647,2.103-0.479,4.368-0.632,6.571c-0.11,0.692-0.209,1.388-0.254,2.099c-0.099,1.548,2.455,1.911,2.72,0.368
									c0-0.004,0-0.01,0.001-0.013c2.31-0.027,4.61-0.196,6.914-0.36c2.902,0.061,5.829-0.167,8.75-0.191
									c1.354-0.011,1.913-1.229,1.691-2.249c0.167-0.307,0.318-0.615,0.452-0.925c0.165-0.012,0.329-0.039,0.483-0.092
									c0.493-0.158,0.899-0.529,1.021-1.113c0.03-0.132,0.051-0.271,0.05-0.424l-0.005-0.737
									C70.208,69.766,70.204,68.769,70.186,67.772z M65.145,67.045c-0.387,0.217-0.712,0.543-0.857,0.98
									c-0.525,1.581-1.003,3.144-1.115,4.75c-3.544-0.073-7.081-0.312-10.625-0.398c0.099-1.574,0.261-3.144,0.4-4.711
									c3.855-0.094,7.696-0.463,11.553-0.535c0.21,0,0.394-0.041,0.562-0.1C65.089,67.036,65.117,67.041,65.145,67.045z"/>
								<path fill="#4E8EA5" d="M173.82,51.5c0-1.205-1.057-2.4-2.319-2.32c-1.087,0.068-1.86,0.409-2.591,1.229
									c-0.813,0.915-0.905,2.275,0,3.182c0.817,0.819,2.002,0.815,2.899,0.21C172.93,53.683,173.82,52.609,173.82,51.5z"/>
								<path fill="#4E8EA5" d="M171,36.566c-0.167,0.021-0.333,0.039-0.5,0.061c-1.016,0.119-1.875,0.763-1.875,1.875
									c0,1.11,0.859,1.756,1.875,1.875c0.167,0.02,0.333,0.039,0.5,0.059c1.049,0.123,1.935-0.973,1.935-1.934
									S172.049,36.443,171,36.566z"/>
								<path fill="#4E8EA5" d="M185,34.547c-1.874,0-1.874,2.906,0,2.906S186.874,34.547,185,34.547z"/>
								<path fill="#4E8EA5" d="M176.654,40.271c-1.211,0.331-1.211,2.127,0,2.458c0.894,0.714,2.334-0.109,2.334-1.229
									S177.547,39.557,176.654,40.271z"/>
								<path fill="#4E8EA5" d="M219.141,50.5c-0.062-0.894-0.699-1.643-1.642-1.643c-0.941,0-1.578,0.749-1.642,1.643
									c-0.012,0.167-0.022,0.333-0.034,0.5c-0.064,0.912,0.811,1.676,1.676,1.676c0.864,0,1.739-0.764,1.676-1.676
									C219.164,50.833,219.152,50.667,219.141,50.5z"/>
								<path fill="#4E8EA5" d="M184.5,50.93c-0.333,0.027-0.667,0.055-1,0.082c-0.809,0.066-1.487,0.627-1.487,1.488
									c0,0.859,0.68,1.422,1.487,1.486c0.333,0.027,0.667,0.057,1,0.082c0.854,0.07,1.569-0.768,1.569-1.568
									S185.354,50.859,184.5,50.93z"/>
								<path fill="#4E8EA5" d="M181,63.047c-0.289,0.037-0.588,0.043-0.857,0.154c-1.275,0.521-1.275,2.074,0,2.599
									c0.271,0.111,0.569,0.117,0.857,0.154c0.788,0.1,1.453-0.737,1.453-1.453S181.788,62.948,181,63.047z"/>
								<path fill="#4E8EA5" d="M178.895,56.105c-0.156-0.178-0.312-0.354-0.467-0.531c-1.119-1.277-3.134,0.736-1.856,1.854
									c0.179,0.155,0.354,0.312,0.533,0.467C178.335,58.972,179.972,57.335,178.895,56.105z"/>
								<path fill="#4E8EA5" d="M155.119,24.881c-0.187-0.147-0.372-0.294-0.559-0.442c-0.641-0.507-1.494-0.628-2.121,0
									c-0.628,0.627-0.507,1.481,0,2.121c0.146,0.188,0.294,0.372,0.441,0.56c0.536,0.677,1.682,0.557,2.237,0
									C155.675,26.561,155.796,25.417,155.119,24.881z"/>
								<path fill="#4E8EA5" d="M163.93,45.44c-0.46-0.167-0.896-0.104-1.363-0.011c-1.561,0.315-1.561,2.826,0,3.142
									c0.469,0.097,0.903,0.156,1.363-0.011C165.466,48,165.466,46,163.93,45.44z"/>
								<path fill="#4E8EA5" d="M148.5,41.465c-0.821,0-1.556,0.698-1.535,1.535c0.004,0.167,0.009,0.333,0.013,0.5
									c0.021,0.83,0.678,1.521,1.522,1.521c0.846,0,1.504-0.691,1.522-1.521c0.004-0.167,0.008-0.333,0.013-0.5
									C150.055,42.163,149.322,41.465,148.5,41.465z"/>
								<path fill="#4E8EA5" d="M173.784,12.972c-0.16-0.026-0.319-0.053-0.479-0.079c-0.726-0.12-1.454,0.302-1.454,1.107
									c0,0.805,0.729,1.228,1.454,1.105c0.159-0.024,0.318-0.053,0.479-0.079C174.806,14.859,174.806,13.141,173.784,12.972z"/>
								<path fill="#4E8EA5" d="M242,64.781c-1.571,0-1.571,2.438,0,2.438S243.572,64.781,242,64.781z"/>
								<path fill="#4E8EA5" d="M204,67.664c-1.724,0-1.724,2.672,0,2.672C205.723,70.336,205.723,67.664,204,67.664z"/>
								<path fill="#4E8EA5" d="M199.5,53.781c-0.167-0.01-0.333-0.018-0.5-0.023c-1.603-0.075-1.603,2.56,0,2.484
									c0.167-0.01,0.333-0.018,0.5-0.023C201.071,56.145,201.071,53.855,199.5,53.781z"/>
								<path fill="#4E8EA5" d="M187.82,58.836c0.371-0.195-0.014-0.049-0.146-0.023c-1.179,0.229-1.179,2.146,0,2.373
									c0.134,0.026,0.519,0.172,0.146-0.021c0.894,0.471,2.028-0.108,2.028-1.164C189.848,58.943,188.712,58.366,187.82,58.836z"
									/>
								<path fill="#4E8EA5" d="M196.5,37.77c-1.587,0-1.587,2.461,0,2.461S198.087,37.77,196.5,37.77z"/>
								<path fill="#4E8EA5" d="M219.5,71.664c-0.167-0.004-0.333-0.008-0.5-0.014c-1.737-0.041-1.737,2.736,0,2.695
									c0.167-0.004,0.333-0.008,0.5-0.012C221.223,74.295,221.223,71.705,219.5,71.664z"/>
								<path fill="#4E8EA5" d="M245.539,30.5c0.004,0.167,0.008,0.333,0.012,0.5c0.029,1.224,1.87,1.224,1.898,0
									c0.004-0.167,0.008-0.333,0.012-0.5C247.49,29.261,245.51,29.261,245.539,30.5z"/>
								<path fill="#4E8EA5" d="M183.858,68.701c-0.671-0.171-1.349-0.051-1.943,0.297c-0.752,0.438-0.752,1.564,0,2.004
									c0.596,0.346,1.271,0.468,1.943,0.297C185.147,70.972,185.147,69.028,183.858,68.701z"/>
								<path fill="#4E8EA5" d="M194.5,64.559c-1.012,0-1.541,0.915-1.391,1.825c0.026,0.159,0.054,0.319,0.079,0.478
									c0.216,1.305,2.406,1.305,2.622,0c0.025-0.157,0.053-0.317,0.079-0.478C196.041,65.473,195.511,64.559,194.5,64.559z"/>
								<path fill="#4E8EA5" d="M166.5,26.805c-1.542,0-1.542,2.391,0,2.391S168.042,26.805,166.5,26.805z"/>
								<path fill="#4E8EA5" d="M127.293,42.5c0-1.213-1.141-1.978-2.271-1.729c-0.393,0.086-0.791,0.299-1.08,0.582
									c-0.056,0.056-0.104,0.113-0.151,0.173c-0.561,0.263-0.943,0.866-0.943,1.477c0,0.92,0.752,1.626,1.651,1.65
									c0.396,0.013,0.827-0.078,1.172-0.28c0.052-0.03,0.095-0.07,0.142-0.104C126.646,44.126,127.293,43.352,127.293,42.5z"/>
								<path fill="#4E8EA5" d="M136,16.812c-0.167-0.008-0.333-0.016-0.5-0.021c-0.933-0.043-1.711,0.812-1.711,1.711
									c0,0.897,0.778,1.754,1.711,1.711c0.167-0.008,0.333-0.018,0.5-0.023c0.918-0.043,1.688-0.733,1.688-1.688
									S136.918,16.855,136,16.812z"/>
								<path fill="#4E8EA5" d="M143.437,31.017l0.043,0.074c-0.014-0.036-0.033-0.061-0.047-0.095
									c-0.026-0.079-0.071-0.148-0.111-0.225c-0.048-0.084-0.101-0.165-0.157-0.237c-0.031-0.038-0.044-0.085-0.079-0.12l0,0
									c0.016,0.024,0.031,0.052,0.046,0.079c-0.236-0.296-0.532-0.532-0.874-0.788c-1.181-0.889-2.938,0.872-2.052,2.052
									c0.256,0.341,0.492,0.637,0.788,0.874c-0.026-0.015-0.053-0.031-0.079-0.046l0,0c0.035,0.035,0.082,0.048,0.12,0.079
									c0.073,0.057,0.154,0.107,0.238,0.158c0.075,0.038,0.145,0.084,0.224,0.109c0.033,0.016,0.061,0.034,0.095,0.047
									c-0.024-0.015-0.05-0.027-0.074-0.043c0.534,0.174,1.149,0.068,1.568-0.351S143.611,31.552,143.437,31.017z"/>
								<path fill="#4E8EA5" d="M208,26.652c-1.737,0-1.737,2.695,0,2.695S209.738,26.652,208,26.652z"/>
								<path fill="#4E8EA5" d="M230,34.34c-1.496,0-1.496,2.32,0,2.32S231.496,34.34,230,34.34z"/>
							</g>
						</g>
					</g>
				</g>
			</g>
		</g>
	</g>
</g>
</svg>
